%FSLAX45Y45*%
G04 Gerber Fmt 4.5, Leading zero omitted, Abs format (unit mm)*
G04 Created by KiCad (PCBNEW (6.0.5)) date 2025-09-09 17:56:18*
%MOMM*%
%LPD*%
G01*
G04 APERTURE LIST*
%TA.AperFunction,Profile*%
%ADD10C,0.100000*%
%TD*%
%ADD11C,0.200000*%
%ADD12C,0.320000*%
G04 APERTURE END LIST*
D10*
X17596000Y-6989000D02*
X8521000Y-6989000D01*
X8521000Y-6989000D02*
X8521000Y-14426000D01*
X8521000Y-14426000D02*
X17596000Y-14426000D01*
X17596000Y-14426000D02*
X17596000Y-6989000D01*
D11*
D12*
X8738000Y-13892000D02*
X9058000Y-14212000D01*
X9058000Y-13892000D02*
X8738000Y-14212000D01*
X8752000Y-7247000D02*
X9072000Y-7567000D01*
X9072000Y-7247000D02*
X8752000Y-7567000D01*
X17031000Y-7247000D02*
X17351000Y-7567000D01*
X17351000Y-7247000D02*
X17031000Y-7567000D01*
X17038000Y-13731000D02*
X17358000Y-14051000D01*
X17358000Y-13731000D02*
X17038000Y-14051000D01*
D11*
X8773619Y-14741476D02*
X8773619Y-14541476D01*
X8821238Y-14541476D01*
X8849810Y-14551000D01*
X8868857Y-14570048D01*
X8878381Y-14589095D01*
X8887905Y-14627190D01*
X8887905Y-14655762D01*
X8878381Y-14693857D01*
X8868857Y-14712905D01*
X8849810Y-14731952D01*
X8821238Y-14741476D01*
X8773619Y-14741476D01*
X8973619Y-14741476D02*
X8973619Y-14608143D01*
X8973619Y-14646238D02*
X8983143Y-14627190D01*
X8992667Y-14617667D01*
X9011714Y-14608143D01*
X9030762Y-14608143D01*
X9097429Y-14741476D02*
X9097429Y-14608143D01*
X9097429Y-14541476D02*
X9087905Y-14551000D01*
X9097429Y-14560524D01*
X9106952Y-14551000D01*
X9097429Y-14541476D01*
X9097429Y-14560524D01*
X9221238Y-14741476D02*
X9202190Y-14731952D01*
X9192667Y-14712905D01*
X9192667Y-14541476D01*
X9326000Y-14741476D02*
X9306952Y-14731952D01*
X9297429Y-14712905D01*
X9297429Y-14541476D01*
X9554571Y-14741476D02*
X9554571Y-14541476D01*
X9621238Y-14684333D01*
X9687905Y-14541476D01*
X9687905Y-14741476D01*
X9868857Y-14741476D02*
X9868857Y-14636714D01*
X9859333Y-14617667D01*
X9840286Y-14608143D01*
X9802190Y-14608143D01*
X9783143Y-14617667D01*
X9868857Y-14731952D02*
X9849810Y-14741476D01*
X9802190Y-14741476D01*
X9783143Y-14731952D01*
X9773619Y-14712905D01*
X9773619Y-14693857D01*
X9783143Y-14674809D01*
X9802190Y-14665286D01*
X9849810Y-14665286D01*
X9868857Y-14655762D01*
X9964095Y-14608143D02*
X9964095Y-14808143D01*
X9964095Y-14617667D02*
X9983143Y-14608143D01*
X10021238Y-14608143D01*
X10040286Y-14617667D01*
X10049810Y-14627190D01*
X10059333Y-14646238D01*
X10059333Y-14703381D01*
X10049810Y-14722428D01*
X10040286Y-14731952D01*
X10021238Y-14741476D01*
X9983143Y-14741476D01*
X9964095Y-14731952D01*
X10145048Y-14722428D02*
X10154571Y-14731952D01*
X10145048Y-14741476D01*
X10135524Y-14731952D01*
X10145048Y-14722428D01*
X10145048Y-14741476D01*
X10145048Y-14617667D02*
X10154571Y-14627190D01*
X10145048Y-14636714D01*
X10135524Y-14627190D01*
X10145048Y-14617667D01*
X10145048Y-14636714D01*
X8316000Y-14971000D02*
X8516000Y-15171000D01*
X8516000Y-14971000D02*
X8316000Y-15171000D01*
X8754571Y-14961476D02*
X8878381Y-14961476D01*
X8811714Y-15037667D01*
X8840286Y-15037667D01*
X8859333Y-15047190D01*
X8868857Y-15056714D01*
X8878381Y-15075762D01*
X8878381Y-15123381D01*
X8868857Y-15142428D01*
X8859333Y-15151952D01*
X8840286Y-15161476D01*
X8783143Y-15161476D01*
X8764095Y-15151952D01*
X8754571Y-15142428D01*
X8964095Y-15142428D02*
X8973619Y-15151952D01*
X8964095Y-15161476D01*
X8954571Y-15151952D01*
X8964095Y-15142428D01*
X8964095Y-15161476D01*
X9049810Y-14980524D02*
X9059333Y-14971000D01*
X9078381Y-14961476D01*
X9126000Y-14961476D01*
X9145048Y-14971000D01*
X9154571Y-14980524D01*
X9164095Y-14999571D01*
X9164095Y-15018619D01*
X9154571Y-15047190D01*
X9040286Y-15161476D01*
X9164095Y-15161476D01*
X9287905Y-14961476D02*
X9306952Y-14961476D01*
X9326000Y-14971000D01*
X9335524Y-14980524D01*
X9345048Y-14999571D01*
X9354571Y-15037667D01*
X9354571Y-15085286D01*
X9345048Y-15123381D01*
X9335524Y-15142428D01*
X9326000Y-15151952D01*
X9306952Y-15161476D01*
X9287905Y-15161476D01*
X9268857Y-15151952D01*
X9259333Y-15142428D01*
X9249810Y-15123381D01*
X9240286Y-15085286D01*
X9240286Y-15037667D01*
X9249810Y-14999571D01*
X9259333Y-14980524D01*
X9268857Y-14971000D01*
X9287905Y-14961476D01*
X9478381Y-14961476D02*
X9497429Y-14961476D01*
X9516476Y-14971000D01*
X9526000Y-14980524D01*
X9535524Y-14999571D01*
X9545048Y-15037667D01*
X9545048Y-15085286D01*
X9535524Y-15123381D01*
X9526000Y-15142428D01*
X9516476Y-15151952D01*
X9497429Y-15161476D01*
X9478381Y-15161476D01*
X9459333Y-15151952D01*
X9449810Y-15142428D01*
X9440286Y-15123381D01*
X9430762Y-15085286D01*
X9430762Y-15037667D01*
X9440286Y-14999571D01*
X9449810Y-14980524D01*
X9459333Y-14971000D01*
X9478381Y-14961476D01*
X9630762Y-15161476D02*
X9630762Y-15028143D01*
X9630762Y-15047190D02*
X9640286Y-15037667D01*
X9659333Y-15028143D01*
X9687905Y-15028143D01*
X9706952Y-15037667D01*
X9716476Y-15056714D01*
X9716476Y-15161476D01*
X9716476Y-15056714D02*
X9726000Y-15037667D01*
X9745048Y-15028143D01*
X9773619Y-15028143D01*
X9792667Y-15037667D01*
X9802190Y-15056714D01*
X9802190Y-15161476D01*
X9897429Y-15161476D02*
X9897429Y-15028143D01*
X9897429Y-15047190D02*
X9906952Y-15037667D01*
X9926000Y-15028143D01*
X9954571Y-15028143D01*
X9973619Y-15037667D01*
X9983143Y-15056714D01*
X9983143Y-15161476D01*
X9983143Y-15056714D02*
X9992667Y-15037667D01*
X10011714Y-15028143D01*
X10040286Y-15028143D01*
X10059333Y-15037667D01*
X10068857Y-15056714D01*
X10068857Y-15161476D01*
X10459333Y-14951952D02*
X10287905Y-15209095D01*
X10716476Y-14961476D02*
X10735524Y-14961476D01*
X10754571Y-14971000D01*
X10764095Y-14980524D01*
X10773619Y-14999571D01*
X10783143Y-15037667D01*
X10783143Y-15085286D01*
X10773619Y-15123381D01*
X10764095Y-15142428D01*
X10754571Y-15151952D01*
X10735524Y-15161476D01*
X10716476Y-15161476D01*
X10697429Y-15151952D01*
X10687905Y-15142428D01*
X10678381Y-15123381D01*
X10668857Y-15085286D01*
X10668857Y-15037667D01*
X10678381Y-14999571D01*
X10687905Y-14980524D01*
X10697429Y-14971000D01*
X10716476Y-14961476D01*
X10868857Y-15142428D02*
X10878381Y-15151952D01*
X10868857Y-15161476D01*
X10859333Y-15151952D01*
X10868857Y-15142428D01*
X10868857Y-15161476D01*
X11068857Y-15161476D02*
X10954571Y-15161476D01*
X11011714Y-15161476D02*
X11011714Y-14961476D01*
X10992667Y-14990048D01*
X10973619Y-15009095D01*
X10954571Y-15018619D01*
X11145048Y-14980524D02*
X11154571Y-14971000D01*
X11173619Y-14961476D01*
X11221238Y-14961476D01*
X11240286Y-14971000D01*
X11249809Y-14980524D01*
X11259333Y-14999571D01*
X11259333Y-15018619D01*
X11249809Y-15047190D01*
X11135524Y-15161476D01*
X11259333Y-15161476D01*
X11430762Y-14961476D02*
X11392667Y-14961476D01*
X11373619Y-14971000D01*
X11364095Y-14980524D01*
X11345048Y-15009095D01*
X11335524Y-15047190D01*
X11335524Y-15123381D01*
X11345048Y-15142428D01*
X11354571Y-15151952D01*
X11373619Y-15161476D01*
X11411714Y-15161476D01*
X11430762Y-15151952D01*
X11440286Y-15142428D01*
X11449809Y-15123381D01*
X11449809Y-15075762D01*
X11440286Y-15056714D01*
X11430762Y-15047190D01*
X11411714Y-15037667D01*
X11373619Y-15037667D01*
X11354571Y-15047190D01*
X11345048Y-15056714D01*
X11335524Y-15075762D01*
X11573619Y-14961476D02*
X11592667Y-14961476D01*
X11611714Y-14971000D01*
X11621238Y-14980524D01*
X11630762Y-14999571D01*
X11640286Y-15037667D01*
X11640286Y-15085286D01*
X11630762Y-15123381D01*
X11621238Y-15142428D01*
X11611714Y-15151952D01*
X11592667Y-15161476D01*
X11573619Y-15161476D01*
X11554571Y-15151952D01*
X11545048Y-15142428D01*
X11535524Y-15123381D01*
X11526000Y-15085286D01*
X11526000Y-15037667D01*
X11535524Y-14999571D01*
X11545048Y-14980524D01*
X11554571Y-14971000D01*
X11573619Y-14961476D01*
X11716476Y-14961476D02*
X11716476Y-14999571D01*
X11792667Y-14961476D02*
X11792667Y-14999571D01*
X12087905Y-15237667D02*
X12078381Y-15228143D01*
X12059333Y-15199571D01*
X12049809Y-15180524D01*
X12040286Y-15151952D01*
X12030762Y-15104333D01*
X12030762Y-15066238D01*
X12040286Y-15018619D01*
X12049809Y-14990048D01*
X12059333Y-14971000D01*
X12078381Y-14942428D01*
X12087905Y-14932905D01*
X12249809Y-15028143D02*
X12249809Y-15161476D01*
X12202190Y-14951952D02*
X12154571Y-15094809D01*
X12278381Y-15094809D01*
X12506952Y-15161476D02*
X12506952Y-14961476D01*
X12592667Y-15161476D02*
X12592667Y-15056714D01*
X12583143Y-15037667D01*
X12564095Y-15028143D01*
X12535524Y-15028143D01*
X12516476Y-15037667D01*
X12506952Y-15047190D01*
X12716476Y-15161476D02*
X12697428Y-15151952D01*
X12687905Y-15142428D01*
X12678381Y-15123381D01*
X12678381Y-15066238D01*
X12687905Y-15047190D01*
X12697428Y-15037667D01*
X12716476Y-15028143D01*
X12745048Y-15028143D01*
X12764095Y-15037667D01*
X12773619Y-15047190D01*
X12783143Y-15066238D01*
X12783143Y-15123381D01*
X12773619Y-15142428D01*
X12764095Y-15151952D01*
X12745048Y-15161476D01*
X12716476Y-15161476D01*
X12897428Y-15161476D02*
X12878381Y-15151952D01*
X12868857Y-15132905D01*
X12868857Y-14961476D01*
X13049809Y-15151952D02*
X13030762Y-15161476D01*
X12992667Y-15161476D01*
X12973619Y-15151952D01*
X12964095Y-15132905D01*
X12964095Y-15056714D01*
X12973619Y-15037667D01*
X12992667Y-15028143D01*
X13030762Y-15028143D01*
X13049809Y-15037667D01*
X13059333Y-15056714D01*
X13059333Y-15075762D01*
X12964095Y-15094809D01*
X13135524Y-15151952D02*
X13154571Y-15161476D01*
X13192667Y-15161476D01*
X13211714Y-15151952D01*
X13221238Y-15132905D01*
X13221238Y-15123381D01*
X13211714Y-15104333D01*
X13192667Y-15094809D01*
X13164095Y-15094809D01*
X13145048Y-15085286D01*
X13135524Y-15066238D01*
X13135524Y-15056714D01*
X13145048Y-15037667D01*
X13164095Y-15028143D01*
X13192667Y-15028143D01*
X13211714Y-15037667D01*
X13287905Y-15237667D02*
X13297428Y-15228143D01*
X13316476Y-15199571D01*
X13326000Y-15180524D01*
X13335524Y-15151952D01*
X13345048Y-15104333D01*
X13345048Y-15066238D01*
X13335524Y-15018619D01*
X13326000Y-14990048D01*
X13316476Y-14971000D01*
X13297428Y-14942428D01*
X13287905Y-14932905D01*
X13649809Y-15237667D02*
X13640286Y-15228143D01*
X13621238Y-15199571D01*
X13611714Y-15180524D01*
X13602190Y-15151952D01*
X13592667Y-15104333D01*
X13592667Y-15066238D01*
X13602190Y-15018619D01*
X13611714Y-14990048D01*
X13621238Y-14971000D01*
X13640286Y-14942428D01*
X13649809Y-14932905D01*
X13726000Y-15028143D02*
X13726000Y-15161476D01*
X13726000Y-15047190D02*
X13735524Y-15037667D01*
X13754571Y-15028143D01*
X13783143Y-15028143D01*
X13802190Y-15037667D01*
X13811714Y-15056714D01*
X13811714Y-15161476D01*
X13935524Y-15161476D02*
X13916476Y-15151952D01*
X13906952Y-15142428D01*
X13897428Y-15123381D01*
X13897428Y-15066238D01*
X13906952Y-15047190D01*
X13916476Y-15037667D01*
X13935524Y-15028143D01*
X13964095Y-15028143D01*
X13983143Y-15037667D01*
X13992667Y-15047190D01*
X14002190Y-15066238D01*
X14002190Y-15123381D01*
X13992667Y-15142428D01*
X13983143Y-15151952D01*
X13964095Y-15161476D01*
X13935524Y-15161476D01*
X14059333Y-15028143D02*
X14135524Y-15028143D01*
X14087905Y-14961476D02*
X14087905Y-15132905D01*
X14097428Y-15151952D01*
X14116476Y-15161476D01*
X14135524Y-15161476D01*
X14354571Y-15028143D02*
X14354571Y-15228143D01*
X14354571Y-15037667D02*
X14373619Y-15028143D01*
X14411714Y-15028143D01*
X14430762Y-15037667D01*
X14440286Y-15047190D01*
X14449809Y-15066238D01*
X14449809Y-15123381D01*
X14440286Y-15142428D01*
X14430762Y-15151952D01*
X14411714Y-15161476D01*
X14373619Y-15161476D01*
X14354571Y-15151952D01*
X14564095Y-15161476D02*
X14545048Y-15151952D01*
X14535524Y-15132905D01*
X14535524Y-14961476D01*
X14726000Y-15161476D02*
X14726000Y-15056714D01*
X14716476Y-15037667D01*
X14697428Y-15028143D01*
X14659333Y-15028143D01*
X14640286Y-15037667D01*
X14726000Y-15151952D02*
X14706952Y-15161476D01*
X14659333Y-15161476D01*
X14640286Y-15151952D01*
X14630762Y-15132905D01*
X14630762Y-15113857D01*
X14640286Y-15094809D01*
X14659333Y-15085286D01*
X14706952Y-15085286D01*
X14726000Y-15075762D01*
X14792667Y-15028143D02*
X14868857Y-15028143D01*
X14821238Y-14961476D02*
X14821238Y-15132905D01*
X14830762Y-15151952D01*
X14849809Y-15161476D01*
X14868857Y-15161476D01*
X15011714Y-15151952D02*
X14992667Y-15161476D01*
X14954571Y-15161476D01*
X14935524Y-15151952D01*
X14926000Y-15132905D01*
X14926000Y-15056714D01*
X14935524Y-15037667D01*
X14954571Y-15028143D01*
X14992667Y-15028143D01*
X15011714Y-15037667D01*
X15021238Y-15056714D01*
X15021238Y-15075762D01*
X14926000Y-15094809D01*
X15192667Y-15161476D02*
X15192667Y-14961476D01*
X15192667Y-15151952D02*
X15173619Y-15161476D01*
X15135524Y-15161476D01*
X15116476Y-15151952D01*
X15106952Y-15142428D01*
X15097428Y-15123381D01*
X15097428Y-15066238D01*
X15106952Y-15047190D01*
X15116476Y-15037667D01*
X15135524Y-15028143D01*
X15173619Y-15028143D01*
X15192667Y-15037667D01*
X15268857Y-15237667D02*
X15278381Y-15228143D01*
X15297428Y-15199571D01*
X15306952Y-15180524D01*
X15316476Y-15151952D01*
X15326000Y-15104333D01*
X15326000Y-15066238D01*
X15316476Y-15018619D01*
X15306952Y-14990048D01*
X15297428Y-14971000D01*
X15278381Y-14942428D01*
X15268857Y-14932905D01*
M02*
