%FSLAX45Y45*%
G04 Gerber Fmt 4.5, Leading zero omitted, Abs format (unit mm)*
G04 Created by KiCad (PCBNEW (6.0.5)) date 2025-09-09 17:56:18*
%MOMM*%
%LPD*%
G01*
G04 APERTURE LIST*
%TA.AperFunction,Profile*%
%ADD10C,0.100000*%
%TD*%
%ADD11C,0.200000*%
%ADD12C,0.040000*%
%ADD13C,0.075000*%
%ADD14C,0.079999*%
%ADD15C,0.100000*%
%ADD16C,0.130002*%
G04 APERTURE END LIST*
D10*
X17596000Y-6989000D02*
X8521000Y-6989000D01*
X8521000Y-6989000D02*
X8521000Y-14426000D01*
X8521000Y-14426000D02*
X17596000Y-14426000D01*
X17596000Y-14426000D02*
X17596000Y-6989000D01*
D11*
D12*
X9231390Y-10852510D02*
X9271390Y-10892510D01*
X9271390Y-10852510D02*
X9231390Y-10892510D01*
X9551300Y-12734060D02*
X9591300Y-12774060D01*
X9591300Y-12734060D02*
X9551300Y-12774060D01*
X9721000Y-10983360D02*
X9761000Y-11023360D01*
X9761000Y-10983360D02*
X9721000Y-11023360D01*
X9912630Y-13284960D02*
X9952630Y-13324960D01*
X9952630Y-13284960D02*
X9912630Y-13324960D01*
X10028000Y-11258310D02*
X10068000Y-11298310D01*
X10068000Y-11258310D02*
X10028000Y-11298310D01*
X10155010Y-11256270D02*
X10195010Y-11296270D01*
X10195010Y-11256270D02*
X10155010Y-11296270D01*
X10178960Y-8891560D02*
X10218960Y-8931560D01*
X10218960Y-8891560D02*
X10178960Y-8931560D01*
X10190600Y-13005500D02*
X10230600Y-13045500D01*
X10230600Y-13005500D02*
X10190600Y-13045500D01*
X10200310Y-9270950D02*
X10240310Y-9310950D01*
X10240310Y-9270950D02*
X10200310Y-9310950D01*
X10316100Y-13005340D02*
X10356100Y-13045340D01*
X10356100Y-13005340D02*
X10316100Y-13045340D01*
X10330170Y-10498310D02*
X10370170Y-10538310D01*
X10370170Y-10498310D02*
X10330170Y-10538310D01*
X10409660Y-13080710D02*
X10449660Y-13120710D01*
X10449660Y-13080710D02*
X10409660Y-13120710D01*
X10421890Y-12661200D02*
X10461890Y-12701200D01*
X10461890Y-12661200D02*
X10421890Y-12701200D01*
X10429350Y-9245800D02*
X10469350Y-9285800D01*
X10469350Y-9245800D02*
X10429350Y-9285800D01*
X10585460Y-13483180D02*
X10625460Y-13523180D01*
X10625460Y-13483180D02*
X10585460Y-13523180D01*
X10586660Y-12734760D02*
X10626660Y-12774760D01*
X10626660Y-12734760D02*
X10586660Y-12774760D01*
X10670190Y-12508300D02*
X10710190Y-12548300D01*
X10710190Y-12508300D02*
X10670190Y-12548300D01*
X10698330Y-13005240D02*
X10738330Y-13045240D01*
X10738330Y-13005240D02*
X10698330Y-13045240D01*
X10704580Y-8732440D02*
X10744580Y-8772440D01*
X10744580Y-8732440D02*
X10704580Y-8772440D01*
X10704580Y-9261430D02*
X10744580Y-9301430D01*
X10744580Y-9261430D02*
X10704580Y-9301430D01*
X10710980Y-10838000D02*
X10750980Y-10878000D01*
X10750980Y-10838000D02*
X10710980Y-10878000D01*
X10734600Y-12585580D02*
X10774600Y-12625580D01*
X10774600Y-12585580D02*
X10734600Y-12625580D01*
X10863560Y-12433520D02*
X10903560Y-12473520D01*
X10903560Y-12433520D02*
X10863560Y-12473520D01*
X10867670Y-9293220D02*
X10907670Y-9333220D01*
X10907670Y-9293220D02*
X10867670Y-9333220D01*
X10867680Y-8738550D02*
X10907680Y-8778550D01*
X10907680Y-8738550D02*
X10867680Y-8778550D01*
X10870500Y-8113630D02*
X10910500Y-8153630D01*
X10910500Y-8113630D02*
X10870500Y-8153630D01*
X10880040Y-11258280D02*
X10920040Y-11298280D01*
X10920040Y-11258280D02*
X10880040Y-11298280D01*
X10935350Y-14234030D02*
X10975350Y-14274030D01*
X10975350Y-14234030D02*
X10935350Y-14274030D01*
X11025590Y-10285500D02*
X11065590Y-10325500D01*
X11065590Y-10285500D02*
X11025590Y-10325500D01*
X11025590Y-10539500D02*
X11065590Y-10579500D01*
X11065590Y-10539500D02*
X11025590Y-10579500D01*
X11043910Y-12817640D02*
X11083910Y-12857640D01*
X11083910Y-12817640D02*
X11043910Y-12857640D01*
X11052090Y-9261840D02*
X11092090Y-9301840D01*
X11092090Y-9261840D02*
X11052090Y-9301840D01*
X11062850Y-8739370D02*
X11102850Y-8779370D01*
X11102850Y-8739370D02*
X11062850Y-8779370D01*
X11101710Y-9757860D02*
X11141710Y-9797860D01*
X11141710Y-9757860D02*
X11101710Y-9797860D01*
X11116510Y-12890330D02*
X11156510Y-12930330D01*
X11156510Y-12890330D02*
X11116510Y-12930330D01*
X11164030Y-8726610D02*
X11204030Y-8766610D01*
X11204030Y-8726610D02*
X11164030Y-8766610D01*
X11170880Y-9262860D02*
X11210880Y-9302860D01*
X11210880Y-9262860D02*
X11170880Y-9302860D01*
X11210920Y-10933820D02*
X11250920Y-10973820D01*
X11250920Y-10933820D02*
X11210920Y-10973820D01*
X11254760Y-8850000D02*
X11294760Y-8890000D01*
X11294760Y-8850000D02*
X11254760Y-8890000D01*
X11347170Y-8747440D02*
X11387170Y-8787440D01*
X11387170Y-8747440D02*
X11347170Y-8787440D01*
X11347170Y-9264430D02*
X11387170Y-9304430D01*
X11387170Y-9264430D02*
X11347170Y-9304430D01*
X11377510Y-8113630D02*
X11417510Y-8153630D01*
X11417510Y-8113630D02*
X11377510Y-8153630D01*
X11402290Y-14066160D02*
X11442290Y-14106160D01*
X11442290Y-14066160D02*
X11402290Y-14106160D01*
X11426270Y-9974310D02*
X11466270Y-10014310D01*
X11466270Y-9974310D02*
X11426270Y-10014310D01*
X11442020Y-9841000D02*
X11482020Y-9881000D01*
X11482020Y-9841000D02*
X11442020Y-9881000D01*
X11455710Y-8732920D02*
X11495710Y-8772920D01*
X11495710Y-8732920D02*
X11455710Y-8772920D01*
X11467080Y-9261830D02*
X11507080Y-9301830D01*
X11507080Y-9261830D02*
X11467080Y-9301830D01*
X11542510Y-8792240D02*
X11582510Y-8832240D01*
X11582510Y-8792240D02*
X11542510Y-8832240D01*
X11611450Y-9260210D02*
X11651450Y-9300210D01*
X11651450Y-9260210D02*
X11611450Y-9300210D01*
X11657900Y-7832670D02*
X11697900Y-7872670D01*
X11697900Y-7832670D02*
X11657900Y-7872670D01*
X11748280Y-7780360D02*
X11788280Y-7820360D01*
X11788280Y-7780360D02*
X11748280Y-7820360D01*
X11762810Y-8733480D02*
X11802810Y-8773480D01*
X11802810Y-8733480D02*
X11762810Y-8773480D01*
X11762810Y-9260170D02*
X11802810Y-9300170D01*
X11802810Y-9260170D02*
X11762810Y-9300170D01*
X11837690Y-7837550D02*
X11877690Y-7877550D01*
X11877690Y-7837550D02*
X11837690Y-7877550D01*
X11865010Y-8745070D02*
X11905010Y-8785070D01*
X11905010Y-8745070D02*
X11865010Y-8785070D01*
X11894170Y-8166420D02*
X11934170Y-8206420D01*
X11934170Y-8166420D02*
X11894170Y-8206420D01*
X11979060Y-9260190D02*
X12019060Y-9300190D01*
X12019060Y-9260190D02*
X11979060Y-9300190D01*
X11991720Y-8219730D02*
X12031720Y-8259730D01*
X12031720Y-8219730D02*
X11991720Y-8259730D01*
X12012500Y-7944880D02*
X12052500Y-7984880D01*
X12052500Y-7944880D02*
X12012500Y-7984880D01*
X12019090Y-13783460D02*
X12059090Y-13823460D01*
X12059090Y-13783460D02*
X12019090Y-13823460D01*
X12020440Y-13587450D02*
X12060440Y-13627450D01*
X12060440Y-13587450D02*
X12020440Y-13627450D01*
X12063050Y-10644650D02*
X12103050Y-10684650D01*
X12103050Y-10644650D02*
X12063050Y-10684650D01*
X12153890Y-9272060D02*
X12193890Y-9312060D01*
X12193890Y-9272060D02*
X12153890Y-9312060D01*
X12171510Y-8370030D02*
X12211510Y-8410030D01*
X12211510Y-8370030D02*
X12171510Y-8410030D01*
X12182460Y-13415790D02*
X12222460Y-13455790D01*
X12222460Y-13415790D02*
X12182460Y-13455790D01*
X12223660Y-8726060D02*
X12263660Y-8766060D01*
X12263660Y-8726060D02*
X12223660Y-8766060D01*
X12231520Y-8845330D02*
X12271520Y-8885330D01*
X12271520Y-8845330D02*
X12231520Y-8885330D01*
X12267300Y-8014330D02*
X12307300Y-8054330D01*
X12307300Y-8014330D02*
X12267300Y-8054330D01*
X12306760Y-9249070D02*
X12346760Y-9289070D01*
X12346760Y-9249070D02*
X12306760Y-9289070D01*
X12385270Y-8733960D02*
X12425270Y-8773960D01*
X12425270Y-8733960D02*
X12385270Y-8773960D01*
X12393500Y-7667610D02*
X12433500Y-7707610D01*
X12433500Y-7667610D02*
X12393500Y-7707610D01*
X12402400Y-10717490D02*
X12442400Y-10757490D01*
X12442400Y-10717490D02*
X12402400Y-10757490D01*
X12464040Y-9250190D02*
X12504040Y-9290190D01*
X12504040Y-9250190D02*
X12464040Y-9290190D01*
X12516060Y-8733840D02*
X12556060Y-8773840D01*
X12556060Y-8733840D02*
X12516060Y-8773840D01*
X12526650Y-8849000D02*
X12566650Y-8889000D01*
X12566650Y-8849000D02*
X12526650Y-8889000D01*
X12537530Y-11072960D02*
X12577530Y-11112960D01*
X12577530Y-11072960D02*
X12537530Y-11112960D01*
X12632790Y-8737700D02*
X12672790Y-8777700D01*
X12672790Y-8737700D02*
X12632790Y-8777700D01*
X12659490Y-9356110D02*
X12699490Y-9396110D01*
X12699490Y-9356110D02*
X12659490Y-9396110D01*
X12675390Y-10161250D02*
X12715390Y-10201250D01*
X12715390Y-10161250D02*
X12675390Y-10201250D01*
X12690480Y-10419540D02*
X12730480Y-10459540D01*
X12730480Y-10419540D02*
X12690480Y-10459540D01*
X12711840Y-9260790D02*
X12751840Y-9300790D01*
X12751840Y-9260790D02*
X12711840Y-9300790D01*
X12715750Y-10264410D02*
X12755750Y-10304410D01*
X12755750Y-10264410D02*
X12715750Y-10304410D01*
X12723590Y-8030900D02*
X12763590Y-8070900D01*
X12763590Y-8030900D02*
X12723590Y-8070900D01*
X12743330Y-10531670D02*
X12783330Y-10571670D01*
X12783330Y-10531670D02*
X12743330Y-10571670D01*
X12774500Y-7833440D02*
X12814500Y-7873440D01*
X12814500Y-7833440D02*
X12774500Y-7873440D01*
X12788470Y-8296870D02*
X12828470Y-8336870D01*
X12828470Y-8296870D02*
X12788470Y-8336870D01*
X12932400Y-10720160D02*
X12972400Y-10760160D01*
X12972400Y-10720160D02*
X12932400Y-10760160D01*
X12949430Y-8765950D02*
X12989430Y-8805950D01*
X12989430Y-8765950D02*
X12949430Y-8805950D01*
X12992350Y-8051990D02*
X13032350Y-8091990D01*
X13032350Y-8051990D02*
X12992350Y-8091990D01*
X13021400Y-10012750D02*
X13061400Y-10052750D01*
X13061400Y-10012750D02*
X13021400Y-10052750D01*
X13024470Y-9259970D02*
X13064470Y-9299970D01*
X13064470Y-9259970D02*
X13024470Y-9299970D01*
X13032520Y-9646720D02*
X13072520Y-9686720D01*
X13072520Y-9646720D02*
X13032520Y-9686720D01*
X13058950Y-8737150D02*
X13098950Y-8777150D01*
X13098950Y-8737150D02*
X13058950Y-8777150D01*
X13096790Y-10681050D02*
X13136790Y-10721050D01*
X13136790Y-10681050D02*
X13096790Y-10721050D01*
X13140040Y-8839940D02*
X13180040Y-8879940D01*
X13180040Y-8839940D02*
X13140040Y-8879940D01*
X13180460Y-9262170D02*
X13220460Y-9302170D01*
X13220460Y-9262170D02*
X13180460Y-9302170D01*
X13183960Y-9576150D02*
X13223960Y-9616150D01*
X13223960Y-9576150D02*
X13183960Y-9616150D01*
X13198840Y-8062020D02*
X13238840Y-8102020D01*
X13238840Y-8062020D02*
X13198840Y-8102020D01*
X13199600Y-10657770D02*
X13239600Y-10697770D01*
X13239600Y-10657770D02*
X13199600Y-10697770D01*
X13242760Y-8846560D02*
X13282760Y-8886560D01*
X13282760Y-8846560D02*
X13242760Y-8886560D01*
X13300470Y-13895750D02*
X13340470Y-13935750D01*
X13340470Y-13895750D02*
X13300470Y-13935750D01*
X13348130Y-9261140D02*
X13388130Y-9301140D01*
X13388130Y-9261140D02*
X13348130Y-9301140D01*
X13362590Y-8797080D02*
X13402590Y-8837080D01*
X13402590Y-8797080D02*
X13362590Y-8837080D01*
X13441270Y-8724150D02*
X13481270Y-8764150D01*
X13481270Y-8724150D02*
X13441270Y-8764150D01*
X13503650Y-10436090D02*
X13543650Y-10476090D01*
X13543650Y-10436090D02*
X13503650Y-10476090D01*
X13606360Y-9393770D02*
X13646360Y-9433770D01*
X13646360Y-9393770D02*
X13606360Y-9433770D01*
X13612730Y-10551380D02*
X13652730Y-10591380D01*
X13652730Y-10551380D02*
X13612730Y-10591380D01*
X13618170Y-9261930D02*
X13658170Y-9301930D01*
X13658170Y-9261930D02*
X13618170Y-9301930D01*
X13631030Y-10696760D02*
X13671030Y-10736760D01*
X13671030Y-10696760D02*
X13631030Y-10736760D01*
X13679050Y-9468610D02*
X13719050Y-9508610D01*
X13719050Y-9468610D02*
X13679050Y-9508610D01*
X13726120Y-8740380D02*
X13766120Y-8780380D01*
X13766120Y-8740380D02*
X13726120Y-8780380D01*
X13748920Y-9580100D02*
X13788920Y-9620100D01*
X13788920Y-9580100D02*
X13748920Y-9620100D01*
X13866330Y-8791930D02*
X13906330Y-8831930D01*
X13906330Y-8791930D02*
X13866330Y-8831930D01*
X13953770Y-10179740D02*
X13993770Y-10219740D01*
X13993770Y-10179740D02*
X13953770Y-10219740D01*
X13957190Y-10300450D02*
X13997190Y-10340450D01*
X13997190Y-10300450D02*
X13957190Y-10340450D01*
X13958110Y-9260610D02*
X13998110Y-9300610D01*
X13998110Y-9260610D02*
X13958110Y-9300610D01*
X13989420Y-8807400D02*
X14029420Y-8847400D01*
X14029420Y-8807400D02*
X13989420Y-8847400D01*
X14041380Y-11681540D02*
X14081380Y-11721540D01*
X14081380Y-11681540D02*
X14041380Y-11721540D01*
X14108740Y-11589440D02*
X14148740Y-11629440D01*
X14148740Y-11589440D02*
X14108740Y-11629440D01*
X14155910Y-11183840D02*
X14195910Y-11223840D01*
X14195910Y-11183840D02*
X14155910Y-11223840D01*
X14216800Y-8285070D02*
X14256800Y-8325070D01*
X14256800Y-8285070D02*
X14216800Y-8325070D01*
X14239050Y-8733770D02*
X14279050Y-8773770D01*
X14279050Y-8733770D02*
X14239050Y-8773770D01*
X14242810Y-10999960D02*
X14282810Y-11039960D01*
X14282810Y-10999960D02*
X14242810Y-11039960D01*
X14291570Y-9262090D02*
X14331570Y-9302090D01*
X14331570Y-9262090D02*
X14291570Y-9302090D01*
X14297690Y-11612140D02*
X14337690Y-11652140D01*
X14337690Y-11612140D02*
X14297690Y-11652140D01*
X14337690Y-8894130D02*
X14377690Y-8934130D01*
X14377690Y-8894130D02*
X14337690Y-8934130D01*
X14354180Y-13834660D02*
X14394180Y-13874660D01*
X14394180Y-13834660D02*
X14354180Y-13874660D01*
X14360500Y-14173020D02*
X14400500Y-14213020D01*
X14400500Y-14173020D02*
X14360500Y-14213020D01*
X14375450Y-9999330D02*
X14415450Y-10039330D01*
X14415450Y-9999330D02*
X14375450Y-10039330D01*
X14376000Y-11516850D02*
X14416000Y-11556850D01*
X14416000Y-11516850D02*
X14376000Y-11556850D01*
X14442300Y-10218360D02*
X14482300Y-10258360D01*
X14482300Y-10218360D02*
X14442300Y-10258360D01*
X14442300Y-10421410D02*
X14482300Y-10461410D01*
X14482300Y-10421410D02*
X14442300Y-10461410D01*
X14473950Y-8721800D02*
X14513950Y-8761800D01*
X14513950Y-8721800D02*
X14473950Y-8761800D01*
X14593940Y-12568490D02*
X14633940Y-12608490D01*
X14633940Y-12568490D02*
X14593940Y-12608490D01*
X14665700Y-9494200D02*
X14705700Y-9534200D01*
X14705700Y-9494200D02*
X14665700Y-9534200D01*
X14762400Y-8814680D02*
X14802400Y-8854680D01*
X14802400Y-8814680D02*
X14762400Y-8854680D01*
X14784370Y-13692650D02*
X14824370Y-13732650D01*
X14824370Y-13692650D02*
X14784370Y-13732650D01*
X14794920Y-13794170D02*
X14834920Y-13834170D01*
X14834920Y-13794170D02*
X14794920Y-13834170D01*
X14803160Y-13576500D02*
X14843160Y-13616500D01*
X14843160Y-13576500D02*
X14803160Y-13616500D01*
X14837310Y-8704220D02*
X14877310Y-8744220D01*
X14877310Y-8704220D02*
X14837310Y-8744220D01*
X14842850Y-8897070D02*
X14882850Y-8937070D01*
X14882850Y-8897070D02*
X14842850Y-8937070D01*
X14842850Y-9572800D02*
X14882850Y-9612800D01*
X14882850Y-9572800D02*
X14842850Y-9612800D01*
X14955360Y-9266260D02*
X14995360Y-9306260D01*
X14995360Y-9266260D02*
X14955360Y-9306260D01*
X15027470Y-8610910D02*
X15067470Y-8650910D01*
X15067470Y-8610910D02*
X15027470Y-8650910D01*
X16199520Y-10292480D02*
X16239520Y-10332480D01*
X16239520Y-10292480D02*
X16199520Y-10332480D01*
X16599990Y-7897130D02*
X16639990Y-7937130D01*
X16639990Y-7897130D02*
X16599990Y-7937130D01*
X16961220Y-12600500D02*
X17001220Y-12640500D01*
X17001220Y-12600500D02*
X16961220Y-12640500D01*
D13*
X10114500Y-13758750D02*
G75*
G03*
X10114500Y-13758750I-37500J0D01*
G01*
X10694500Y-13758750D02*
G75*
G03*
X10694500Y-13758750I-37500J0D01*
G01*
D14*
X9934000Y-13668750D02*
X9934000Y-13748750D01*
X9894000Y-13708750D02*
X9974000Y-13708750D01*
D11*
X9904000Y-13668749D02*
X9904000Y-13748751D01*
X9964000Y-13668749D02*
X9964000Y-13748751D01*
X9904000Y-13748751D02*
G75*
G03*
X9964000Y-13748751I30000J0D01*
G01*
X9964000Y-13668749D02*
G75*
G03*
X9904000Y-13668749I-30000J0D01*
G01*
D14*
X9934000Y-14086750D02*
X9934000Y-14166750D01*
X9894000Y-14126750D02*
X9974000Y-14126750D01*
D11*
X9904000Y-14096750D02*
X9904000Y-14156750D01*
X9964000Y-14096750D02*
X9964000Y-14156750D01*
X9904000Y-14156750D02*
G75*
G03*
X9964000Y-14156750I30000J0D01*
G01*
X9964000Y-14096750D02*
G75*
G03*
X9904000Y-14096750I-30000J0D01*
G01*
D14*
X10800000Y-13668750D02*
X10800000Y-13748750D01*
X10760000Y-13708750D02*
X10840000Y-13708750D01*
D11*
X10770000Y-13668751D02*
X10770000Y-13748749D01*
X10830000Y-13668751D02*
X10830000Y-13748749D01*
X10770000Y-13748749D02*
G75*
G03*
X10830000Y-13748749I30000J0D01*
G01*
X10830000Y-13668751D02*
G75*
G03*
X10770000Y-13668751I-30000J0D01*
G01*
D14*
X10800000Y-14086750D02*
X10800000Y-14166750D01*
X10760000Y-14126750D02*
X10840000Y-14126750D01*
D11*
X10770000Y-14096750D02*
X10770000Y-14156750D01*
X10830000Y-14096750D02*
X10830000Y-14156750D01*
X10770000Y-14156750D02*
G75*
G03*
X10830000Y-14156750I30000J0D01*
G01*
X10830000Y-14096750D02*
G75*
G03*
X10770000Y-14096750I-30000J0D01*
G01*
D15*
X8766356Y-10002356D02*
X8766356Y-9931644D01*
X8695644Y-9931644D01*
X8695644Y-10002356D01*
X8766356Y-10002356D01*
X8766356Y-10256356D02*
X8766356Y-10185644D01*
X8695644Y-10185644D01*
X8695644Y-10256356D01*
X8766356Y-10256356D01*
X8766356Y-10510356D02*
X8766356Y-10439644D01*
X8695644Y-10439644D01*
X8695644Y-10510356D01*
X8766356Y-10510356D01*
X8766356Y-10764356D02*
X8766356Y-10693644D01*
X8695644Y-10693644D01*
X8695644Y-10764356D01*
X8766356Y-10764356D01*
X10797856Y-7388856D02*
X10797856Y-7318144D01*
X10727144Y-7318144D01*
X10727144Y-7388856D01*
X10797856Y-7388856D01*
X10797856Y-7642856D02*
X10797856Y-7572144D01*
X10727144Y-7572144D01*
X10727144Y-7642856D01*
X10797856Y-7642856D01*
X11051856Y-7388856D02*
X11051856Y-7318144D01*
X10981144Y-7318144D01*
X10981144Y-7388856D01*
X11051856Y-7388856D01*
X11051856Y-7642856D02*
X11051856Y-7572144D01*
X10981144Y-7572144D01*
X10981144Y-7642856D01*
X11051856Y-7642856D01*
X11305856Y-7388856D02*
X11305856Y-7318144D01*
X11235144Y-7318144D01*
X11235144Y-7388856D01*
X11305856Y-7388856D01*
X11305856Y-7642856D02*
X11305856Y-7572144D01*
X11235144Y-7572144D01*
X11235144Y-7642856D01*
X11305856Y-7642856D01*
X11559856Y-7388856D02*
X11559856Y-7318144D01*
X11489144Y-7318144D01*
X11489144Y-7388856D01*
X11559856Y-7388856D01*
X11559856Y-7642856D02*
X11559856Y-7572144D01*
X11489144Y-7572144D01*
X11489144Y-7642856D01*
X11559856Y-7642856D01*
X11813856Y-7388856D02*
X11813856Y-7318144D01*
X11743144Y-7318144D01*
X11743144Y-7388856D01*
X11813856Y-7388856D01*
X11813856Y-7642856D02*
X11813856Y-7572144D01*
X11743144Y-7572144D01*
X11743144Y-7642856D01*
X11813856Y-7642856D01*
X12067856Y-7388856D02*
X12067856Y-7318144D01*
X11997144Y-7318144D01*
X11997144Y-7388856D01*
X12067856Y-7388856D01*
X12067856Y-7642856D02*
X12067856Y-7572144D01*
X11997144Y-7572144D01*
X11997144Y-7642856D01*
X12067856Y-7642856D01*
X12321856Y-7388856D02*
X12321856Y-7318144D01*
X12251144Y-7318144D01*
X12251144Y-7388856D01*
X12321856Y-7388856D01*
X12321856Y-7642856D02*
X12321856Y-7572144D01*
X12251144Y-7572144D01*
X12251144Y-7642856D01*
X12321856Y-7642856D01*
X12520356Y-12761356D02*
X12520356Y-12690644D01*
X12449644Y-12690644D01*
X12449644Y-12761356D01*
X12520356Y-12761356D01*
X12553356Y-12123356D02*
X12553356Y-12052644D01*
X12482644Y-12052644D01*
X12482644Y-12123356D01*
X12553356Y-12123356D01*
X12575856Y-7388856D02*
X12575856Y-7318144D01*
X12505144Y-7318144D01*
X12505144Y-7388856D01*
X12575856Y-7388856D01*
X12575856Y-7642856D02*
X12575856Y-7572144D01*
X12505144Y-7572144D01*
X12505144Y-7642856D01*
X12575856Y-7642856D01*
X12774356Y-12761356D02*
X12774356Y-12690644D01*
X12703644Y-12690644D01*
X12703644Y-12761356D01*
X12774356Y-12761356D01*
X12807356Y-12123356D02*
X12807356Y-12052644D01*
X12736644Y-12052644D01*
X12736644Y-12123356D01*
X12807356Y-12123356D01*
X12829856Y-7388856D02*
X12829856Y-7318144D01*
X12759144Y-7318144D01*
X12759144Y-7388856D01*
X12829856Y-7388856D01*
X12829856Y-7642856D02*
X12829856Y-7572144D01*
X12759144Y-7572144D01*
X12759144Y-7642856D01*
X12829856Y-7642856D01*
X13028356Y-12761356D02*
X13028356Y-12690644D01*
X12957644Y-12690644D01*
X12957644Y-12761356D01*
X13028356Y-12761356D01*
X13061356Y-12123356D02*
X13061356Y-12052644D01*
X12990644Y-12052644D01*
X12990644Y-12123356D01*
X13061356Y-12123356D01*
X13083856Y-7388856D02*
X13083856Y-7318144D01*
X13013144Y-7318144D01*
X13013144Y-7388856D01*
X13083856Y-7388856D01*
X13083856Y-7642856D02*
X13083856Y-7572144D01*
X13013144Y-7572144D01*
X13013144Y-7642856D01*
X13083856Y-7642856D01*
X13282356Y-12761356D02*
X13282356Y-12690644D01*
X13211644Y-12690644D01*
X13211644Y-12761356D01*
X13282356Y-12761356D01*
X13315356Y-12123356D02*
X13315356Y-12052644D01*
X13244644Y-12052644D01*
X13244644Y-12123356D01*
X13315356Y-12123356D01*
X13337856Y-7388856D02*
X13337856Y-7318144D01*
X13267144Y-7318144D01*
X13267144Y-7388856D01*
X13337856Y-7388856D01*
X13337856Y-7642856D02*
X13337856Y-7572144D01*
X13267144Y-7572144D01*
X13267144Y-7642856D01*
X13337856Y-7642856D01*
X13536356Y-12761356D02*
X13536356Y-12690644D01*
X13465644Y-12690644D01*
X13465644Y-12761356D01*
X13536356Y-12761356D01*
X13569356Y-12123356D02*
X13569356Y-12052644D01*
X13498644Y-12052644D01*
X13498644Y-12123356D01*
X13569356Y-12123356D01*
X13591856Y-7388856D02*
X13591856Y-7318144D01*
X13521144Y-7318144D01*
X13521144Y-7388856D01*
X13591856Y-7388856D01*
X13591856Y-7642856D02*
X13591856Y-7572144D01*
X13521144Y-7572144D01*
X13521144Y-7642856D01*
X13591856Y-7642856D01*
X13845856Y-7388856D02*
X13845856Y-7318144D01*
X13775144Y-7318144D01*
X13775144Y-7388856D01*
X13845856Y-7388856D01*
X13845856Y-7642856D02*
X13845856Y-7572144D01*
X13775144Y-7572144D01*
X13775144Y-7642856D01*
X13845856Y-7642856D01*
X14076356Y-12114356D02*
X14076356Y-12043644D01*
X14005644Y-12043644D01*
X14005644Y-12114356D01*
X14076356Y-12114356D01*
X14093856Y-12769356D02*
X14093856Y-12698644D01*
X14023144Y-12698644D01*
X14023144Y-12769356D01*
X14093856Y-12769356D01*
X14099856Y-7388856D02*
X14099856Y-7318144D01*
X14029144Y-7318144D01*
X14029144Y-7388856D01*
X14099856Y-7388856D01*
X14099856Y-7642856D02*
X14099856Y-7572144D01*
X14029144Y-7572144D01*
X14029144Y-7642856D01*
X14099856Y-7642856D01*
X14330356Y-12114356D02*
X14330356Y-12043644D01*
X14259644Y-12043644D01*
X14259644Y-12114356D01*
X14330356Y-12114356D01*
X14347856Y-12769356D02*
X14347856Y-12698644D01*
X14277144Y-12698644D01*
X14277144Y-12769356D01*
X14347856Y-12769356D01*
X14353856Y-7388856D02*
X14353856Y-7318144D01*
X14283144Y-7318144D01*
X14283144Y-7388856D01*
X14353856Y-7388856D01*
X14353856Y-7642856D02*
X14353856Y-7572144D01*
X14283144Y-7572144D01*
X14283144Y-7642856D01*
X14353856Y-7642856D01*
X14584356Y-12114356D02*
X14584356Y-12043644D01*
X14513644Y-12043644D01*
X14513644Y-12114356D01*
X14584356Y-12114356D01*
X14601856Y-12769356D02*
X14601856Y-12698644D01*
X14531144Y-12698644D01*
X14531144Y-12769356D01*
X14601856Y-12769356D01*
X14607856Y-7388856D02*
X14607856Y-7318144D01*
X14537144Y-7318144D01*
X14537144Y-7388856D01*
X14607856Y-7388856D01*
X14607856Y-7642856D02*
X14607856Y-7572144D01*
X14537144Y-7572144D01*
X14537144Y-7642856D01*
X14607856Y-7642856D01*
X14838356Y-12114356D02*
X14838356Y-12043644D01*
X14767644Y-12043644D01*
X14767644Y-12114356D01*
X14838356Y-12114356D01*
X14855856Y-12769356D02*
X14855856Y-12698644D01*
X14785144Y-12698644D01*
X14785144Y-12769356D01*
X14855856Y-12769356D01*
X14861856Y-7388856D02*
X14861856Y-7318144D01*
X14791144Y-7318144D01*
X14791144Y-7388856D01*
X14861856Y-7388856D01*
X14861856Y-7642856D02*
X14861856Y-7572144D01*
X14791144Y-7572144D01*
X14791144Y-7642856D01*
X14861856Y-7642856D01*
X15092356Y-12114356D02*
X15092356Y-12043644D01*
X15021644Y-12043644D01*
X15021644Y-12114356D01*
X15092356Y-12114356D01*
X15109856Y-12769356D02*
X15109856Y-12698644D01*
X15039144Y-12698644D01*
X15039144Y-12769356D01*
X15109856Y-12769356D01*
X15115856Y-7388856D02*
X15115856Y-7318144D01*
X15045144Y-7318144D01*
X15045144Y-7388856D01*
X15115856Y-7388856D01*
X15115856Y-7642856D02*
X15115856Y-7572144D01*
X15045144Y-7572144D01*
X15045144Y-7642856D01*
X15115856Y-7642856D01*
X15369856Y-7388856D02*
X15369856Y-7318144D01*
X15299144Y-7318144D01*
X15299144Y-7388856D01*
X15369856Y-7388856D01*
X15369856Y-7642856D02*
X15369856Y-7572144D01*
X15299144Y-7572144D01*
X15299144Y-7642856D01*
X15369856Y-7642856D01*
X15623856Y-7388856D02*
X15623856Y-7318144D01*
X15553144Y-7318144D01*
X15553144Y-7388856D01*
X15623856Y-7388856D01*
X15623856Y-7642856D02*
X15623856Y-7572144D01*
X15553144Y-7572144D01*
X15553144Y-7642856D01*
X15623856Y-7642856D01*
X15817356Y-12856356D02*
X15817356Y-12785644D01*
X15746644Y-12785644D01*
X15746644Y-12856356D01*
X15817356Y-12856356D01*
X15818356Y-8530356D02*
X15818356Y-8459644D01*
X15747644Y-8459644D01*
X15747644Y-8530356D01*
X15818356Y-8530356D01*
X15818356Y-9628356D02*
X15818356Y-9557644D01*
X15747644Y-9557644D01*
X15747644Y-9628356D01*
X15818356Y-9628356D01*
X15818356Y-10825356D02*
X15818356Y-10754644D01*
X15747644Y-10754644D01*
X15747644Y-10825356D01*
X15818356Y-10825356D01*
X15818356Y-11873356D02*
X15818356Y-11802644D01*
X15747644Y-11802644D01*
X15747644Y-11873356D01*
X15818356Y-11873356D01*
X16071356Y-12856356D02*
X16071356Y-12785644D01*
X16000644Y-12785644D01*
X16000644Y-12856356D01*
X16071356Y-12856356D01*
X16072356Y-8530356D02*
X16072356Y-8459644D01*
X16001644Y-8459644D01*
X16001644Y-8530356D01*
X16072356Y-8530356D01*
X16072356Y-9628356D02*
X16072356Y-9557644D01*
X16001644Y-9557644D01*
X16001644Y-9628356D01*
X16072356Y-9628356D01*
X16072356Y-10825356D02*
X16072356Y-10754644D01*
X16001644Y-10754644D01*
X16001644Y-10825356D01*
X16072356Y-10825356D01*
X16072356Y-11873356D02*
X16072356Y-11802644D01*
X16001644Y-11802644D01*
X16001644Y-11873356D01*
X16072356Y-11873356D01*
X16325356Y-12856356D02*
X16325356Y-12785644D01*
X16254644Y-12785644D01*
X16254644Y-12856356D01*
X16325356Y-12856356D01*
X16326356Y-8530356D02*
X16326356Y-8459644D01*
X16255644Y-8459644D01*
X16255644Y-8530356D01*
X16326356Y-8530356D01*
X16326356Y-9628356D02*
X16326356Y-9557644D01*
X16255644Y-9557644D01*
X16255644Y-9628356D01*
X16326356Y-9628356D01*
X16326356Y-10825356D02*
X16326356Y-10754644D01*
X16255644Y-10754644D01*
X16255644Y-10825356D01*
X16326356Y-10825356D01*
X16326356Y-11873356D02*
X16326356Y-11802644D01*
X16255644Y-11802644D01*
X16255644Y-11873356D01*
X16326356Y-11873356D01*
X16579356Y-12856356D02*
X16579356Y-12785644D01*
X16508644Y-12785644D01*
X16508644Y-12856356D01*
X16579356Y-12856356D01*
X16580356Y-8530356D02*
X16580356Y-8459644D01*
X16509644Y-8459644D01*
X16509644Y-8530356D01*
X16580356Y-8530356D01*
X16580356Y-9628356D02*
X16580356Y-9557644D01*
X16509644Y-9557644D01*
X16509644Y-9628356D01*
X16580356Y-9628356D01*
X16580356Y-10825356D02*
X16580356Y-10754644D01*
X16509644Y-10754644D01*
X16509644Y-10825356D01*
X16580356Y-10825356D01*
X16580356Y-11873356D02*
X16580356Y-11802644D01*
X16509644Y-11802644D01*
X16509644Y-11873356D01*
X16580356Y-11873356D01*
X16833356Y-12856356D02*
X16833356Y-12785644D01*
X16762644Y-12785644D01*
X16762644Y-12856356D01*
X16833356Y-12856356D01*
X16834356Y-8530356D02*
X16834356Y-8459644D01*
X16763644Y-8459644D01*
X16763644Y-8530356D01*
X16834356Y-8530356D01*
X16834356Y-9628356D02*
X16834356Y-9557644D01*
X16763644Y-9557644D01*
X16763644Y-9628356D01*
X16834356Y-9628356D01*
X16834356Y-10825356D02*
X16834356Y-10754644D01*
X16763644Y-10754644D01*
X16763644Y-10825356D01*
X16834356Y-10825356D01*
X16834356Y-11873356D02*
X16834356Y-11802644D01*
X16763644Y-11802644D01*
X16763644Y-11873356D01*
X16834356Y-11873356D01*
X17087356Y-12856356D02*
X17087356Y-12785644D01*
X17016644Y-12785644D01*
X17016644Y-12856356D01*
X17087356Y-12856356D01*
X17088356Y-8530356D02*
X17088356Y-8459644D01*
X17017644Y-8459644D01*
X17017644Y-8530356D01*
X17088356Y-8530356D01*
X17088356Y-9628356D02*
X17088356Y-9557644D01*
X17017644Y-9557644D01*
X17017644Y-9628356D01*
X17088356Y-9628356D01*
X17088356Y-10825356D02*
X17088356Y-10754644D01*
X17017644Y-10754644D01*
X17017644Y-10825356D01*
X17088356Y-10825356D01*
X17088356Y-11873356D02*
X17088356Y-11802644D01*
X17017644Y-11802644D01*
X17017644Y-11873356D01*
X17088356Y-11873356D01*
X17341356Y-12856356D02*
X17341356Y-12785644D01*
X17270644Y-12785644D01*
X17270644Y-12856356D01*
X17341356Y-12856356D01*
X17342356Y-8530356D02*
X17342356Y-8459644D01*
X17271644Y-8459644D01*
X17271644Y-8530356D01*
X17342356Y-8530356D01*
X17342356Y-9628356D02*
X17342356Y-9557644D01*
X17271644Y-9557644D01*
X17271644Y-9628356D01*
X17342356Y-9628356D01*
X17342356Y-10825356D02*
X17342356Y-10754644D01*
X17271644Y-10754644D01*
X17271644Y-10825356D01*
X17342356Y-10825356D01*
X17342356Y-11873356D02*
X17342356Y-11802644D01*
X17271644Y-11802644D01*
X17271644Y-11873356D01*
X17342356Y-11873356D01*
D16*
X12579000Y-14009001D02*
X12644001Y-13944000D01*
X12579000Y-13878999D01*
X12513999Y-13944000D01*
X12579000Y-14009001D01*
X13087000Y-14009001D02*
X13152001Y-13944000D01*
X13087000Y-13878999D01*
X13021999Y-13944000D01*
X13087000Y-14009001D01*
D11*
X8773619Y-14741476D02*
X8773619Y-14541476D01*
X8821238Y-14541476D01*
X8849810Y-14551000D01*
X8868857Y-14570048D01*
X8878381Y-14589095D01*
X8887905Y-14627190D01*
X8887905Y-14655762D01*
X8878381Y-14693857D01*
X8868857Y-14712905D01*
X8849810Y-14731952D01*
X8821238Y-14741476D01*
X8773619Y-14741476D01*
X8973619Y-14741476D02*
X8973619Y-14608143D01*
X8973619Y-14646238D02*
X8983143Y-14627190D01*
X8992667Y-14617667D01*
X9011714Y-14608143D01*
X9030762Y-14608143D01*
X9097429Y-14741476D02*
X9097429Y-14608143D01*
X9097429Y-14541476D02*
X9087905Y-14551000D01*
X9097429Y-14560524D01*
X9106952Y-14551000D01*
X9097429Y-14541476D01*
X9097429Y-14560524D01*
X9221238Y-14741476D02*
X9202190Y-14731952D01*
X9192667Y-14712905D01*
X9192667Y-14541476D01*
X9326000Y-14741476D02*
X9306952Y-14731952D01*
X9297429Y-14712905D01*
X9297429Y-14541476D01*
X9554571Y-14741476D02*
X9554571Y-14541476D01*
X9621238Y-14684333D01*
X9687905Y-14541476D01*
X9687905Y-14741476D01*
X9868857Y-14741476D02*
X9868857Y-14636714D01*
X9859333Y-14617667D01*
X9840286Y-14608143D01*
X9802190Y-14608143D01*
X9783143Y-14617667D01*
X9868857Y-14731952D02*
X9849810Y-14741476D01*
X9802190Y-14741476D01*
X9783143Y-14731952D01*
X9773619Y-14712905D01*
X9773619Y-14693857D01*
X9783143Y-14674809D01*
X9802190Y-14665286D01*
X9849810Y-14665286D01*
X9868857Y-14655762D01*
X9964095Y-14608143D02*
X9964095Y-14808143D01*
X9964095Y-14617667D02*
X9983143Y-14608143D01*
X10021238Y-14608143D01*
X10040286Y-14617667D01*
X10049810Y-14627190D01*
X10059333Y-14646238D01*
X10059333Y-14703381D01*
X10049810Y-14722428D01*
X10040286Y-14731952D01*
X10021238Y-14741476D01*
X9983143Y-14741476D01*
X9964095Y-14731952D01*
X10145048Y-14722428D02*
X10154571Y-14731952D01*
X10145048Y-14741476D01*
X10135524Y-14731952D01*
X10145048Y-14722428D01*
X10145048Y-14741476D01*
X10145048Y-14617667D02*
X10154571Y-14627190D01*
X10145048Y-14636714D01*
X10135524Y-14627190D01*
X10145048Y-14617667D01*
X10145048Y-14636714D01*
D12*
X8476000Y-15051000D02*
X8516000Y-15091000D01*
X8516000Y-15051000D02*
X8476000Y-15091000D01*
D11*
X8811714Y-14961476D02*
X8830762Y-14961476D01*
X8849810Y-14971000D01*
X8859333Y-14980524D01*
X8868857Y-14999571D01*
X8878381Y-15037667D01*
X8878381Y-15085286D01*
X8868857Y-15123381D01*
X8859333Y-15142428D01*
X8849810Y-15151952D01*
X8830762Y-15161476D01*
X8811714Y-15161476D01*
X8792667Y-15151952D01*
X8783143Y-15142428D01*
X8773619Y-15123381D01*
X8764095Y-15085286D01*
X8764095Y-15037667D01*
X8773619Y-14999571D01*
X8783143Y-14980524D01*
X8792667Y-14971000D01*
X8811714Y-14961476D01*
X8964095Y-15142428D02*
X8973619Y-15151952D01*
X8964095Y-15161476D01*
X8954571Y-15151952D01*
X8964095Y-15142428D01*
X8964095Y-15161476D01*
X9145048Y-15028143D02*
X9145048Y-15161476D01*
X9097429Y-14951952D02*
X9049810Y-15094809D01*
X9173619Y-15094809D01*
X9287905Y-14961476D02*
X9306952Y-14961476D01*
X9326000Y-14971000D01*
X9335524Y-14980524D01*
X9345048Y-14999571D01*
X9354571Y-15037667D01*
X9354571Y-15085286D01*
X9345048Y-15123381D01*
X9335524Y-15142428D01*
X9326000Y-15151952D01*
X9306952Y-15161476D01*
X9287905Y-15161476D01*
X9268857Y-15151952D01*
X9259333Y-15142428D01*
X9249810Y-15123381D01*
X9240286Y-15085286D01*
X9240286Y-15037667D01*
X9249810Y-14999571D01*
X9259333Y-14980524D01*
X9268857Y-14971000D01*
X9287905Y-14961476D01*
X9478381Y-14961476D02*
X9497429Y-14961476D01*
X9516476Y-14971000D01*
X9526000Y-14980524D01*
X9535524Y-14999571D01*
X9545048Y-15037667D01*
X9545048Y-15085286D01*
X9535524Y-15123381D01*
X9526000Y-15142428D01*
X9516476Y-15151952D01*
X9497429Y-15161476D01*
X9478381Y-15161476D01*
X9459333Y-15151952D01*
X9449810Y-15142428D01*
X9440286Y-15123381D01*
X9430762Y-15085286D01*
X9430762Y-15037667D01*
X9440286Y-14999571D01*
X9449810Y-14980524D01*
X9459333Y-14971000D01*
X9478381Y-14961476D01*
X9630762Y-15161476D02*
X9630762Y-15028143D01*
X9630762Y-15047190D02*
X9640286Y-15037667D01*
X9659333Y-15028143D01*
X9687905Y-15028143D01*
X9706952Y-15037667D01*
X9716476Y-15056714D01*
X9716476Y-15161476D01*
X9716476Y-15056714D02*
X9726000Y-15037667D01*
X9745048Y-15028143D01*
X9773619Y-15028143D01*
X9792667Y-15037667D01*
X9802190Y-15056714D01*
X9802190Y-15161476D01*
X9897429Y-15161476D02*
X9897429Y-15028143D01*
X9897429Y-15047190D02*
X9906952Y-15037667D01*
X9926000Y-15028143D01*
X9954571Y-15028143D01*
X9973619Y-15037667D01*
X9983143Y-15056714D01*
X9983143Y-15161476D01*
X9983143Y-15056714D02*
X9992667Y-15037667D01*
X10011714Y-15028143D01*
X10040286Y-15028143D01*
X10059333Y-15037667D01*
X10068857Y-15056714D01*
X10068857Y-15161476D01*
X10459333Y-14951952D02*
X10287905Y-15209095D01*
X10716476Y-14961476D02*
X10735524Y-14961476D01*
X10754571Y-14971000D01*
X10764095Y-14980524D01*
X10773619Y-14999571D01*
X10783143Y-15037667D01*
X10783143Y-15085286D01*
X10773619Y-15123381D01*
X10764095Y-15142428D01*
X10754571Y-15151952D01*
X10735524Y-15161476D01*
X10716476Y-15161476D01*
X10697429Y-15151952D01*
X10687905Y-15142428D01*
X10678381Y-15123381D01*
X10668857Y-15085286D01*
X10668857Y-15037667D01*
X10678381Y-14999571D01*
X10687905Y-14980524D01*
X10697429Y-14971000D01*
X10716476Y-14961476D01*
X10868857Y-15142428D02*
X10878381Y-15151952D01*
X10868857Y-15161476D01*
X10859333Y-15151952D01*
X10868857Y-15142428D01*
X10868857Y-15161476D01*
X11002190Y-14961476D02*
X11021238Y-14961476D01*
X11040286Y-14971000D01*
X11049810Y-14980524D01*
X11059333Y-14999571D01*
X11068857Y-15037667D01*
X11068857Y-15085286D01*
X11059333Y-15123381D01*
X11049810Y-15142428D01*
X11040286Y-15151952D01*
X11021238Y-15161476D01*
X11002190Y-15161476D01*
X10983143Y-15151952D01*
X10973619Y-15142428D01*
X10964095Y-15123381D01*
X10954571Y-15085286D01*
X10954571Y-15037667D01*
X10964095Y-14999571D01*
X10973619Y-14980524D01*
X10983143Y-14971000D01*
X11002190Y-14961476D01*
X11259333Y-15161476D02*
X11145048Y-15161476D01*
X11202190Y-15161476D02*
X11202190Y-14961476D01*
X11183143Y-14990048D01*
X11164095Y-15009095D01*
X11145048Y-15018619D01*
X11440286Y-14961476D02*
X11345048Y-14961476D01*
X11335524Y-15056714D01*
X11345048Y-15047190D01*
X11364095Y-15037667D01*
X11411714Y-15037667D01*
X11430762Y-15047190D01*
X11440286Y-15056714D01*
X11449809Y-15075762D01*
X11449809Y-15123381D01*
X11440286Y-15142428D01*
X11430762Y-15151952D01*
X11411714Y-15161476D01*
X11364095Y-15161476D01*
X11345048Y-15151952D01*
X11335524Y-15142428D01*
X11516476Y-14961476D02*
X11649809Y-14961476D01*
X11564095Y-15161476D01*
X11716476Y-14961476D02*
X11716476Y-14999571D01*
X11792667Y-14961476D02*
X11792667Y-14999571D01*
X12087905Y-15237667D02*
X12078381Y-15228143D01*
X12059333Y-15199571D01*
X12049809Y-15180524D01*
X12040286Y-15151952D01*
X12030762Y-15104333D01*
X12030762Y-15066238D01*
X12040286Y-15018619D01*
X12049809Y-14990048D01*
X12059333Y-14971000D01*
X12078381Y-14942428D01*
X12087905Y-14932905D01*
X12268857Y-15161476D02*
X12154571Y-15161476D01*
X12211714Y-15161476D02*
X12211714Y-14961476D01*
X12192667Y-14990048D01*
X12173619Y-15009095D01*
X12154571Y-15018619D01*
X12440286Y-15028143D02*
X12440286Y-15161476D01*
X12392667Y-14951952D02*
X12345048Y-15094809D01*
X12468857Y-15094809D01*
X12526000Y-14961476D02*
X12659333Y-14961476D01*
X12573619Y-15161476D01*
X12887905Y-15161476D02*
X12887905Y-14961476D01*
X12973619Y-15161476D02*
X12973619Y-15056714D01*
X12964095Y-15037667D01*
X12945048Y-15028143D01*
X12916476Y-15028143D01*
X12897428Y-15037667D01*
X12887905Y-15047190D01*
X13097428Y-15161476D02*
X13078381Y-15151952D01*
X13068857Y-15142428D01*
X13059333Y-15123381D01*
X13059333Y-15066238D01*
X13068857Y-15047190D01*
X13078381Y-15037667D01*
X13097428Y-15028143D01*
X13126000Y-15028143D01*
X13145048Y-15037667D01*
X13154571Y-15047190D01*
X13164095Y-15066238D01*
X13164095Y-15123381D01*
X13154571Y-15142428D01*
X13145048Y-15151952D01*
X13126000Y-15161476D01*
X13097428Y-15161476D01*
X13278381Y-15161476D02*
X13259333Y-15151952D01*
X13249809Y-15132905D01*
X13249809Y-14961476D01*
X13430762Y-15151952D02*
X13411714Y-15161476D01*
X13373619Y-15161476D01*
X13354571Y-15151952D01*
X13345048Y-15132905D01*
X13345048Y-15056714D01*
X13354571Y-15037667D01*
X13373619Y-15028143D01*
X13411714Y-15028143D01*
X13430762Y-15037667D01*
X13440286Y-15056714D01*
X13440286Y-15075762D01*
X13345048Y-15094809D01*
X13516476Y-15151952D02*
X13535524Y-15161476D01*
X13573619Y-15161476D01*
X13592667Y-15151952D01*
X13602190Y-15132905D01*
X13602190Y-15123381D01*
X13592667Y-15104333D01*
X13573619Y-15094809D01*
X13545048Y-15094809D01*
X13526000Y-15085286D01*
X13516476Y-15066238D01*
X13516476Y-15056714D01*
X13526000Y-15037667D01*
X13545048Y-15028143D01*
X13573619Y-15028143D01*
X13592667Y-15037667D01*
X13668857Y-15237667D02*
X13678381Y-15228143D01*
X13697428Y-15199571D01*
X13706952Y-15180524D01*
X13716476Y-15151952D01*
X13726000Y-15104333D01*
X13726000Y-15066238D01*
X13716476Y-15018619D01*
X13706952Y-14990048D01*
X13697428Y-14971000D01*
X13678381Y-14942428D01*
X13668857Y-14932905D01*
D13*
X8516000Y-15335000D02*
G75*
G03*
X8516000Y-15335000I-37500J0D01*
G01*
D11*
X8811714Y-15225476D02*
X8830762Y-15225476D01*
X8849810Y-15235000D01*
X8859333Y-15244524D01*
X8868857Y-15263571D01*
X8878381Y-15301667D01*
X8878381Y-15349286D01*
X8868857Y-15387381D01*
X8859333Y-15406428D01*
X8849810Y-15415952D01*
X8830762Y-15425476D01*
X8811714Y-15425476D01*
X8792667Y-15415952D01*
X8783143Y-15406428D01*
X8773619Y-15387381D01*
X8764095Y-15349286D01*
X8764095Y-15301667D01*
X8773619Y-15263571D01*
X8783143Y-15244524D01*
X8792667Y-15235000D01*
X8811714Y-15225476D01*
X8964095Y-15406428D02*
X8973619Y-15415952D01*
X8964095Y-15425476D01*
X8954571Y-15415952D01*
X8964095Y-15406428D01*
X8964095Y-15425476D01*
X9040286Y-15225476D02*
X9173619Y-15225476D01*
X9087905Y-15425476D01*
X9345048Y-15225476D02*
X9249810Y-15225476D01*
X9240286Y-15320714D01*
X9249810Y-15311190D01*
X9268857Y-15301667D01*
X9316476Y-15301667D01*
X9335524Y-15311190D01*
X9345048Y-15320714D01*
X9354571Y-15339762D01*
X9354571Y-15387381D01*
X9345048Y-15406428D01*
X9335524Y-15415952D01*
X9316476Y-15425476D01*
X9268857Y-15425476D01*
X9249810Y-15415952D01*
X9240286Y-15406428D01*
X9478381Y-15225476D02*
X9497429Y-15225476D01*
X9516476Y-15235000D01*
X9526000Y-15244524D01*
X9535524Y-15263571D01*
X9545048Y-15301667D01*
X9545048Y-15349286D01*
X9535524Y-15387381D01*
X9526000Y-15406428D01*
X9516476Y-15415952D01*
X9497429Y-15425476D01*
X9478381Y-15425476D01*
X9459333Y-15415952D01*
X9449810Y-15406428D01*
X9440286Y-15387381D01*
X9430762Y-15349286D01*
X9430762Y-15301667D01*
X9440286Y-15263571D01*
X9449810Y-15244524D01*
X9459333Y-15235000D01*
X9478381Y-15225476D01*
X9630762Y-15425476D02*
X9630762Y-15292143D01*
X9630762Y-15311190D02*
X9640286Y-15301667D01*
X9659333Y-15292143D01*
X9687905Y-15292143D01*
X9706952Y-15301667D01*
X9716476Y-15320714D01*
X9716476Y-15425476D01*
X9716476Y-15320714D02*
X9726000Y-15301667D01*
X9745048Y-15292143D01*
X9773619Y-15292143D01*
X9792667Y-15301667D01*
X9802190Y-15320714D01*
X9802190Y-15425476D01*
X9897429Y-15425476D02*
X9897429Y-15292143D01*
X9897429Y-15311190D02*
X9906952Y-15301667D01*
X9926000Y-15292143D01*
X9954571Y-15292143D01*
X9973619Y-15301667D01*
X9983143Y-15320714D01*
X9983143Y-15425476D01*
X9983143Y-15320714D02*
X9992667Y-15301667D01*
X10011714Y-15292143D01*
X10040286Y-15292143D01*
X10059333Y-15301667D01*
X10068857Y-15320714D01*
X10068857Y-15425476D01*
X10459333Y-15215952D02*
X10287905Y-15473095D01*
X10716476Y-15225476D02*
X10735524Y-15225476D01*
X10754571Y-15235000D01*
X10764095Y-15244524D01*
X10773619Y-15263571D01*
X10783143Y-15301667D01*
X10783143Y-15349286D01*
X10773619Y-15387381D01*
X10764095Y-15406428D01*
X10754571Y-15415952D01*
X10735524Y-15425476D01*
X10716476Y-15425476D01*
X10697429Y-15415952D01*
X10687905Y-15406428D01*
X10678381Y-15387381D01*
X10668857Y-15349286D01*
X10668857Y-15301667D01*
X10678381Y-15263571D01*
X10687905Y-15244524D01*
X10697429Y-15235000D01*
X10716476Y-15225476D01*
X10868857Y-15406428D02*
X10878381Y-15415952D01*
X10868857Y-15425476D01*
X10859333Y-15415952D01*
X10868857Y-15406428D01*
X10868857Y-15425476D01*
X11002190Y-15225476D02*
X11021238Y-15225476D01*
X11040286Y-15235000D01*
X11049810Y-15244524D01*
X11059333Y-15263571D01*
X11068857Y-15301667D01*
X11068857Y-15349286D01*
X11059333Y-15387381D01*
X11049810Y-15406428D01*
X11040286Y-15415952D01*
X11021238Y-15425476D01*
X11002190Y-15425476D01*
X10983143Y-15415952D01*
X10973619Y-15406428D01*
X10964095Y-15387381D01*
X10954571Y-15349286D01*
X10954571Y-15301667D01*
X10964095Y-15263571D01*
X10973619Y-15244524D01*
X10983143Y-15235000D01*
X11002190Y-15225476D01*
X11145048Y-15244524D02*
X11154571Y-15235000D01*
X11173619Y-15225476D01*
X11221238Y-15225476D01*
X11240286Y-15235000D01*
X11249809Y-15244524D01*
X11259333Y-15263571D01*
X11259333Y-15282619D01*
X11249809Y-15311190D01*
X11135524Y-15425476D01*
X11259333Y-15425476D01*
X11354571Y-15425476D02*
X11392667Y-15425476D01*
X11411714Y-15415952D01*
X11421238Y-15406428D01*
X11440286Y-15377857D01*
X11449809Y-15339762D01*
X11449809Y-15263571D01*
X11440286Y-15244524D01*
X11430762Y-15235000D01*
X11411714Y-15225476D01*
X11373619Y-15225476D01*
X11354571Y-15235000D01*
X11345048Y-15244524D01*
X11335524Y-15263571D01*
X11335524Y-15311190D01*
X11345048Y-15330238D01*
X11354571Y-15339762D01*
X11373619Y-15349286D01*
X11411714Y-15349286D01*
X11430762Y-15339762D01*
X11440286Y-15330238D01*
X11449809Y-15311190D01*
X11630762Y-15225476D02*
X11535524Y-15225476D01*
X11526000Y-15320714D01*
X11535524Y-15311190D01*
X11554571Y-15301667D01*
X11602190Y-15301667D01*
X11621238Y-15311190D01*
X11630762Y-15320714D01*
X11640286Y-15339762D01*
X11640286Y-15387381D01*
X11630762Y-15406428D01*
X11621238Y-15415952D01*
X11602190Y-15425476D01*
X11554571Y-15425476D01*
X11535524Y-15415952D01*
X11526000Y-15406428D01*
X11716476Y-15225476D02*
X11716476Y-15263571D01*
X11792667Y-15225476D02*
X11792667Y-15263571D01*
X12087905Y-15501667D02*
X12078381Y-15492143D01*
X12059333Y-15463571D01*
X12049809Y-15444524D01*
X12040286Y-15415952D01*
X12030762Y-15368333D01*
X12030762Y-15330238D01*
X12040286Y-15282619D01*
X12049809Y-15254048D01*
X12059333Y-15235000D01*
X12078381Y-15206428D01*
X12087905Y-15196905D01*
X12154571Y-15244524D02*
X12164095Y-15235000D01*
X12183143Y-15225476D01*
X12230762Y-15225476D01*
X12249809Y-15235000D01*
X12259333Y-15244524D01*
X12268857Y-15263571D01*
X12268857Y-15282619D01*
X12259333Y-15311190D01*
X12145048Y-15425476D01*
X12268857Y-15425476D01*
X12506952Y-15425476D02*
X12506952Y-15225476D01*
X12592667Y-15425476D02*
X12592667Y-15320714D01*
X12583143Y-15301667D01*
X12564095Y-15292143D01*
X12535524Y-15292143D01*
X12516476Y-15301667D01*
X12506952Y-15311190D01*
X12716476Y-15425476D02*
X12697428Y-15415952D01*
X12687905Y-15406428D01*
X12678381Y-15387381D01*
X12678381Y-15330238D01*
X12687905Y-15311190D01*
X12697428Y-15301667D01*
X12716476Y-15292143D01*
X12745048Y-15292143D01*
X12764095Y-15301667D01*
X12773619Y-15311190D01*
X12783143Y-15330238D01*
X12783143Y-15387381D01*
X12773619Y-15406428D01*
X12764095Y-15415952D01*
X12745048Y-15425476D01*
X12716476Y-15425476D01*
X12897428Y-15425476D02*
X12878381Y-15415952D01*
X12868857Y-15396905D01*
X12868857Y-15225476D01*
X13049809Y-15415952D02*
X13030762Y-15425476D01*
X12992667Y-15425476D01*
X12973619Y-15415952D01*
X12964095Y-15396905D01*
X12964095Y-15320714D01*
X12973619Y-15301667D01*
X12992667Y-15292143D01*
X13030762Y-15292143D01*
X13049809Y-15301667D01*
X13059333Y-15320714D01*
X13059333Y-15339762D01*
X12964095Y-15358809D01*
X13135524Y-15415952D02*
X13154571Y-15425476D01*
X13192667Y-15425476D01*
X13211714Y-15415952D01*
X13221238Y-15396905D01*
X13221238Y-15387381D01*
X13211714Y-15368333D01*
X13192667Y-15358809D01*
X13164095Y-15358809D01*
X13145048Y-15349286D01*
X13135524Y-15330238D01*
X13135524Y-15320714D01*
X13145048Y-15301667D01*
X13164095Y-15292143D01*
X13192667Y-15292143D01*
X13211714Y-15301667D01*
X13287905Y-15501667D02*
X13297428Y-15492143D01*
X13316476Y-15463571D01*
X13326000Y-15444524D01*
X13335524Y-15415952D01*
X13345048Y-15368333D01*
X13345048Y-15330238D01*
X13335524Y-15282619D01*
X13326000Y-15254048D01*
X13316476Y-15235000D01*
X13297428Y-15206428D01*
X13287905Y-15196905D01*
D14*
X8476000Y-15559000D02*
X8476000Y-15639000D01*
X8436000Y-15599000D02*
X8516000Y-15599000D01*
D11*
X8811714Y-15489476D02*
X8830762Y-15489476D01*
X8849810Y-15499000D01*
X8859333Y-15508524D01*
X8868857Y-15527571D01*
X8878381Y-15565667D01*
X8878381Y-15613286D01*
X8868857Y-15651381D01*
X8859333Y-15670428D01*
X8849810Y-15679952D01*
X8830762Y-15689476D01*
X8811714Y-15689476D01*
X8792667Y-15679952D01*
X8783143Y-15670428D01*
X8773619Y-15651381D01*
X8764095Y-15613286D01*
X8764095Y-15565667D01*
X8773619Y-15527571D01*
X8783143Y-15508524D01*
X8792667Y-15499000D01*
X8811714Y-15489476D01*
X8964095Y-15670428D02*
X8973619Y-15679952D01*
X8964095Y-15689476D01*
X8954571Y-15679952D01*
X8964095Y-15670428D01*
X8964095Y-15689476D01*
X9087905Y-15575190D02*
X9068857Y-15565667D01*
X9059333Y-15556143D01*
X9049810Y-15537095D01*
X9049810Y-15527571D01*
X9059333Y-15508524D01*
X9068857Y-15499000D01*
X9087905Y-15489476D01*
X9126000Y-15489476D01*
X9145048Y-15499000D01*
X9154571Y-15508524D01*
X9164095Y-15527571D01*
X9164095Y-15537095D01*
X9154571Y-15556143D01*
X9145048Y-15565667D01*
X9126000Y-15575190D01*
X9087905Y-15575190D01*
X9068857Y-15584714D01*
X9059333Y-15594238D01*
X9049810Y-15613286D01*
X9049810Y-15651381D01*
X9059333Y-15670428D01*
X9068857Y-15679952D01*
X9087905Y-15689476D01*
X9126000Y-15689476D01*
X9145048Y-15679952D01*
X9154571Y-15670428D01*
X9164095Y-15651381D01*
X9164095Y-15613286D01*
X9154571Y-15594238D01*
X9145048Y-15584714D01*
X9126000Y-15575190D01*
X9287905Y-15489476D02*
X9306952Y-15489476D01*
X9326000Y-15499000D01*
X9335524Y-15508524D01*
X9345048Y-15527571D01*
X9354571Y-15565667D01*
X9354571Y-15613286D01*
X9345048Y-15651381D01*
X9335524Y-15670428D01*
X9326000Y-15679952D01*
X9306952Y-15689476D01*
X9287905Y-15689476D01*
X9268857Y-15679952D01*
X9259333Y-15670428D01*
X9249810Y-15651381D01*
X9240286Y-15613286D01*
X9240286Y-15565667D01*
X9249810Y-15527571D01*
X9259333Y-15508524D01*
X9268857Y-15499000D01*
X9287905Y-15489476D01*
X9478381Y-15489476D02*
X9497429Y-15489476D01*
X9516476Y-15499000D01*
X9526000Y-15508524D01*
X9535524Y-15527571D01*
X9545048Y-15565667D01*
X9545048Y-15613286D01*
X9535524Y-15651381D01*
X9526000Y-15670428D01*
X9516476Y-15679952D01*
X9497429Y-15689476D01*
X9478381Y-15689476D01*
X9459333Y-15679952D01*
X9449810Y-15670428D01*
X9440286Y-15651381D01*
X9430762Y-15613286D01*
X9430762Y-15565667D01*
X9440286Y-15527571D01*
X9449810Y-15508524D01*
X9459333Y-15499000D01*
X9478381Y-15489476D01*
X9630762Y-15689476D02*
X9630762Y-15556143D01*
X9630762Y-15575190D02*
X9640286Y-15565667D01*
X9659333Y-15556143D01*
X9687905Y-15556143D01*
X9706952Y-15565667D01*
X9716476Y-15584714D01*
X9716476Y-15689476D01*
X9716476Y-15584714D02*
X9726000Y-15565667D01*
X9745048Y-15556143D01*
X9773619Y-15556143D01*
X9792667Y-15565667D01*
X9802190Y-15584714D01*
X9802190Y-15689476D01*
X9897429Y-15689476D02*
X9897429Y-15556143D01*
X9897429Y-15575190D02*
X9906952Y-15565667D01*
X9926000Y-15556143D01*
X9954571Y-15556143D01*
X9973619Y-15565667D01*
X9983143Y-15584714D01*
X9983143Y-15689476D01*
X9983143Y-15584714D02*
X9992667Y-15565667D01*
X10011714Y-15556143D01*
X10040286Y-15556143D01*
X10059333Y-15565667D01*
X10068857Y-15584714D01*
X10068857Y-15689476D01*
X10459333Y-15479952D02*
X10287905Y-15737095D01*
X10716476Y-15489476D02*
X10735524Y-15489476D01*
X10754571Y-15499000D01*
X10764095Y-15508524D01*
X10773619Y-15527571D01*
X10783143Y-15565667D01*
X10783143Y-15613286D01*
X10773619Y-15651381D01*
X10764095Y-15670428D01*
X10754571Y-15679952D01*
X10735524Y-15689476D01*
X10716476Y-15689476D01*
X10697429Y-15679952D01*
X10687905Y-15670428D01*
X10678381Y-15651381D01*
X10668857Y-15613286D01*
X10668857Y-15565667D01*
X10678381Y-15527571D01*
X10687905Y-15508524D01*
X10697429Y-15499000D01*
X10716476Y-15489476D01*
X10868857Y-15670428D02*
X10878381Y-15679952D01*
X10868857Y-15689476D01*
X10859333Y-15679952D01*
X10868857Y-15670428D01*
X10868857Y-15689476D01*
X11002190Y-15489476D02*
X11021238Y-15489476D01*
X11040286Y-15499000D01*
X11049810Y-15508524D01*
X11059333Y-15527571D01*
X11068857Y-15565667D01*
X11068857Y-15613286D01*
X11059333Y-15651381D01*
X11049810Y-15670428D01*
X11040286Y-15679952D01*
X11021238Y-15689476D01*
X11002190Y-15689476D01*
X10983143Y-15679952D01*
X10973619Y-15670428D01*
X10964095Y-15651381D01*
X10954571Y-15613286D01*
X10954571Y-15565667D01*
X10964095Y-15527571D01*
X10973619Y-15508524D01*
X10983143Y-15499000D01*
X11002190Y-15489476D01*
X11135524Y-15489476D02*
X11259333Y-15489476D01*
X11192667Y-15565667D01*
X11221238Y-15565667D01*
X11240286Y-15575190D01*
X11249809Y-15584714D01*
X11259333Y-15603762D01*
X11259333Y-15651381D01*
X11249809Y-15670428D01*
X11240286Y-15679952D01*
X11221238Y-15689476D01*
X11164095Y-15689476D01*
X11145048Y-15679952D01*
X11135524Y-15670428D01*
X11449809Y-15689476D02*
X11335524Y-15689476D01*
X11392667Y-15689476D02*
X11392667Y-15489476D01*
X11373619Y-15518048D01*
X11354571Y-15537095D01*
X11335524Y-15546619D01*
X11630762Y-15489476D02*
X11535524Y-15489476D01*
X11526000Y-15584714D01*
X11535524Y-15575190D01*
X11554571Y-15565667D01*
X11602190Y-15565667D01*
X11621238Y-15575190D01*
X11630762Y-15584714D01*
X11640286Y-15603762D01*
X11640286Y-15651381D01*
X11630762Y-15670428D01*
X11621238Y-15679952D01*
X11602190Y-15689476D01*
X11554571Y-15689476D01*
X11535524Y-15679952D01*
X11526000Y-15670428D01*
X11716476Y-15489476D02*
X11716476Y-15527571D01*
X11792667Y-15489476D02*
X11792667Y-15527571D01*
X12087905Y-15765667D02*
X12078381Y-15756143D01*
X12059333Y-15727571D01*
X12049809Y-15708524D01*
X12040286Y-15679952D01*
X12030762Y-15632333D01*
X12030762Y-15594238D01*
X12040286Y-15546619D01*
X12049809Y-15518048D01*
X12059333Y-15499000D01*
X12078381Y-15470428D01*
X12087905Y-15460905D01*
X12202190Y-15489476D02*
X12221238Y-15489476D01*
X12240286Y-15499000D01*
X12249809Y-15508524D01*
X12259333Y-15527571D01*
X12268857Y-15565667D01*
X12268857Y-15613286D01*
X12259333Y-15651381D01*
X12249809Y-15670428D01*
X12240286Y-15679952D01*
X12221238Y-15689476D01*
X12202190Y-15689476D01*
X12183143Y-15679952D01*
X12173619Y-15670428D01*
X12164095Y-15651381D01*
X12154571Y-15613286D01*
X12154571Y-15565667D01*
X12164095Y-15527571D01*
X12173619Y-15508524D01*
X12183143Y-15499000D01*
X12202190Y-15489476D01*
X12506952Y-15689476D02*
X12506952Y-15489476D01*
X12592667Y-15689476D02*
X12592667Y-15584714D01*
X12583143Y-15565667D01*
X12564095Y-15556143D01*
X12535524Y-15556143D01*
X12516476Y-15565667D01*
X12506952Y-15575190D01*
X12716476Y-15689476D02*
X12697428Y-15679952D01*
X12687905Y-15670428D01*
X12678381Y-15651381D01*
X12678381Y-15594238D01*
X12687905Y-15575190D01*
X12697428Y-15565667D01*
X12716476Y-15556143D01*
X12745048Y-15556143D01*
X12764095Y-15565667D01*
X12773619Y-15575190D01*
X12783143Y-15594238D01*
X12783143Y-15651381D01*
X12773619Y-15670428D01*
X12764095Y-15679952D01*
X12745048Y-15689476D01*
X12716476Y-15689476D01*
X12897428Y-15689476D02*
X12878381Y-15679952D01*
X12868857Y-15660905D01*
X12868857Y-15489476D01*
X13049809Y-15679952D02*
X13030762Y-15689476D01*
X12992667Y-15689476D01*
X12973619Y-15679952D01*
X12964095Y-15660905D01*
X12964095Y-15584714D01*
X12973619Y-15565667D01*
X12992667Y-15556143D01*
X13030762Y-15556143D01*
X13049809Y-15565667D01*
X13059333Y-15584714D01*
X13059333Y-15603762D01*
X12964095Y-15622809D01*
X13135524Y-15679952D02*
X13154571Y-15689476D01*
X13192667Y-15689476D01*
X13211714Y-15679952D01*
X13221238Y-15660905D01*
X13221238Y-15651381D01*
X13211714Y-15632333D01*
X13192667Y-15622809D01*
X13164095Y-15622809D01*
X13145048Y-15613286D01*
X13135524Y-15594238D01*
X13135524Y-15584714D01*
X13145048Y-15565667D01*
X13164095Y-15556143D01*
X13192667Y-15556143D01*
X13211714Y-15565667D01*
X13459333Y-15613286D02*
X13611714Y-15613286D01*
X13535524Y-15689476D02*
X13535524Y-15537095D01*
X13945048Y-15556143D02*
X13945048Y-15689476D01*
X13897428Y-15479952D02*
X13849809Y-15622809D01*
X13973619Y-15622809D01*
X14192667Y-15679952D02*
X14211714Y-15689476D01*
X14249809Y-15689476D01*
X14268857Y-15679952D01*
X14278381Y-15660905D01*
X14278381Y-15651381D01*
X14268857Y-15632333D01*
X14249809Y-15622809D01*
X14221238Y-15622809D01*
X14202190Y-15613286D01*
X14192667Y-15594238D01*
X14192667Y-15584714D01*
X14202190Y-15565667D01*
X14221238Y-15556143D01*
X14249809Y-15556143D01*
X14268857Y-15565667D01*
X14392667Y-15689476D02*
X14373619Y-15679952D01*
X14364095Y-15660905D01*
X14364095Y-15489476D01*
X14497428Y-15689476D02*
X14478381Y-15679952D01*
X14468857Y-15670428D01*
X14459333Y-15651381D01*
X14459333Y-15594238D01*
X14468857Y-15575190D01*
X14478381Y-15565667D01*
X14497428Y-15556143D01*
X14526000Y-15556143D01*
X14545048Y-15565667D01*
X14554571Y-15575190D01*
X14564095Y-15594238D01*
X14564095Y-15651381D01*
X14554571Y-15670428D01*
X14545048Y-15679952D01*
X14526000Y-15689476D01*
X14497428Y-15689476D01*
X14621238Y-15556143D02*
X14697428Y-15556143D01*
X14649809Y-15489476D02*
X14649809Y-15660905D01*
X14659333Y-15679952D01*
X14678381Y-15689476D01*
X14697428Y-15689476D01*
X14754571Y-15679952D02*
X14773619Y-15689476D01*
X14811714Y-15689476D01*
X14830762Y-15679952D01*
X14840286Y-15660905D01*
X14840286Y-15651381D01*
X14830762Y-15632333D01*
X14811714Y-15622809D01*
X14783143Y-15622809D01*
X14764095Y-15613286D01*
X14754571Y-15594238D01*
X14754571Y-15584714D01*
X14764095Y-15565667D01*
X14783143Y-15556143D01*
X14811714Y-15556143D01*
X14830762Y-15565667D01*
X14906952Y-15765667D02*
X14916476Y-15756143D01*
X14935524Y-15727571D01*
X14945048Y-15708524D01*
X14954571Y-15679952D01*
X14964095Y-15632333D01*
X14964095Y-15594238D01*
X14954571Y-15546619D01*
X14945048Y-15518048D01*
X14935524Y-15499000D01*
X14916476Y-15470428D01*
X14906952Y-15460905D01*
D15*
X8501356Y-15898356D02*
X8501356Y-15827644D01*
X8430644Y-15827644D01*
X8430644Y-15898356D01*
X8501356Y-15898356D01*
D11*
X8878381Y-15953476D02*
X8764095Y-15953476D01*
X8821238Y-15953476D02*
X8821238Y-15753476D01*
X8802190Y-15782048D01*
X8783143Y-15801095D01*
X8764095Y-15810619D01*
X8964095Y-15934428D02*
X8973619Y-15943952D01*
X8964095Y-15953476D01*
X8954571Y-15943952D01*
X8964095Y-15934428D01*
X8964095Y-15953476D01*
X9097429Y-15753476D02*
X9116476Y-15753476D01*
X9135524Y-15763000D01*
X9145048Y-15772524D01*
X9154571Y-15791571D01*
X9164095Y-15829667D01*
X9164095Y-15877286D01*
X9154571Y-15915381D01*
X9145048Y-15934428D01*
X9135524Y-15943952D01*
X9116476Y-15953476D01*
X9097429Y-15953476D01*
X9078381Y-15943952D01*
X9068857Y-15934428D01*
X9059333Y-15915381D01*
X9049810Y-15877286D01*
X9049810Y-15829667D01*
X9059333Y-15791571D01*
X9068857Y-15772524D01*
X9078381Y-15763000D01*
X9097429Y-15753476D01*
X9287905Y-15753476D02*
X9306952Y-15753476D01*
X9326000Y-15763000D01*
X9335524Y-15772524D01*
X9345048Y-15791571D01*
X9354571Y-15829667D01*
X9354571Y-15877286D01*
X9345048Y-15915381D01*
X9335524Y-15934428D01*
X9326000Y-15943952D01*
X9306952Y-15953476D01*
X9287905Y-15953476D01*
X9268857Y-15943952D01*
X9259333Y-15934428D01*
X9249810Y-15915381D01*
X9240286Y-15877286D01*
X9240286Y-15829667D01*
X9249810Y-15791571D01*
X9259333Y-15772524D01*
X9268857Y-15763000D01*
X9287905Y-15753476D01*
X9478381Y-15753476D02*
X9497429Y-15753476D01*
X9516476Y-15763000D01*
X9526000Y-15772524D01*
X9535524Y-15791571D01*
X9545048Y-15829667D01*
X9545048Y-15877286D01*
X9535524Y-15915381D01*
X9526000Y-15934428D01*
X9516476Y-15943952D01*
X9497429Y-15953476D01*
X9478381Y-15953476D01*
X9459333Y-15943952D01*
X9449810Y-15934428D01*
X9440286Y-15915381D01*
X9430762Y-15877286D01*
X9430762Y-15829667D01*
X9440286Y-15791571D01*
X9449810Y-15772524D01*
X9459333Y-15763000D01*
X9478381Y-15753476D01*
X9630762Y-15953476D02*
X9630762Y-15820143D01*
X9630762Y-15839190D02*
X9640286Y-15829667D01*
X9659333Y-15820143D01*
X9687905Y-15820143D01*
X9706952Y-15829667D01*
X9716476Y-15848714D01*
X9716476Y-15953476D01*
X9716476Y-15848714D02*
X9726000Y-15829667D01*
X9745048Y-15820143D01*
X9773619Y-15820143D01*
X9792667Y-15829667D01*
X9802190Y-15848714D01*
X9802190Y-15953476D01*
X9897429Y-15953476D02*
X9897429Y-15820143D01*
X9897429Y-15839190D02*
X9906952Y-15829667D01*
X9926000Y-15820143D01*
X9954571Y-15820143D01*
X9973619Y-15829667D01*
X9983143Y-15848714D01*
X9983143Y-15953476D01*
X9983143Y-15848714D02*
X9992667Y-15829667D01*
X10011714Y-15820143D01*
X10040286Y-15820143D01*
X10059333Y-15829667D01*
X10068857Y-15848714D01*
X10068857Y-15953476D01*
X10459333Y-15743952D02*
X10287905Y-16001095D01*
X10716476Y-15753476D02*
X10735524Y-15753476D01*
X10754571Y-15763000D01*
X10764095Y-15772524D01*
X10773619Y-15791571D01*
X10783143Y-15829667D01*
X10783143Y-15877286D01*
X10773619Y-15915381D01*
X10764095Y-15934428D01*
X10754571Y-15943952D01*
X10735524Y-15953476D01*
X10716476Y-15953476D01*
X10697429Y-15943952D01*
X10687905Y-15934428D01*
X10678381Y-15915381D01*
X10668857Y-15877286D01*
X10668857Y-15829667D01*
X10678381Y-15791571D01*
X10687905Y-15772524D01*
X10697429Y-15763000D01*
X10716476Y-15753476D01*
X10868857Y-15934428D02*
X10878381Y-15943952D01*
X10868857Y-15953476D01*
X10859333Y-15943952D01*
X10868857Y-15934428D01*
X10868857Y-15953476D01*
X11002190Y-15753476D02*
X11021238Y-15753476D01*
X11040286Y-15763000D01*
X11049810Y-15772524D01*
X11059333Y-15791571D01*
X11068857Y-15829667D01*
X11068857Y-15877286D01*
X11059333Y-15915381D01*
X11049810Y-15934428D01*
X11040286Y-15943952D01*
X11021238Y-15953476D01*
X11002190Y-15953476D01*
X10983143Y-15943952D01*
X10973619Y-15934428D01*
X10964095Y-15915381D01*
X10954571Y-15877286D01*
X10954571Y-15829667D01*
X10964095Y-15791571D01*
X10973619Y-15772524D01*
X10983143Y-15763000D01*
X11002190Y-15753476D01*
X11135524Y-15753476D02*
X11259333Y-15753476D01*
X11192667Y-15829667D01*
X11221238Y-15829667D01*
X11240286Y-15839190D01*
X11249809Y-15848714D01*
X11259333Y-15867762D01*
X11259333Y-15915381D01*
X11249809Y-15934428D01*
X11240286Y-15943952D01*
X11221238Y-15953476D01*
X11164095Y-15953476D01*
X11145048Y-15943952D01*
X11135524Y-15934428D01*
X11354571Y-15953476D02*
X11392667Y-15953476D01*
X11411714Y-15943952D01*
X11421238Y-15934428D01*
X11440286Y-15905857D01*
X11449809Y-15867762D01*
X11449809Y-15791571D01*
X11440286Y-15772524D01*
X11430762Y-15763000D01*
X11411714Y-15753476D01*
X11373619Y-15753476D01*
X11354571Y-15763000D01*
X11345048Y-15772524D01*
X11335524Y-15791571D01*
X11335524Y-15839190D01*
X11345048Y-15858238D01*
X11354571Y-15867762D01*
X11373619Y-15877286D01*
X11411714Y-15877286D01*
X11430762Y-15867762D01*
X11440286Y-15858238D01*
X11449809Y-15839190D01*
X11621238Y-15820143D02*
X11621238Y-15953476D01*
X11573619Y-15743952D02*
X11526000Y-15886809D01*
X11649809Y-15886809D01*
X11716476Y-15753476D02*
X11716476Y-15791571D01*
X11792667Y-15753476D02*
X11792667Y-15791571D01*
X12087905Y-16029667D02*
X12078381Y-16020143D01*
X12059333Y-15991571D01*
X12049809Y-15972524D01*
X12040286Y-15943952D01*
X12030762Y-15896333D01*
X12030762Y-15858238D01*
X12040286Y-15810619D01*
X12049809Y-15782048D01*
X12059333Y-15763000D01*
X12078381Y-15734428D01*
X12087905Y-15724905D01*
X12173619Y-15953476D02*
X12211714Y-15953476D01*
X12230762Y-15943952D01*
X12240286Y-15934428D01*
X12259333Y-15905857D01*
X12268857Y-15867762D01*
X12268857Y-15791571D01*
X12259333Y-15772524D01*
X12249809Y-15763000D01*
X12230762Y-15753476D01*
X12192667Y-15753476D01*
X12173619Y-15763000D01*
X12164095Y-15772524D01*
X12154571Y-15791571D01*
X12154571Y-15839190D01*
X12164095Y-15858238D01*
X12173619Y-15867762D01*
X12192667Y-15877286D01*
X12230762Y-15877286D01*
X12249809Y-15867762D01*
X12259333Y-15858238D01*
X12268857Y-15839190D01*
X12364095Y-15953476D02*
X12402190Y-15953476D01*
X12421238Y-15943952D01*
X12430762Y-15934428D01*
X12449809Y-15905857D01*
X12459333Y-15867762D01*
X12459333Y-15791571D01*
X12449809Y-15772524D01*
X12440286Y-15763000D01*
X12421238Y-15753476D01*
X12383143Y-15753476D01*
X12364095Y-15763000D01*
X12354571Y-15772524D01*
X12345048Y-15791571D01*
X12345048Y-15839190D01*
X12354571Y-15858238D01*
X12364095Y-15867762D01*
X12383143Y-15877286D01*
X12421238Y-15877286D01*
X12440286Y-15867762D01*
X12449809Y-15858238D01*
X12459333Y-15839190D01*
X12697428Y-15953476D02*
X12697428Y-15753476D01*
X12783143Y-15953476D02*
X12783143Y-15848714D01*
X12773619Y-15829667D01*
X12754571Y-15820143D01*
X12726000Y-15820143D01*
X12706952Y-15829667D01*
X12697428Y-15839190D01*
X12906952Y-15953476D02*
X12887905Y-15943952D01*
X12878381Y-15934428D01*
X12868857Y-15915381D01*
X12868857Y-15858238D01*
X12878381Y-15839190D01*
X12887905Y-15829667D01*
X12906952Y-15820143D01*
X12935524Y-15820143D01*
X12954571Y-15829667D01*
X12964095Y-15839190D01*
X12973619Y-15858238D01*
X12973619Y-15915381D01*
X12964095Y-15934428D01*
X12954571Y-15943952D01*
X12935524Y-15953476D01*
X12906952Y-15953476D01*
X13087905Y-15953476D02*
X13068857Y-15943952D01*
X13059333Y-15924905D01*
X13059333Y-15753476D01*
X13240286Y-15943952D02*
X13221238Y-15953476D01*
X13183143Y-15953476D01*
X13164095Y-15943952D01*
X13154571Y-15924905D01*
X13154571Y-15848714D01*
X13164095Y-15829667D01*
X13183143Y-15820143D01*
X13221238Y-15820143D01*
X13240286Y-15829667D01*
X13249809Y-15848714D01*
X13249809Y-15867762D01*
X13154571Y-15886809D01*
X13326000Y-15943952D02*
X13345048Y-15953476D01*
X13383143Y-15953476D01*
X13402190Y-15943952D01*
X13411714Y-15924905D01*
X13411714Y-15915381D01*
X13402190Y-15896333D01*
X13383143Y-15886809D01*
X13354571Y-15886809D01*
X13335524Y-15877286D01*
X13326000Y-15858238D01*
X13326000Y-15848714D01*
X13335524Y-15829667D01*
X13354571Y-15820143D01*
X13383143Y-15820143D01*
X13402190Y-15829667D01*
X13478381Y-16029667D02*
X13487905Y-16020143D01*
X13506952Y-15991571D01*
X13516476Y-15972524D01*
X13526000Y-15943952D01*
X13535524Y-15896333D01*
X13535524Y-15858238D01*
X13526000Y-15810619D01*
X13516476Y-15782048D01*
X13506952Y-15763000D01*
X13487905Y-15734428D01*
X13478381Y-15724905D01*
D16*
X8450999Y-16192001D02*
X8516000Y-16127000D01*
X8450999Y-16061999D01*
X8385998Y-16127000D01*
X8450999Y-16192001D01*
D11*
X8878381Y-16217476D02*
X8764095Y-16217476D01*
X8821238Y-16217476D02*
X8821238Y-16017476D01*
X8802190Y-16046048D01*
X8783143Y-16065095D01*
X8764095Y-16074619D01*
X8964095Y-16198428D02*
X8973619Y-16207952D01*
X8964095Y-16217476D01*
X8954571Y-16207952D01*
X8964095Y-16198428D01*
X8964095Y-16217476D01*
X9040286Y-16017476D02*
X9164095Y-16017476D01*
X9097429Y-16093667D01*
X9126000Y-16093667D01*
X9145048Y-16103190D01*
X9154571Y-16112714D01*
X9164095Y-16131762D01*
X9164095Y-16179381D01*
X9154571Y-16198428D01*
X9145048Y-16207952D01*
X9126000Y-16217476D01*
X9068857Y-16217476D01*
X9049810Y-16207952D01*
X9040286Y-16198428D01*
X9287905Y-16017476D02*
X9306952Y-16017476D01*
X9326000Y-16027000D01*
X9335524Y-16036524D01*
X9345048Y-16055571D01*
X9354571Y-16093667D01*
X9354571Y-16141286D01*
X9345048Y-16179381D01*
X9335524Y-16198428D01*
X9326000Y-16207952D01*
X9306952Y-16217476D01*
X9287905Y-16217476D01*
X9268857Y-16207952D01*
X9259333Y-16198428D01*
X9249810Y-16179381D01*
X9240286Y-16141286D01*
X9240286Y-16093667D01*
X9249810Y-16055571D01*
X9259333Y-16036524D01*
X9268857Y-16027000D01*
X9287905Y-16017476D01*
X9478381Y-16017476D02*
X9497429Y-16017476D01*
X9516476Y-16027000D01*
X9526000Y-16036524D01*
X9535524Y-16055571D01*
X9545048Y-16093667D01*
X9545048Y-16141286D01*
X9535524Y-16179381D01*
X9526000Y-16198428D01*
X9516476Y-16207952D01*
X9497429Y-16217476D01*
X9478381Y-16217476D01*
X9459333Y-16207952D01*
X9449810Y-16198428D01*
X9440286Y-16179381D01*
X9430762Y-16141286D01*
X9430762Y-16093667D01*
X9440286Y-16055571D01*
X9449810Y-16036524D01*
X9459333Y-16027000D01*
X9478381Y-16017476D01*
X9630762Y-16217476D02*
X9630762Y-16084143D01*
X9630762Y-16103190D02*
X9640286Y-16093667D01*
X9659333Y-16084143D01*
X9687905Y-16084143D01*
X9706952Y-16093667D01*
X9716476Y-16112714D01*
X9716476Y-16217476D01*
X9716476Y-16112714D02*
X9726000Y-16093667D01*
X9745048Y-16084143D01*
X9773619Y-16084143D01*
X9792667Y-16093667D01*
X9802190Y-16112714D01*
X9802190Y-16217476D01*
X9897429Y-16217476D02*
X9897429Y-16084143D01*
X9897429Y-16103190D02*
X9906952Y-16093667D01*
X9926000Y-16084143D01*
X9954571Y-16084143D01*
X9973619Y-16093667D01*
X9983143Y-16112714D01*
X9983143Y-16217476D01*
X9983143Y-16112714D02*
X9992667Y-16093667D01*
X10011714Y-16084143D01*
X10040286Y-16084143D01*
X10059333Y-16093667D01*
X10068857Y-16112714D01*
X10068857Y-16217476D01*
X10459333Y-16007952D02*
X10287905Y-16265095D01*
X10716476Y-16017476D02*
X10735524Y-16017476D01*
X10754571Y-16027000D01*
X10764095Y-16036524D01*
X10773619Y-16055571D01*
X10783143Y-16093667D01*
X10783143Y-16141286D01*
X10773619Y-16179381D01*
X10764095Y-16198428D01*
X10754571Y-16207952D01*
X10735524Y-16217476D01*
X10716476Y-16217476D01*
X10697429Y-16207952D01*
X10687905Y-16198428D01*
X10678381Y-16179381D01*
X10668857Y-16141286D01*
X10668857Y-16093667D01*
X10678381Y-16055571D01*
X10687905Y-16036524D01*
X10697429Y-16027000D01*
X10716476Y-16017476D01*
X10868857Y-16198428D02*
X10878381Y-16207952D01*
X10868857Y-16217476D01*
X10859333Y-16207952D01*
X10868857Y-16198428D01*
X10868857Y-16217476D01*
X11002190Y-16017476D02*
X11021238Y-16017476D01*
X11040286Y-16027000D01*
X11049810Y-16036524D01*
X11059333Y-16055571D01*
X11068857Y-16093667D01*
X11068857Y-16141286D01*
X11059333Y-16179381D01*
X11049810Y-16198428D01*
X11040286Y-16207952D01*
X11021238Y-16217476D01*
X11002190Y-16217476D01*
X10983143Y-16207952D01*
X10973619Y-16198428D01*
X10964095Y-16179381D01*
X10954571Y-16141286D01*
X10954571Y-16093667D01*
X10964095Y-16055571D01*
X10973619Y-16036524D01*
X10983143Y-16027000D01*
X11002190Y-16017476D01*
X11249809Y-16017476D02*
X11154571Y-16017476D01*
X11145048Y-16112714D01*
X11154571Y-16103190D01*
X11173619Y-16093667D01*
X11221238Y-16093667D01*
X11240286Y-16103190D01*
X11249809Y-16112714D01*
X11259333Y-16131762D01*
X11259333Y-16179381D01*
X11249809Y-16198428D01*
X11240286Y-16207952D01*
X11221238Y-16217476D01*
X11173619Y-16217476D01*
X11154571Y-16207952D01*
X11145048Y-16198428D01*
X11449809Y-16217476D02*
X11335524Y-16217476D01*
X11392667Y-16217476D02*
X11392667Y-16017476D01*
X11373619Y-16046048D01*
X11354571Y-16065095D01*
X11335524Y-16074619D01*
X11526000Y-16036524D02*
X11535524Y-16027000D01*
X11554571Y-16017476D01*
X11602190Y-16017476D01*
X11621238Y-16027000D01*
X11630762Y-16036524D01*
X11640286Y-16055571D01*
X11640286Y-16074619D01*
X11630762Y-16103190D01*
X11516476Y-16217476D01*
X11640286Y-16217476D01*
X11716476Y-16017476D02*
X11716476Y-16055571D01*
X11792667Y-16017476D02*
X11792667Y-16055571D01*
X12087905Y-16293667D02*
X12078381Y-16284143D01*
X12059333Y-16255571D01*
X12049809Y-16236524D01*
X12040286Y-16207952D01*
X12030762Y-16160333D01*
X12030762Y-16122238D01*
X12040286Y-16074619D01*
X12049809Y-16046048D01*
X12059333Y-16027000D01*
X12078381Y-15998428D01*
X12087905Y-15988905D01*
X12154571Y-16036524D02*
X12164095Y-16027000D01*
X12183143Y-16017476D01*
X12230762Y-16017476D01*
X12249809Y-16027000D01*
X12259333Y-16036524D01*
X12268857Y-16055571D01*
X12268857Y-16074619D01*
X12259333Y-16103190D01*
X12145048Y-16217476D01*
X12268857Y-16217476D01*
X12506952Y-16217476D02*
X12506952Y-16017476D01*
X12592667Y-16217476D02*
X12592667Y-16112714D01*
X12583143Y-16093667D01*
X12564095Y-16084143D01*
X12535524Y-16084143D01*
X12516476Y-16093667D01*
X12506952Y-16103190D01*
X12716476Y-16217476D02*
X12697428Y-16207952D01*
X12687905Y-16198428D01*
X12678381Y-16179381D01*
X12678381Y-16122238D01*
X12687905Y-16103190D01*
X12697428Y-16093667D01*
X12716476Y-16084143D01*
X12745048Y-16084143D01*
X12764095Y-16093667D01*
X12773619Y-16103190D01*
X12783143Y-16122238D01*
X12783143Y-16179381D01*
X12773619Y-16198428D01*
X12764095Y-16207952D01*
X12745048Y-16217476D01*
X12716476Y-16217476D01*
X12897428Y-16217476D02*
X12878381Y-16207952D01*
X12868857Y-16188905D01*
X12868857Y-16017476D01*
X13049809Y-16207952D02*
X13030762Y-16217476D01*
X12992667Y-16217476D01*
X12973619Y-16207952D01*
X12964095Y-16188905D01*
X12964095Y-16112714D01*
X12973619Y-16093667D01*
X12992667Y-16084143D01*
X13030762Y-16084143D01*
X13049809Y-16093667D01*
X13059333Y-16112714D01*
X13059333Y-16131762D01*
X12964095Y-16150809D01*
X13135524Y-16207952D02*
X13154571Y-16217476D01*
X13192667Y-16217476D01*
X13211714Y-16207952D01*
X13221238Y-16188905D01*
X13221238Y-16179381D01*
X13211714Y-16160333D01*
X13192667Y-16150809D01*
X13164095Y-16150809D01*
X13145048Y-16141286D01*
X13135524Y-16122238D01*
X13135524Y-16112714D01*
X13145048Y-16093667D01*
X13164095Y-16084143D01*
X13192667Y-16084143D01*
X13211714Y-16093667D01*
X13287905Y-16293667D02*
X13297428Y-16284143D01*
X13316476Y-16255571D01*
X13326000Y-16236524D01*
X13335524Y-16207952D01*
X13345048Y-16160333D01*
X13345048Y-16122238D01*
X13335524Y-16074619D01*
X13326000Y-16046048D01*
X13316476Y-16027000D01*
X13297428Y-15998428D01*
X13287905Y-15988905D01*
M02*
