G04 #@! TF.GenerationSoftware,KiCad,Pcbnew,(6.0.5)*
G04 #@! TF.CreationDate,2025-09-09T17:56:06-06:00*
G04 #@! TF.ProjectId,tarjeta_pump_it_up,7461726a-6574-4615-9f70-756d705f6974,rev?*
G04 #@! TF.SameCoordinates,Original*
G04 #@! TF.FileFunction,Legend,Bot*
G04 #@! TF.FilePolarity,Positive*
%FSLAX46Y46*%
G04 Gerber Fmt 4.6, Leading zero omitted, Abs format (unit mm)*
G04 Created by KiCad (PCBNEW (6.0.5)) date 2025-09-09 17:56:06*
%MOMM*%
%LPD*%
G01*
G04 APERTURE LIST*
%ADD10C,3.200000*%
%ADD11R,1.700000X1.700000*%
%ADD12O,1.700000X1.700000*%
%ADD13C,2.000000*%
%ADD14C,0.750000*%
%ADD15O,1.200000X2.000000*%
%ADD16O,1.200000X1.800000*%
G04 APERTURE END LIST*
%LPC*%
D10*
X171910000Y-74070000D03*
D11*
X173070000Y-84950000D03*
D12*
X170530000Y-84950000D03*
X167990000Y-84950000D03*
X165450000Y-84950000D03*
X162910000Y-84950000D03*
X160370000Y-84950000D03*
X157830000Y-84950000D03*
D11*
X157820000Y-128210000D03*
D12*
X160360000Y-128210000D03*
X162900000Y-128210000D03*
X165440000Y-128210000D03*
X167980000Y-128210000D03*
X170520000Y-128210000D03*
X173060000Y-128210000D03*
D11*
X173070000Y-118380000D03*
D12*
X170530000Y-118380000D03*
X167990000Y-118380000D03*
X165450000Y-118380000D03*
X162910000Y-118380000D03*
X160370000Y-118380000D03*
X157830000Y-118380000D03*
D10*
X89120000Y-74070000D03*
D11*
X87310000Y-107290000D03*
D12*
X87310000Y-104750000D03*
X87310000Y-102210000D03*
X87310000Y-99670000D03*
D10*
X88980000Y-140520000D03*
D11*
X140410000Y-120790000D03*
D12*
X142950000Y-120790000D03*
X145490000Y-120790000D03*
X148030000Y-120790000D03*
X150570000Y-120790000D03*
D11*
X140585000Y-127340000D03*
D12*
X143125000Y-127340000D03*
X145665000Y-127340000D03*
X148205000Y-127340000D03*
X150745000Y-127340000D03*
D13*
X125790000Y-139440000D03*
X130870000Y-139440000D03*
D11*
X124850000Y-127260000D03*
D12*
X127390000Y-127260000D03*
X129930000Y-127260000D03*
X132470000Y-127260000D03*
X135010000Y-127260000D03*
D11*
X173070000Y-95930000D03*
D12*
X170530000Y-95930000D03*
X167990000Y-95930000D03*
X165450000Y-95930000D03*
X162910000Y-95930000D03*
X160370000Y-95930000D03*
X157830000Y-95930000D03*
D10*
X171980000Y-138910000D03*
D11*
X125180000Y-120880000D03*
D12*
X127720000Y-120880000D03*
X130260000Y-120880000D03*
X132800000Y-120880000D03*
X135340000Y-120880000D03*
D11*
X173070000Y-107900000D03*
D12*
X170530000Y-107900000D03*
X167990000Y-107900000D03*
X165450000Y-107900000D03*
X162910000Y-107900000D03*
X160370000Y-107900000D03*
X157830000Y-107900000D03*
D11*
X107625000Y-76075000D03*
D12*
X107625000Y-73535000D03*
X110165000Y-76075000D03*
X110165000Y-73535000D03*
X112705000Y-76075000D03*
X112705000Y-73535000D03*
X115245000Y-76075000D03*
X115245000Y-73535000D03*
X117785000Y-76075000D03*
X117785000Y-73535000D03*
X120325000Y-76075000D03*
X120325000Y-73535000D03*
X122865000Y-76075000D03*
X122865000Y-73535000D03*
X125405000Y-76075000D03*
X125405000Y-73535000D03*
X127945000Y-76075000D03*
X127945000Y-73535000D03*
X130485000Y-76075000D03*
X130485000Y-73535000D03*
X133025000Y-76075000D03*
X133025000Y-73535000D03*
X135565000Y-76075000D03*
X135565000Y-73535000D03*
X138105000Y-76075000D03*
X138105000Y-73535000D03*
X140645000Y-76075000D03*
X140645000Y-73535000D03*
X143185000Y-76075000D03*
X143185000Y-73535000D03*
X145725000Y-76075000D03*
X145725000Y-73535000D03*
X148265000Y-76075000D03*
X148265000Y-73535000D03*
X150805000Y-76075000D03*
X150805000Y-73535000D03*
X153345000Y-76075000D03*
X153345000Y-73535000D03*
X155885000Y-76075000D03*
X155885000Y-73535000D03*
D14*
X106570000Y-137587500D03*
X100770000Y-137587500D03*
D15*
X99340000Y-137087500D03*
X108000000Y-137087500D03*
D16*
X108000000Y-141267500D03*
X99340000Y-141267500D03*
M02*
