G04 #@! TF.GenerationSoftware,KiCad,Pcbnew,(6.0.5)*
G04 #@! TF.CreationDate,2025-09-09T17:56:06-06:00*
G04 #@! TF.ProjectId,tarjeta_pump_it_up,7461726a-6574-4615-9f70-756d705f6974,rev?*
G04 #@! TF.SameCoordinates,Original*
G04 #@! TF.FileFunction,Soldermask,Top*
G04 #@! TF.FilePolarity,Negative*
%FSLAX46Y46*%
G04 Gerber Fmt 4.6, Leading zero omitted, Abs format (unit mm)*
G04 Created by KiCad (PCBNEW (6.0.5)) date 2025-09-09 17:56:06*
%MOMM*%
%LPD*%
G01*
G04 APERTURE LIST*
G04 Aperture macros list*
%AMRoundRect*
0 Rectangle with rounded corners*
0 $1 Rounding radius*
0 $2 $3 $4 $5 $6 $7 $8 $9 X,Y pos of 4 corners*
0 Add a 4 corners polygon primitive as box body*
4,1,4,$2,$3,$4,$5,$6,$7,$8,$9,$2,$3,0*
0 Add four circle primitives for the rounded corners*
1,1,$1+$1,$2,$3*
1,1,$1+$1,$4,$5*
1,1,$1+$1,$6,$7*
1,1,$1+$1,$8,$9*
0 Add four rect primitives between the rounded corners*
20,1,$1+$1,$2,$3,$4,$5,0*
20,1,$1+$1,$4,$5,$6,$7,0*
20,1,$1+$1,$6,$7,$8,$9,0*
20,1,$1+$1,$8,$9,$2,$3,0*%
G04 Aperture macros list end*
%ADD10RoundRect,0.200000X0.275000X-0.200000X0.275000X0.200000X-0.275000X0.200000X-0.275000X-0.200000X0*%
%ADD11RoundRect,0.200000X-0.275000X0.200000X-0.275000X-0.200000X0.275000X-0.200000X0.275000X0.200000X0*%
%ADD12C,3.200000*%
%ADD13O,1.970000X0.600000*%
%ADD14RoundRect,0.200000X-0.200000X-0.275000X0.200000X-0.275000X0.200000X0.275000X-0.200000X0.275000X0*%
%ADD15R,1.700000X1.700000*%
%ADD16O,1.700000X1.700000*%
%ADD17RoundRect,0.225000X-0.250000X0.225000X-0.250000X-0.225000X0.250000X-0.225000X0.250000X0.225000X0*%
%ADD18RoundRect,0.250000X0.475000X-0.250000X0.475000X0.250000X-0.475000X0.250000X-0.475000X-0.250000X0*%
%ADD19R,0.900000X1.500000*%
%ADD20R,1.500000X0.900000*%
%ADD21R,0.900000X0.900000*%
%ADD22RoundRect,0.250000X0.425000X-0.450000X0.425000X0.450000X-0.425000X0.450000X-0.425000X-0.450000X0*%
%ADD23R,1.000000X1.700000*%
%ADD24RoundRect,0.225000X0.250000X-0.225000X0.250000X0.225000X-0.250000X0.225000X-0.250000X-0.225000X0*%
%ADD25C,2.000000*%
%ADD26R,1.500000X1.000000*%
%ADD27RoundRect,0.243750X0.243750X0.456250X-0.243750X0.456250X-0.243750X-0.456250X0.243750X-0.456250X0*%
%ADD28R,1.500000X2.000000*%
%ADD29R,3.800000X2.000000*%
%ADD30C,0.750000*%
%ADD31O,1.200000X2.000000*%
%ADD32O,1.200000X1.800000*%
%ADD33R,0.300000X1.300000*%
G04 APERTURE END LIST*
D10*
X109559300Y-86565000D03*
X109559300Y-84915000D03*
D11*
X100130000Y-132225000D03*
X100130000Y-133875000D03*
D12*
X171910000Y-74070000D03*
D13*
X146520000Y-134060000D03*
X146520000Y-135330000D03*
X146520000Y-136600000D03*
X146520000Y-137880000D03*
X146520000Y-139140000D03*
X146520000Y-140410000D03*
X146520000Y-141680000D03*
X146520000Y-142950000D03*
X152000000Y-142950000D03*
X152000000Y-141680000D03*
X152000000Y-140410000D03*
X152000000Y-139140000D03*
X152000000Y-137880000D03*
X152000000Y-136600000D03*
X152000000Y-135330000D03*
X152000000Y-134060000D03*
D14*
X117075000Y-129980000D03*
X118725000Y-129980000D03*
D10*
X121690800Y-86565000D03*
X121690800Y-84915000D03*
D15*
X173070000Y-84950000D03*
D16*
X170530000Y-84950000D03*
X167990000Y-84950000D03*
X165450000Y-84950000D03*
X162910000Y-84950000D03*
X160370000Y-84950000D03*
X157830000Y-84950000D03*
D17*
X120978400Y-90195000D03*
X120978400Y-91745000D03*
D10*
X161940000Y-92655000D03*
X161940000Y-91005000D03*
D17*
X102076500Y-90195000D03*
X102076500Y-91745000D03*
D11*
X164943400Y-80195000D03*
X164943400Y-81845000D03*
D10*
X169073300Y-115355000D03*
X169073300Y-113705000D03*
D17*
X117828100Y-90195000D03*
X117828100Y-91745000D03*
D10*
X166880000Y-92655000D03*
X166880000Y-91005000D03*
D13*
X138147500Y-105842500D03*
X138147500Y-104572500D03*
X138147500Y-103302500D03*
X138147500Y-102022500D03*
X138147500Y-100762500D03*
X138147500Y-99492500D03*
X138147500Y-98222500D03*
X138147500Y-96952500D03*
X132667500Y-96952500D03*
X132667500Y-98222500D03*
X132667500Y-99492500D03*
X132667500Y-100762500D03*
X132667500Y-102022500D03*
X132667500Y-103302500D03*
X132667500Y-104572500D03*
X132667500Y-105842500D03*
D10*
X114108600Y-86565000D03*
X114108600Y-84915000D03*
X105010000Y-86565000D03*
X105010000Y-84915000D03*
D18*
X119090000Y-133710000D03*
X119090000Y-131810000D03*
D13*
X135402500Y-134077500D03*
X135402500Y-135347500D03*
X135402500Y-136617500D03*
X135402500Y-137897500D03*
X135402500Y-139157500D03*
X135402500Y-140427500D03*
X135402500Y-141697500D03*
X135402500Y-142967500D03*
X140882500Y-142967500D03*
X140882500Y-141697500D03*
X140882500Y-140427500D03*
X140882500Y-139157500D03*
X140882500Y-137897500D03*
X140882500Y-136617500D03*
X140882500Y-135347500D03*
X140882500Y-134077500D03*
D14*
X154202500Y-134697500D03*
X155852500Y-134697500D03*
D10*
X166420000Y-115355000D03*
X166420000Y-113705000D03*
D17*
X143030700Y-90195000D03*
X143030700Y-91745000D03*
X119403300Y-90195000D03*
X119403300Y-91745000D03*
D15*
X157820000Y-128210000D03*
D16*
X160360000Y-128210000D03*
X162900000Y-128210000D03*
X165440000Y-128210000D03*
X167980000Y-128210000D03*
X170520000Y-128210000D03*
X173060000Y-128210000D03*
D10*
X163856700Y-103970000D03*
X163856700Y-102320000D03*
D15*
X173070000Y-118380000D03*
D16*
X170530000Y-118380000D03*
X167990000Y-118380000D03*
X165450000Y-118380000D03*
X162910000Y-118380000D03*
X160370000Y-118380000D03*
X157830000Y-118380000D03*
D10*
X144700000Y-86405000D03*
X144700000Y-84755000D03*
D18*
X112040000Y-133710000D03*
X112040000Y-131810000D03*
D11*
X146260000Y-84745000D03*
X146260000Y-86395000D03*
D12*
X89120000Y-74070000D03*
D17*
X141455500Y-90195000D03*
X141455500Y-91745000D03*
D11*
X161360000Y-123530000D03*
X161360000Y-125180000D03*
D17*
X108377100Y-90195000D03*
X108377100Y-91745000D03*
D10*
X124723700Y-86565000D03*
X124723700Y-84915000D03*
D15*
X87310000Y-107290000D03*
D16*
X87310000Y-104750000D03*
X87310000Y-102210000D03*
X87310000Y-99670000D03*
D19*
X92860000Y-128900000D03*
X94130000Y-128900000D03*
X95400000Y-128900000D03*
X96670000Y-128900000D03*
X97940000Y-128900000D03*
X99210000Y-128900000D03*
X100480000Y-128900000D03*
X101750000Y-128900000D03*
X103020000Y-128900000D03*
X104290000Y-128900000D03*
X105560000Y-128900000D03*
X106830000Y-128900000D03*
X108100000Y-128900000D03*
X109370000Y-128900000D03*
D20*
X110640000Y-127140000D03*
X110640000Y-125870000D03*
X110640000Y-124600000D03*
X110640000Y-123330000D03*
X110640000Y-122060000D03*
X110640000Y-120780000D03*
X110640000Y-119520000D03*
X110640000Y-118250000D03*
X110640000Y-116980000D03*
X110640000Y-115700000D03*
X110640000Y-114430000D03*
X110610000Y-113160000D03*
D19*
X109370000Y-111400000D03*
X108100000Y-111400000D03*
X106830000Y-111400000D03*
X105560000Y-111400000D03*
X104290000Y-111400000D03*
X103020000Y-111400000D03*
X101750000Y-111400000D03*
X100480000Y-111400000D03*
X99210000Y-111400000D03*
X97940000Y-111400000D03*
X96670000Y-111400000D03*
X95400000Y-111400000D03*
X94130000Y-111400000D03*
X92860000Y-111400000D03*
D21*
X101980000Y-123050000D03*
X99180000Y-121650000D03*
X100580000Y-121650000D03*
X100580000Y-123050000D03*
X99180000Y-120250000D03*
X101980000Y-121650000D03*
X101980000Y-120250000D03*
X99180000Y-123050000D03*
X100580000Y-120250000D03*
D22*
X120640000Y-142650000D03*
X120640000Y-139950000D03*
D23*
X104610000Y-99760000D03*
X104610000Y-106360000D03*
X100910000Y-99760000D03*
X100910000Y-106360000D03*
D10*
X161350000Y-103970000D03*
X161350000Y-102320000D03*
X120174400Y-86565000D03*
X120174400Y-84915000D03*
D24*
X151325200Y-91780000D03*
X151325200Y-90230000D03*
D18*
X116650000Y-133710000D03*
X116650000Y-131810000D03*
D12*
X88980000Y-140520000D03*
D10*
X103493600Y-86565000D03*
X103493600Y-84915000D03*
D17*
X125703900Y-90195000D03*
X125703900Y-91745000D03*
D10*
X111075800Y-86565000D03*
X111075800Y-84915000D03*
D14*
X154202500Y-136417500D03*
X155852500Y-136417500D03*
D15*
X140410000Y-120790000D03*
D16*
X142950000Y-120790000D03*
X145490000Y-120790000D03*
X148030000Y-120790000D03*
X150570000Y-120790000D03*
D13*
X147757500Y-105722500D03*
X147757500Y-104452500D03*
X147757500Y-103182500D03*
X147757500Y-101902500D03*
X147757500Y-100642500D03*
X147757500Y-99372500D03*
X147757500Y-98102500D03*
X147757500Y-96832500D03*
X142277500Y-96832500D03*
X142277500Y-98102500D03*
X142277500Y-99372500D03*
X142277500Y-100642500D03*
X142277500Y-101902500D03*
X142277500Y-103182500D03*
X142277500Y-104452500D03*
X142277500Y-105722500D03*
D10*
X167040000Y-81845000D03*
X167040000Y-80195000D03*
D15*
X140585000Y-127340000D03*
D16*
X143125000Y-127340000D03*
X145665000Y-127340000D03*
X148205000Y-127340000D03*
X150745000Y-127340000D03*
D17*
X132004600Y-90195000D03*
X132004600Y-91745000D03*
D10*
X169350000Y-92655000D03*
X169350000Y-91005000D03*
D24*
X148174900Y-91780000D03*
X148174900Y-90230000D03*
D17*
X136730000Y-90195000D03*
X136730000Y-91745000D03*
D14*
X154202500Y-138107500D03*
X155852500Y-138107500D03*
D10*
X147810000Y-86375000D03*
X147810000Y-84725000D03*
D25*
X125790000Y-139440000D03*
X130870000Y-139440000D03*
D17*
X106802000Y-90195000D03*
X106802000Y-91745000D03*
D10*
X103340000Y-133875000D03*
X103340000Y-132225000D03*
D15*
X124850000Y-127260000D03*
D16*
X127390000Y-127260000D03*
X129930000Y-127260000D03*
X132470000Y-127260000D03*
X135010000Y-127260000D03*
D22*
X110870000Y-142562500D03*
X110870000Y-139862500D03*
D14*
X92400000Y-131280000D03*
X94050000Y-131280000D03*
D11*
X101735000Y-132225000D03*
X101735000Y-133875000D03*
D10*
X143120000Y-86500000D03*
X143120000Y-84850000D03*
D17*
X113102600Y-90195000D03*
X113102600Y-91745000D03*
X109952300Y-90195000D03*
X109952300Y-91745000D03*
D26*
X96070000Y-141040000D03*
X96070000Y-142340000D03*
D10*
X163766600Y-115355000D03*
X163766600Y-113705000D03*
D24*
X146520000Y-91775000D03*
X146520000Y-90225000D03*
D14*
X142962500Y-134317500D03*
X144612500Y-134317500D03*
D10*
X169136700Y-81845000D03*
X169136700Y-80195000D03*
X166363300Y-103970000D03*
X166363300Y-102320000D03*
X141570000Y-86505000D03*
X141570000Y-84855000D03*
D17*
X138305200Y-90195000D03*
X138305200Y-91745000D03*
D11*
X164140000Y-123530000D03*
X164140000Y-125180000D03*
D14*
X142962500Y-139377500D03*
X144612500Y-139377500D03*
D17*
X128854200Y-90195000D03*
X128854200Y-91745000D03*
D27*
X114687500Y-129880000D03*
X112812500Y-129880000D03*
D10*
X127756600Y-86565000D03*
X127756600Y-84915000D03*
D17*
X105226800Y-90195000D03*
X105226800Y-91745000D03*
X122553600Y-90195000D03*
X122553600Y-91745000D03*
D24*
X149750000Y-91780000D03*
X149750000Y-90230000D03*
D17*
X130429400Y-90195000D03*
X130429400Y-91745000D03*
D15*
X173070000Y-95930000D03*
D16*
X170530000Y-95930000D03*
X167990000Y-95930000D03*
X165450000Y-95930000D03*
X162910000Y-95930000D03*
X160370000Y-95930000D03*
X157830000Y-95930000D03*
D10*
X118658000Y-86565000D03*
X118658000Y-84915000D03*
X169200000Y-125180000D03*
X169200000Y-123530000D03*
D17*
X111527500Y-90195000D03*
X111527500Y-91745000D03*
D13*
X123577500Y-97182500D03*
X123577500Y-98452500D03*
X123577500Y-99722500D03*
X123577500Y-101002500D03*
X123577500Y-102262500D03*
X123577500Y-103532500D03*
X123577500Y-104802500D03*
X123577500Y-106072500D03*
X129057500Y-106072500D03*
X129057500Y-104802500D03*
X129057500Y-103532500D03*
X129057500Y-102262500D03*
X129057500Y-101002500D03*
X129057500Y-99722500D03*
X129057500Y-98452500D03*
X129057500Y-97182500D03*
D12*
X171980000Y-138910000D03*
D10*
X162846700Y-81845000D03*
X162846700Y-80195000D03*
X161113300Y-115355000D03*
X161113300Y-113705000D03*
X104945000Y-133875000D03*
X104945000Y-132225000D03*
D15*
X125180000Y-120880000D03*
D16*
X127720000Y-120880000D03*
X130260000Y-120880000D03*
X132800000Y-120880000D03*
X135340000Y-120880000D03*
D17*
X144605800Y-90195000D03*
X144605800Y-91745000D03*
D18*
X114370000Y-133710000D03*
X114370000Y-131810000D03*
D14*
X109425000Y-108580000D03*
X111075000Y-108580000D03*
D10*
X149370000Y-86400000D03*
X149370000Y-84750000D03*
X126240100Y-86565000D03*
X126240100Y-84915000D03*
D28*
X113480000Y-142490000D03*
D29*
X115780000Y-136190000D03*
D28*
X115780000Y-142490000D03*
X118080000Y-142490000D03*
D17*
X103651700Y-90195000D03*
X103651700Y-91745000D03*
D10*
X106526400Y-86565000D03*
X106526400Y-84915000D03*
X108042900Y-86565000D03*
X108042900Y-84915000D03*
X123207300Y-86565000D03*
X123207300Y-84915000D03*
D17*
X133579700Y-90195000D03*
X133579700Y-91745000D03*
D10*
X101977100Y-86565000D03*
X101977100Y-84915000D03*
D17*
X114677800Y-90195000D03*
X114677800Y-91745000D03*
D15*
X173070000Y-107900000D03*
D16*
X170530000Y-107900000D03*
X167990000Y-107900000D03*
X165450000Y-107900000D03*
X162910000Y-107900000D03*
X160370000Y-107900000D03*
X157830000Y-107900000D03*
D10*
X117141500Y-86565000D03*
X117141500Y-84915000D03*
D14*
X154202500Y-141597500D03*
X155852500Y-141597500D03*
D17*
X135154900Y-90195000D03*
X135154900Y-91745000D03*
D10*
X112592200Y-86565000D03*
X112592200Y-84915000D03*
D17*
X124128800Y-90195000D03*
X124128800Y-91745000D03*
D10*
X106550000Y-133875000D03*
X106550000Y-132225000D03*
D11*
X166620000Y-123530000D03*
X166620000Y-125180000D03*
D17*
X127279100Y-90195000D03*
X127279100Y-91745000D03*
D23*
X92060000Y-106360000D03*
X92060000Y-99760000D03*
X95760000Y-106360000D03*
X95760000Y-99760000D03*
D17*
X139880400Y-90195000D03*
X139880400Y-91745000D03*
D10*
X135430000Y-86575000D03*
X135430000Y-84925000D03*
X129273000Y-86565000D03*
X129273000Y-84915000D03*
X136970000Y-86565000D03*
X136970000Y-84915000D03*
D15*
X107625000Y-76075000D03*
D16*
X107625000Y-73535000D03*
X110165000Y-76075000D03*
X110165000Y-73535000D03*
X112705000Y-76075000D03*
X112705000Y-73535000D03*
X115245000Y-76075000D03*
X115245000Y-73535000D03*
X117785000Y-76075000D03*
X117785000Y-73535000D03*
X120325000Y-76075000D03*
X120325000Y-73535000D03*
X122865000Y-76075000D03*
X122865000Y-73535000D03*
X125405000Y-76075000D03*
X125405000Y-73535000D03*
X127945000Y-76075000D03*
X127945000Y-73535000D03*
X130485000Y-76075000D03*
X130485000Y-73535000D03*
X133025000Y-76075000D03*
X133025000Y-73535000D03*
X135565000Y-76075000D03*
X135565000Y-73535000D03*
X138105000Y-76075000D03*
X138105000Y-73535000D03*
X140645000Y-76075000D03*
X140645000Y-73535000D03*
X143185000Y-76075000D03*
X143185000Y-73535000D03*
X145725000Y-76075000D03*
X145725000Y-73535000D03*
X148265000Y-76075000D03*
X148265000Y-73535000D03*
X150805000Y-76075000D03*
X150805000Y-73535000D03*
X153345000Y-76075000D03*
X153345000Y-73535000D03*
X155885000Y-76075000D03*
X155885000Y-73535000D03*
D17*
X116252900Y-90195000D03*
X116252900Y-91745000D03*
D10*
X140020000Y-86535000D03*
X140020000Y-84885000D03*
X132305900Y-86565000D03*
X132305900Y-84915000D03*
D14*
X142962500Y-141127500D03*
X144612500Y-141127500D03*
X142962500Y-135977500D03*
X144612500Y-135977500D03*
D10*
X130789500Y-86565000D03*
X130789500Y-84915000D03*
D30*
X106570000Y-137587500D03*
X100770000Y-137587500D03*
D31*
X99340000Y-137087500D03*
X108000000Y-137087500D03*
D32*
X108000000Y-141267500D03*
X99340000Y-141267500D03*
D33*
X100320000Y-136327500D03*
X101120000Y-136327500D03*
X102420000Y-136327500D03*
X103420000Y-136327500D03*
X103920000Y-136327500D03*
X104920000Y-136327500D03*
X106220000Y-136327500D03*
X107020000Y-136327500D03*
X106720000Y-136327500D03*
X105920000Y-136327500D03*
X105420000Y-136327500D03*
X104420000Y-136327500D03*
X102920000Y-136327500D03*
X101920000Y-136327500D03*
X101420000Y-136327500D03*
X100620000Y-136327500D03*
D10*
X168870000Y-103970000D03*
X168870000Y-102320000D03*
D14*
X142962500Y-137627500D03*
X144612500Y-137627500D03*
D13*
X118220000Y-106230000D03*
X118220000Y-104960000D03*
X118220000Y-103690000D03*
X118220000Y-102410000D03*
X118220000Y-101150000D03*
X118220000Y-99880000D03*
X118220000Y-98610000D03*
X118220000Y-97340000D03*
X112740000Y-97340000D03*
X112740000Y-98610000D03*
X112740000Y-99880000D03*
X112740000Y-101150000D03*
X112740000Y-102410000D03*
X112740000Y-103690000D03*
X112740000Y-104960000D03*
X112740000Y-106230000D03*
D14*
X154202500Y-139817500D03*
X155852500Y-139817500D03*
D10*
X164410000Y-92655000D03*
X164410000Y-91005000D03*
X133860000Y-86555000D03*
X133860000Y-84905000D03*
X115625100Y-86565000D03*
X115625100Y-84915000D03*
X138500000Y-86565000D03*
X138500000Y-84915000D03*
M02*
