M48
; DRILL file {KiCad (6.0.5)} date Tue Sep  9 17:56:17 2025
; FORMAT={-:-/ absolute / metric / decimal}
; #@! TF.CreationDate,2025-09-09T17:56:17-06:00
; #@! TF.GenerationSoftware,Kicad,Pcbnew,(6.0.5)
; #@! TF.FileFunction,Plated,1,2,PTH
FMAT,2
METRIC
; #@! TA.AperFunction,Plated,PTH,ViaDrill
T1C0.400
; #@! TA.AperFunction,Plated,PTH,ComponentDrill
T2C0.750
; #@! TA.AperFunction,Plated,PTH,ComponentDrill
T3C0.800
; #@! TA.AperFunction,Plated,PTH,ComponentDrill
T4C1.000
; #@! TA.AperFunction,Plated,PTH,ComponentDrill
T5C1.300
%
G90
G05
T1
X92.514Y-108.725
X95.713Y-127.541
X97.41Y-110.034
X99.326Y-133.05
X100.48Y-112.783
X101.75Y-112.763
X101.99Y-89.116
X102.106Y-130.255
X102.203Y-92.909
X103.361Y-130.253
X103.502Y-105.183
X104.297Y-131.007
X104.419Y-126.812
X104.493Y-92.658
X106.055Y-135.032
X106.067Y-127.548
X106.902Y-125.283
X107.183Y-130.252
X107.246Y-87.524
X107.246Y-92.814
X107.31Y-108.58
X107.546Y-126.056
X108.836Y-124.535
X108.877Y-93.132
X108.877Y-87.585
X108.905Y-81.336
X109.0Y-112.783
X109.553Y-142.54
X110.456Y-103.055
X110.456Y-105.595
X110.639Y-128.376
X110.721Y-92.818
X110.828Y-87.594
X111.217Y-97.779
X111.365Y-129.103
X111.84Y-87.466
X111.909Y-92.829
X112.309Y-109.538
X112.748Y-88.7
X113.672Y-87.674
X113.672Y-92.844
X113.975Y-81.336
X114.223Y-140.862
X114.463Y-99.943
X114.62Y-98.61
X114.757Y-87.529
X114.871Y-92.818
X115.625Y-88.122
X116.314Y-92.802
X116.779Y-78.527
X117.683Y-78.004
X117.828Y-87.535
X117.828Y-92.802
X118.577Y-78.575
X118.85Y-87.651
X119.142Y-81.864
X119.991Y-92.802
X120.117Y-82.397
X120.325Y-79.649
X120.391Y-138.035
X120.404Y-136.075
X120.831Y-106.646
X121.739Y-92.921
X121.915Y-83.9
X122.025Y-134.358
X122.437Y-87.461
X122.515Y-88.653
X122.873Y-80.343
X123.268Y-92.691
X124.053Y-87.54
X124.135Y-76.876
X124.224Y-107.375
X124.84Y-92.702
X125.361Y-87.538
X125.466Y-88.69
X125.575Y-110.93
X126.528Y-87.577
X126.795Y-93.761
X126.954Y-101.812
X127.105Y-104.395
X127.318Y-92.808
X127.357Y-102.844
X127.436Y-80.509
X127.633Y-105.517
X127.945Y-78.534
X128.085Y-83.169
X129.524Y-107.402
X129.694Y-87.859
X130.124Y-80.72
X130.414Y-100.328
X130.445Y-92.8
X130.525Y-96.667
X130.79Y-87.572
X131.168Y-107.01
X131.6Y-88.599
X132.005Y-92.822
X132.04Y-95.962
X132.188Y-80.82
X132.196Y-106.778
X132.628Y-88.666
X133.205Y-139.157
X133.681Y-92.811
X133.826Y-88.171
X134.613Y-87.441
X135.237Y-104.561
X136.264Y-94.138
X136.327Y-105.714
X136.382Y-92.819
X136.51Y-107.168
X136.99Y-94.886
X137.461Y-87.604
X137.689Y-96.001
X138.863Y-88.119
X139.738Y-101.997
X139.772Y-103.204
X139.781Y-92.806
X140.094Y-88.274
X140.614Y-117.015
X141.287Y-116.094
X141.759Y-112.038
X142.368Y-83.051
X142.59Y-87.538
X142.628Y-110.2
X143.116Y-92.821
X143.177Y-116.321
X143.577Y-89.141
X143.742Y-138.547
X143.805Y-141.93
X143.954Y-100.193
X143.96Y-115.368
X144.623Y-102.384
X144.623Y-104.414
X144.939Y-87.418
X146.139Y-125.885
X146.857Y-95.142
X147.824Y-88.347
X148.044Y-137.126
X148.149Y-138.142
X148.232Y-135.965
X148.573Y-87.242
X148.629Y-89.171
X148.629Y-95.928
X149.754Y-92.863
X150.475Y-86.309
X162.195Y-103.125
X166.2Y-79.171
X169.812Y-126.205
T2
X100.77Y-137.588
X106.57Y-137.588
T4
X87.31Y-99.67
X87.31Y-102.21
X87.31Y-104.75
X87.31Y-107.29
X107.625Y-73.535
X107.625Y-76.075
X110.165Y-73.535
X110.165Y-76.075
X112.705Y-73.535
X112.705Y-76.075
X115.245Y-73.535
X115.245Y-76.075
X117.785Y-73.535
X117.785Y-76.075
X120.325Y-73.535
X120.325Y-76.075
X122.865Y-73.535
X122.865Y-76.075
X124.85Y-127.26
X125.18Y-120.88
X125.405Y-73.535
X125.405Y-76.075
X127.39Y-127.26
X127.72Y-120.88
X127.945Y-73.535
X127.945Y-76.075
X129.93Y-127.26
X130.26Y-120.88
X130.485Y-73.535
X130.485Y-76.075
X132.47Y-127.26
X132.8Y-120.88
X133.025Y-73.535
X133.025Y-76.075
X135.01Y-127.26
X135.34Y-120.88
X135.565Y-73.535
X135.565Y-76.075
X138.105Y-73.535
X138.105Y-76.075
X140.41Y-120.79
X140.585Y-127.34
X140.645Y-73.535
X140.645Y-76.075
X142.95Y-120.79
X143.125Y-127.34
X143.185Y-73.535
X143.185Y-76.075
X145.49Y-120.79
X145.665Y-127.34
X145.725Y-73.535
X145.725Y-76.075
X148.03Y-120.79
X148.205Y-127.34
X148.265Y-73.535
X148.265Y-76.075
X150.57Y-120.79
X150.745Y-127.34
X150.805Y-73.535
X150.805Y-76.075
X153.345Y-73.535
X153.345Y-76.075
X155.885Y-73.535
X155.885Y-76.075
X157.82Y-128.21
X157.83Y-84.95
X157.83Y-95.93
X157.83Y-107.9
X157.83Y-118.38
X160.36Y-128.21
X160.37Y-84.95
X160.37Y-95.93
X160.37Y-107.9
X160.37Y-118.38
X162.9Y-128.21
X162.91Y-84.95
X162.91Y-95.93
X162.91Y-107.9
X162.91Y-118.38
X165.44Y-128.21
X165.45Y-84.95
X165.45Y-95.93
X165.45Y-107.9
X165.45Y-118.38
X167.98Y-128.21
X167.99Y-84.95
X167.99Y-95.93
X167.99Y-107.9
X167.99Y-118.38
X170.52Y-128.21
X170.53Y-84.95
X170.53Y-95.93
X170.53Y-107.9
X170.53Y-118.38
X173.06Y-128.21
X173.07Y-84.95
X173.07Y-95.93
X173.07Y-107.9
X173.07Y-118.38
T5
X125.79Y-139.44
X130.87Y-139.44
T3
X99.34Y-136.687G85X99.34Y-137.488
G05
X99.34Y-140.968G85X99.34Y-141.567
G05
X108.0Y-136.688G85X108.0Y-137.487
G05
X108.0Y-140.968G85X108.0Y-141.567
G05
T0
M30
