G04 #@! TF.GenerationSoftware,KiCad,Pcbnew,(6.0.5)*
G04 #@! TF.CreationDate,2025-09-09T17:56:06-06:00*
G04 #@! TF.ProjectId,tarjeta_pump_it_up,7461726a-6574-4615-9f70-756d705f6974,rev?*
G04 #@! TF.SameCoordinates,Original*
G04 #@! TF.FileFunction,Legend,Top*
G04 #@! TF.FilePolarity,Positive*
%FSLAX46Y46*%
G04 Gerber Fmt 4.6, Leading zero omitted, Abs format (unit mm)*
G04 Created by KiCad (PCBNEW (6.0.5)) date 2025-09-09 17:56:06*
%MOMM*%
%LPD*%
G01*
G04 APERTURE LIST*
G04 Aperture macros list*
%AMRoundRect*
0 Rectangle with rounded corners*
0 $1 Rounding radius*
0 $2 $3 $4 $5 $6 $7 $8 $9 X,Y pos of 4 corners*
0 Add a 4 corners polygon primitive as box body*
4,1,4,$2,$3,$4,$5,$6,$7,$8,$9,$2,$3,0*
0 Add four circle primitives for the rounded corners*
1,1,$1+$1,$2,$3*
1,1,$1+$1,$4,$5*
1,1,$1+$1,$6,$7*
1,1,$1+$1,$8,$9*
0 Add four rect primitives between the rounded corners*
20,1,$1+$1,$2,$3,$4,$5,0*
20,1,$1+$1,$4,$5,$6,$7,0*
20,1,$1+$1,$6,$7,$8,$9,0*
20,1,$1+$1,$8,$9,$2,$3,0*%
G04 Aperture macros list end*
%ADD10C,0.150000*%
%ADD11C,0.300000*%
%ADD12C,0.120000*%
%ADD13C,0.250000*%
%ADD14RoundRect,0.200000X0.275000X-0.200000X0.275000X0.200000X-0.275000X0.200000X-0.275000X-0.200000X0*%
%ADD15RoundRect,0.200000X-0.275000X0.200000X-0.275000X-0.200000X0.275000X-0.200000X0.275000X0.200000X0*%
%ADD16C,3.200000*%
%ADD17O,1.970000X0.600000*%
%ADD18RoundRect,0.200000X-0.200000X-0.275000X0.200000X-0.275000X0.200000X0.275000X-0.200000X0.275000X0*%
%ADD19R,1.700000X1.700000*%
%ADD20O,1.700000X1.700000*%
%ADD21RoundRect,0.225000X-0.250000X0.225000X-0.250000X-0.225000X0.250000X-0.225000X0.250000X0.225000X0*%
%ADD22RoundRect,0.250000X0.475000X-0.250000X0.475000X0.250000X-0.475000X0.250000X-0.475000X-0.250000X0*%
%ADD23R,0.900000X1.500000*%
%ADD24R,1.500000X0.900000*%
%ADD25R,0.900000X0.900000*%
%ADD26RoundRect,0.250000X0.425000X-0.450000X0.425000X0.450000X-0.425000X0.450000X-0.425000X-0.450000X0*%
%ADD27R,1.000000X1.700000*%
%ADD28RoundRect,0.225000X0.250000X-0.225000X0.250000X0.225000X-0.250000X0.225000X-0.250000X-0.225000X0*%
%ADD29C,2.000000*%
%ADD30R,1.500000X1.000000*%
%ADD31RoundRect,0.243750X0.243750X0.456250X-0.243750X0.456250X-0.243750X-0.456250X0.243750X-0.456250X0*%
%ADD32R,1.500000X2.000000*%
%ADD33R,3.800000X2.000000*%
%ADD34C,0.750000*%
%ADD35O,1.200000X2.000000*%
%ADD36O,1.200000X1.800000*%
%ADD37R,0.300000X1.300000*%
G04 APERTURE END LIST*
D10*
X123335714Y-81804761D02*
X123335714Y-79804761D01*
X124097619Y-79804761D01*
X124288095Y-79900000D01*
X124383333Y-79995238D01*
X124478571Y-80185714D01*
X124478571Y-80471428D01*
X124383333Y-80661904D01*
X124288095Y-80757142D01*
X124097619Y-80852380D01*
X123335714Y-80852380D01*
X125335714Y-81804761D02*
X125335714Y-79804761D01*
X126288095Y-79804761D02*
X126288095Y-81423809D01*
X126383333Y-81614285D01*
X126478571Y-81709523D01*
X126669047Y-81804761D01*
X127050000Y-81804761D01*
X127240476Y-81709523D01*
X127335714Y-81614285D01*
X127430952Y-81423809D01*
X127430952Y-79804761D01*
X127907142Y-81995238D02*
X129430952Y-81995238D01*
X129907142Y-79804761D02*
X129907142Y-81423809D01*
X130002380Y-81614285D01*
X130097619Y-81709523D01*
X130288095Y-81804761D01*
X130669047Y-81804761D01*
X130859523Y-81709523D01*
X130954761Y-81614285D01*
X131050000Y-81423809D01*
X131050000Y-79804761D01*
X131907142Y-81709523D02*
X132192857Y-81804761D01*
X132669047Y-81804761D01*
X132859523Y-81709523D01*
X132954761Y-81614285D01*
X133050000Y-81423809D01*
X133050000Y-81233333D01*
X132954761Y-81042857D01*
X132859523Y-80947619D01*
X132669047Y-80852380D01*
X132288095Y-80757142D01*
X132097619Y-80661904D01*
X132002380Y-80566666D01*
X131907142Y-80376190D01*
X131907142Y-80185714D01*
X132002380Y-79995238D01*
X132097619Y-79900000D01*
X132288095Y-79804761D01*
X132764285Y-79804761D01*
X133050000Y-79900000D01*
X134573809Y-80757142D02*
X134859523Y-80852380D01*
X134954761Y-80947619D01*
X135050000Y-81138095D01*
X135050000Y-81423809D01*
X134954761Y-81614285D01*
X134859523Y-81709523D01*
X134669047Y-81804761D01*
X133907142Y-81804761D01*
X133907142Y-79804761D01*
X134573809Y-79804761D01*
X134764285Y-79900000D01*
X134859523Y-79995238D01*
X134954761Y-80185714D01*
X134954761Y-80376190D01*
X134859523Y-80566666D01*
X134764285Y-80661904D01*
X134573809Y-80757142D01*
X133907142Y-80757142D01*
X137240476Y-80471428D02*
X137716666Y-81804761D01*
X138192857Y-80471428D01*
X139335714Y-79804761D02*
X139526190Y-79804761D01*
X139716666Y-79900000D01*
X139811904Y-79995238D01*
X139907142Y-80185714D01*
X140002380Y-80566666D01*
X140002380Y-81042857D01*
X139907142Y-81423809D01*
X139811904Y-81614285D01*
X139716666Y-81709523D01*
X139526190Y-81804761D01*
X139335714Y-81804761D01*
X139145238Y-81709523D01*
X139050000Y-81614285D01*
X138954761Y-81423809D01*
X138859523Y-81042857D01*
X138859523Y-80566666D01*
X138954761Y-80185714D01*
X139050000Y-79995238D01*
X139145238Y-79900000D01*
X139335714Y-79804761D01*
X140859523Y-81614285D02*
X140954761Y-81709523D01*
X140859523Y-81804761D01*
X140764285Y-81709523D01*
X140859523Y-81614285D01*
X140859523Y-81804761D01*
X142859523Y-81804761D02*
X141716666Y-81804761D01*
X142288095Y-81804761D02*
X142288095Y-79804761D01*
X142097619Y-80090476D01*
X141907142Y-80280952D01*
X141716666Y-80376190D01*
X160728095Y-99082380D02*
X160728095Y-98082380D01*
X161109047Y-98082380D01*
X161204285Y-98130000D01*
X161251904Y-98177619D01*
X161299523Y-98272857D01*
X161299523Y-98415714D01*
X161251904Y-98510952D01*
X161204285Y-98558571D01*
X161109047Y-98606190D01*
X160728095Y-98606190D01*
X161728095Y-99082380D02*
X161728095Y-98082380D01*
X162204285Y-98082380D02*
X162204285Y-98891904D01*
X162251904Y-98987142D01*
X162299523Y-99034761D01*
X162394761Y-99082380D01*
X162585238Y-99082380D01*
X162680476Y-99034761D01*
X162728095Y-98987142D01*
X162775714Y-98891904D01*
X162775714Y-98082380D01*
X164013809Y-99082380D02*
X164013809Y-98082380D01*
X164251904Y-98082380D01*
X164394761Y-98130000D01*
X164490000Y-98225238D01*
X164537619Y-98320476D01*
X164585238Y-98510952D01*
X164585238Y-98653809D01*
X164537619Y-98844285D01*
X164490000Y-98939523D01*
X164394761Y-99034761D01*
X164251904Y-99082380D01*
X164013809Y-99082380D01*
X165013809Y-98558571D02*
X165347142Y-98558571D01*
X165490000Y-99082380D02*
X165013809Y-99082380D01*
X165013809Y-98082380D01*
X165490000Y-98082380D01*
X166490000Y-99082380D02*
X166156666Y-98606190D01*
X165918571Y-99082380D02*
X165918571Y-98082380D01*
X166299523Y-98082380D01*
X166394761Y-98130000D01*
X166442380Y-98177619D01*
X166490000Y-98272857D01*
X166490000Y-98415714D01*
X166442380Y-98510952D01*
X166394761Y-98558571D01*
X166299523Y-98606190D01*
X165918571Y-98606190D01*
X166918571Y-98558571D02*
X167251904Y-98558571D01*
X167394761Y-99082380D02*
X166918571Y-99082380D01*
X166918571Y-98082380D01*
X167394761Y-98082380D01*
X168394761Y-98987142D02*
X168347142Y-99034761D01*
X168204285Y-99082380D01*
X168109047Y-99082380D01*
X167966190Y-99034761D01*
X167870952Y-98939523D01*
X167823333Y-98844285D01*
X167775714Y-98653809D01*
X167775714Y-98510952D01*
X167823333Y-98320476D01*
X167870952Y-98225238D01*
X167966190Y-98130000D01*
X168109047Y-98082380D01*
X168204285Y-98082380D01*
X168347142Y-98130000D01*
X168394761Y-98177619D01*
X168823333Y-99082380D02*
X168823333Y-98082380D01*
X168823333Y-98558571D02*
X169394761Y-98558571D01*
X169394761Y-99082380D02*
X169394761Y-98082380D01*
X169823333Y-98796666D02*
X170299523Y-98796666D01*
X169728095Y-99082380D02*
X170061428Y-98082380D01*
X170394761Y-99082380D01*
X125451904Y-118612380D02*
X125451904Y-117612380D01*
X125832857Y-117612380D01*
X125928095Y-117660000D01*
X125975714Y-117707619D01*
X126023333Y-117802857D01*
X126023333Y-117945714D01*
X125975714Y-118040952D01*
X125928095Y-118088571D01*
X125832857Y-118136190D01*
X125451904Y-118136190D01*
X126451904Y-118612380D02*
X126451904Y-117612380D01*
X126928095Y-117612380D02*
X126928095Y-118421904D01*
X126975714Y-118517142D01*
X127023333Y-118564761D01*
X127118571Y-118612380D01*
X127309047Y-118612380D01*
X127404285Y-118564761D01*
X127451904Y-118517142D01*
X127499523Y-118421904D01*
X127499523Y-117612380D01*
X128737619Y-118612380D02*
X128737619Y-117612380D01*
X128737619Y-118088571D02*
X129309047Y-118088571D01*
X129309047Y-118612380D02*
X129309047Y-117612380D01*
X129737619Y-118326666D02*
X130213809Y-118326666D01*
X129642380Y-118612380D02*
X129975714Y-117612380D01*
X130309047Y-118612380D01*
X130642380Y-118612380D02*
X130642380Y-117612380D01*
X131213809Y-118612380D01*
X131213809Y-117612380D01*
X131690000Y-118612380D02*
X131690000Y-117612380D01*
X131928095Y-117612380D01*
X132070952Y-117660000D01*
X132166190Y-117755238D01*
X132213809Y-117850476D01*
X132261428Y-118040952D01*
X132261428Y-118183809D01*
X132213809Y-118374285D01*
X132166190Y-118469523D01*
X132070952Y-118564761D01*
X131928095Y-118612380D01*
X131690000Y-118612380D01*
X133451904Y-118612380D02*
X133451904Y-117612380D01*
X133832857Y-117612380D01*
X133928095Y-117660000D01*
X133975714Y-117707619D01*
X134023333Y-117802857D01*
X134023333Y-117945714D01*
X133975714Y-118040952D01*
X133928095Y-118088571D01*
X133832857Y-118136190D01*
X133451904Y-118136190D01*
X134975714Y-118612380D02*
X134404285Y-118612380D01*
X134690000Y-118612380D02*
X134690000Y-117612380D01*
X134594761Y-117755238D01*
X134499523Y-117850476D01*
X134404285Y-117898095D01*
X129838571Y-132658571D02*
X130171904Y-132658571D01*
X130314761Y-133182380D02*
X129838571Y-133182380D01*
X129838571Y-132182380D01*
X130314761Y-132182380D01*
X130648095Y-132182380D02*
X131314761Y-133182380D01*
X131314761Y-132182380D02*
X130648095Y-133182380D01*
X131552857Y-132182380D02*
X132124285Y-132182380D01*
X131838571Y-133182380D02*
X131838571Y-132182380D01*
X107010000Y-81581904D02*
X106962380Y-81677142D01*
X106962380Y-81820000D01*
X107010000Y-81962857D01*
X107105238Y-82058095D01*
X107200476Y-82105714D01*
X107390952Y-82153333D01*
X107533809Y-82153333D01*
X107724285Y-82105714D01*
X107819523Y-82058095D01*
X107914761Y-81962857D01*
X107962380Y-81820000D01*
X107962380Y-81724761D01*
X107914761Y-81581904D01*
X107867142Y-81534285D01*
X107533809Y-81534285D01*
X107533809Y-81724761D01*
X107962380Y-81105714D02*
X106962380Y-81105714D01*
X107962380Y-80534285D01*
X106962380Y-80534285D01*
X107962380Y-80058095D02*
X106962380Y-80058095D01*
X106962380Y-79820000D01*
X107010000Y-79677142D01*
X107105238Y-79581904D01*
X107200476Y-79534285D01*
X107390952Y-79486666D01*
X107533809Y-79486666D01*
X107724285Y-79534285D01*
X107819523Y-79581904D01*
X107914761Y-79677142D01*
X107962380Y-79820000D01*
X107962380Y-80058095D01*
X161900000Y-121632380D02*
X161900000Y-120632380D01*
X162280952Y-120632380D01*
X162376190Y-120680000D01*
X162423809Y-120727619D01*
X162471428Y-120822857D01*
X162471428Y-120965714D01*
X162423809Y-121060952D01*
X162376190Y-121108571D01*
X162280952Y-121156190D01*
X161900000Y-121156190D01*
X162900000Y-121632380D02*
X162900000Y-120632380D01*
X163376190Y-120632380D02*
X163376190Y-121441904D01*
X163423809Y-121537142D01*
X163471428Y-121584761D01*
X163566666Y-121632380D01*
X163757142Y-121632380D01*
X163852380Y-121584761D01*
X163900000Y-121537142D01*
X163947619Y-121441904D01*
X163947619Y-120632380D01*
X165138095Y-121346666D02*
X165614285Y-121346666D01*
X165042857Y-121632380D02*
X165376190Y-120632380D01*
X165709523Y-121632380D01*
X166614285Y-121632380D02*
X166280952Y-121156190D01*
X166042857Y-121632380D02*
X166042857Y-120632380D01*
X166423809Y-120632380D01*
X166519047Y-120680000D01*
X166566666Y-120727619D01*
X166614285Y-120822857D01*
X166614285Y-120965714D01*
X166566666Y-121060952D01*
X166519047Y-121108571D01*
X166423809Y-121156190D01*
X166042857Y-121156190D01*
X167614285Y-121632380D02*
X167280952Y-121156190D01*
X167042857Y-121632380D02*
X167042857Y-120632380D01*
X167423809Y-120632380D01*
X167519047Y-120680000D01*
X167566666Y-120727619D01*
X167614285Y-120822857D01*
X167614285Y-120965714D01*
X167566666Y-121060952D01*
X167519047Y-121108571D01*
X167423809Y-121156190D01*
X167042857Y-121156190D01*
X168042857Y-121632380D02*
X168042857Y-120632380D01*
X168852380Y-121108571D02*
X168995238Y-121156190D01*
X169042857Y-121203809D01*
X169090476Y-121299047D01*
X169090476Y-121441904D01*
X169042857Y-121537142D01*
X168995238Y-121584761D01*
X168900000Y-121632380D01*
X168519047Y-121632380D01*
X168519047Y-120632380D01*
X168852380Y-120632380D01*
X168947619Y-120680000D01*
X168995238Y-120727619D01*
X169042857Y-120822857D01*
X169042857Y-120918095D01*
X168995238Y-121013333D01*
X168947619Y-121060952D01*
X168852380Y-121108571D01*
X168519047Y-121108571D01*
X169471428Y-121346666D02*
X169947619Y-121346666D01*
X169376190Y-121632380D02*
X169709523Y-120632380D01*
X170042857Y-121632380D01*
X125440952Y-125002380D02*
X125440952Y-124002380D01*
X125821904Y-124002380D01*
X125917142Y-124050000D01*
X125964761Y-124097619D01*
X126012380Y-124192857D01*
X126012380Y-124335714D01*
X125964761Y-124430952D01*
X125917142Y-124478571D01*
X125821904Y-124526190D01*
X125440952Y-124526190D01*
X126440952Y-125002380D02*
X126440952Y-124002380D01*
X126917142Y-124002380D02*
X126917142Y-124811904D01*
X126964761Y-124907142D01*
X127012380Y-124954761D01*
X127107619Y-125002380D01*
X127298095Y-125002380D01*
X127393333Y-124954761D01*
X127440952Y-124907142D01*
X127488571Y-124811904D01*
X127488571Y-124002380D01*
X129202857Y-125002380D02*
X128726666Y-125002380D01*
X128726666Y-124002380D01*
X129536190Y-124478571D02*
X129869523Y-124478571D01*
X130012380Y-125002380D02*
X129536190Y-125002380D01*
X129536190Y-124002380D01*
X130012380Y-124002380D01*
X130440952Y-125002380D02*
X130440952Y-124002380D01*
X130679047Y-124002380D01*
X130821904Y-124050000D01*
X130917142Y-124145238D01*
X130964761Y-124240476D01*
X131012380Y-124430952D01*
X131012380Y-124573809D01*
X130964761Y-124764285D01*
X130917142Y-124859523D01*
X130821904Y-124954761D01*
X130679047Y-125002380D01*
X130440952Y-125002380D01*
X132202857Y-125002380D02*
X132202857Y-124002380D01*
X132583809Y-124002380D01*
X132679047Y-124050000D01*
X132726666Y-124097619D01*
X132774285Y-124192857D01*
X132774285Y-124335714D01*
X132726666Y-124430952D01*
X132679047Y-124478571D01*
X132583809Y-124526190D01*
X132202857Y-124526190D01*
X133155238Y-124097619D02*
X133202857Y-124050000D01*
X133298095Y-124002380D01*
X133536190Y-124002380D01*
X133631428Y-124050000D01*
X133679047Y-124097619D01*
X133726666Y-124192857D01*
X133726666Y-124288095D01*
X133679047Y-124430952D01*
X133107619Y-125002380D01*
X133726666Y-125002380D01*
X124908095Y-132230000D02*
X124812857Y-132182380D01*
X124670000Y-132182380D01*
X124527142Y-132230000D01*
X124431904Y-132325238D01*
X124384285Y-132420476D01*
X124336666Y-132610952D01*
X124336666Y-132753809D01*
X124384285Y-132944285D01*
X124431904Y-133039523D01*
X124527142Y-133134761D01*
X124670000Y-133182380D01*
X124765238Y-133182380D01*
X124908095Y-133134761D01*
X124955714Y-133087142D01*
X124955714Y-132753809D01*
X124765238Y-132753809D01*
X125384285Y-133182380D02*
X125384285Y-132182380D01*
X125955714Y-133182380D01*
X125955714Y-132182380D01*
X126431904Y-133182380D02*
X126431904Y-132182380D01*
X126670000Y-132182380D01*
X126812857Y-132230000D01*
X126908095Y-132325238D01*
X126955714Y-132420476D01*
X127003333Y-132610952D01*
X127003333Y-132753809D01*
X126955714Y-132944285D01*
X126908095Y-133039523D01*
X126812857Y-133134761D01*
X126670000Y-133182380D01*
X126431904Y-133182380D01*
X141630952Y-118422380D02*
X141630952Y-117422380D01*
X142011904Y-117422380D01*
X142107142Y-117470000D01*
X142154761Y-117517619D01*
X142202380Y-117612857D01*
X142202380Y-117755714D01*
X142154761Y-117850952D01*
X142107142Y-117898571D01*
X142011904Y-117946190D01*
X141630952Y-117946190D01*
X142630952Y-118422380D02*
X142630952Y-117422380D01*
X143107142Y-117422380D02*
X143107142Y-118231904D01*
X143154761Y-118327142D01*
X143202380Y-118374761D01*
X143297619Y-118422380D01*
X143488095Y-118422380D01*
X143583333Y-118374761D01*
X143630952Y-118327142D01*
X143678571Y-118231904D01*
X143678571Y-117422380D01*
X145392857Y-118422380D02*
X144916666Y-118422380D01*
X144916666Y-117422380D01*
X145726190Y-117898571D02*
X146059523Y-117898571D01*
X146202380Y-118422380D02*
X145726190Y-118422380D01*
X145726190Y-117422380D01*
X146202380Y-117422380D01*
X146630952Y-118422380D02*
X146630952Y-117422380D01*
X146869047Y-117422380D01*
X147011904Y-117470000D01*
X147107142Y-117565238D01*
X147154761Y-117660476D01*
X147202380Y-117850952D01*
X147202380Y-117993809D01*
X147154761Y-118184285D01*
X147107142Y-118279523D01*
X147011904Y-118374761D01*
X146869047Y-118422380D01*
X146630952Y-118422380D01*
X148392857Y-118422380D02*
X148392857Y-117422380D01*
X148773809Y-117422380D01*
X148869047Y-117470000D01*
X148916666Y-117517619D01*
X148964285Y-117612857D01*
X148964285Y-117755714D01*
X148916666Y-117850952D01*
X148869047Y-117898571D01*
X148773809Y-117946190D01*
X148392857Y-117946190D01*
X149916666Y-118422380D02*
X149345238Y-118422380D01*
X149630952Y-118422380D02*
X149630952Y-117422380D01*
X149535714Y-117565238D01*
X149440476Y-117660476D01*
X149345238Y-117708095D01*
X141051904Y-125122380D02*
X141051904Y-124122380D01*
X141432857Y-124122380D01*
X141528095Y-124170000D01*
X141575714Y-124217619D01*
X141623333Y-124312857D01*
X141623333Y-124455714D01*
X141575714Y-124550952D01*
X141528095Y-124598571D01*
X141432857Y-124646190D01*
X141051904Y-124646190D01*
X142051904Y-125122380D02*
X142051904Y-124122380D01*
X142528095Y-124122380D02*
X142528095Y-124931904D01*
X142575714Y-125027142D01*
X142623333Y-125074761D01*
X142718571Y-125122380D01*
X142909047Y-125122380D01*
X143004285Y-125074761D01*
X143051904Y-125027142D01*
X143099523Y-124931904D01*
X143099523Y-124122380D01*
X144337619Y-125122380D02*
X144337619Y-124122380D01*
X144337619Y-124598571D02*
X144909047Y-124598571D01*
X144909047Y-125122380D02*
X144909047Y-124122380D01*
X145337619Y-124836666D02*
X145813809Y-124836666D01*
X145242380Y-125122380D02*
X145575714Y-124122380D01*
X145909047Y-125122380D01*
X146242380Y-125122380D02*
X146242380Y-124122380D01*
X146813809Y-125122380D01*
X146813809Y-124122380D01*
X147290000Y-125122380D02*
X147290000Y-124122380D01*
X147528095Y-124122380D01*
X147670952Y-124170000D01*
X147766190Y-124265238D01*
X147813809Y-124360476D01*
X147861428Y-124550952D01*
X147861428Y-124693809D01*
X147813809Y-124884285D01*
X147766190Y-124979523D01*
X147670952Y-125074761D01*
X147528095Y-125122380D01*
X147290000Y-125122380D01*
X149051904Y-125122380D02*
X149051904Y-124122380D01*
X149432857Y-124122380D01*
X149528095Y-124170000D01*
X149575714Y-124217619D01*
X149623333Y-124312857D01*
X149623333Y-124455714D01*
X149575714Y-124550952D01*
X149528095Y-124598571D01*
X149432857Y-124646190D01*
X149051904Y-124646190D01*
X150004285Y-124217619D02*
X150051904Y-124170000D01*
X150147142Y-124122380D01*
X150385238Y-124122380D01*
X150480476Y-124170000D01*
X150528095Y-124217619D01*
X150575714Y-124312857D01*
X150575714Y-124408095D01*
X150528095Y-124550952D01*
X149956666Y-125122380D01*
X150575714Y-125122380D01*
X162663333Y-88422380D02*
X162663333Y-87422380D01*
X163044285Y-87422380D01*
X163139523Y-87470000D01*
X163187142Y-87517619D01*
X163234761Y-87612857D01*
X163234761Y-87755714D01*
X163187142Y-87850952D01*
X163139523Y-87898571D01*
X163044285Y-87946190D01*
X162663333Y-87946190D01*
X163663333Y-88422380D02*
X163663333Y-87422380D01*
X164139523Y-87422380D02*
X164139523Y-88231904D01*
X164187142Y-88327142D01*
X164234761Y-88374761D01*
X164330000Y-88422380D01*
X164520476Y-88422380D01*
X164615714Y-88374761D01*
X164663333Y-88327142D01*
X164710952Y-88231904D01*
X164710952Y-87422380D01*
X165901428Y-88136666D02*
X166377619Y-88136666D01*
X165806190Y-88422380D02*
X166139523Y-87422380D01*
X166472857Y-88422380D01*
X167139523Y-87898571D02*
X167282380Y-87946190D01*
X167330000Y-87993809D01*
X167377619Y-88089047D01*
X167377619Y-88231904D01*
X167330000Y-88327142D01*
X167282380Y-88374761D01*
X167187142Y-88422380D01*
X166806190Y-88422380D01*
X166806190Y-87422380D01*
X167139523Y-87422380D01*
X167234761Y-87470000D01*
X167282380Y-87517619D01*
X167330000Y-87612857D01*
X167330000Y-87708095D01*
X167282380Y-87803333D01*
X167234761Y-87850952D01*
X167139523Y-87898571D01*
X166806190Y-87898571D01*
X167758571Y-88136666D02*
X168234761Y-88136666D01*
X167663333Y-88422380D02*
X167996666Y-87422380D01*
X168330000Y-88422380D01*
X168949047Y-87422380D02*
X168949047Y-88136666D01*
X168901428Y-88279523D01*
X168806190Y-88374761D01*
X168663333Y-88422380D01*
X168568095Y-88422380D01*
X169615714Y-87422380D02*
X169806190Y-87422380D01*
X169901428Y-87470000D01*
X169996666Y-87565238D01*
X170044285Y-87755714D01*
X170044285Y-88089047D01*
X169996666Y-88279523D01*
X169901428Y-88374761D01*
X169806190Y-88422380D01*
X169615714Y-88422380D01*
X169520476Y-88374761D01*
X169425238Y-88279523D01*
X169377619Y-88089047D01*
X169377619Y-87755714D01*
X169425238Y-87565238D01*
X169520476Y-87470000D01*
X169615714Y-87422380D01*
D11*
X92868571Y-142520000D02*
X92868571Y-143234285D01*
X93582857Y-143305714D01*
X93511428Y-143234285D01*
X93440000Y-143091428D01*
X93440000Y-142734285D01*
X93511428Y-142591428D01*
X93582857Y-142520000D01*
X93725714Y-142448571D01*
X94082857Y-142448571D01*
X94225714Y-142520000D01*
X94297142Y-142591428D01*
X94368571Y-142734285D01*
X94368571Y-143091428D01*
X94297142Y-143234285D01*
X94225714Y-143305714D01*
X93368571Y-141948571D02*
X94368571Y-141591428D01*
X93368571Y-141234285D01*
X94368571Y-139305714D02*
X94297142Y-139448571D01*
X94154285Y-139520000D01*
X92868571Y-139520000D01*
X94297142Y-138162857D02*
X94368571Y-138305714D01*
X94368571Y-138591428D01*
X94297142Y-138734285D01*
X94154285Y-138805714D01*
X93582857Y-138805714D01*
X93440000Y-138734285D01*
X93368571Y-138591428D01*
X93368571Y-138305714D01*
X93440000Y-138162857D01*
X93582857Y-138091428D01*
X93725714Y-138091428D01*
X93868571Y-138805714D01*
X94368571Y-136805714D02*
X92868571Y-136805714D01*
X94297142Y-136805714D02*
X94368571Y-136948571D01*
X94368571Y-137234285D01*
X94297142Y-137377142D01*
X94225714Y-137448571D01*
X94082857Y-137520000D01*
X93654285Y-137520000D01*
X93511428Y-137448571D01*
X93440000Y-137377142D01*
X93368571Y-137234285D01*
X93368571Y-136948571D01*
X93440000Y-136805714D01*
D10*
X161114285Y-111262380D02*
X161114285Y-110262380D01*
X161495238Y-110262380D01*
X161590476Y-110310000D01*
X161638095Y-110357619D01*
X161685714Y-110452857D01*
X161685714Y-110595714D01*
X161638095Y-110690952D01*
X161590476Y-110738571D01*
X161495238Y-110786190D01*
X161114285Y-110786190D01*
X162114285Y-111262380D02*
X162114285Y-110262380D01*
X162590476Y-110262380D02*
X162590476Y-111071904D01*
X162638095Y-111167142D01*
X162685714Y-111214761D01*
X162780952Y-111262380D01*
X162971428Y-111262380D01*
X163066666Y-111214761D01*
X163114285Y-111167142D01*
X163161904Y-111071904D01*
X163161904Y-110262380D01*
X164971428Y-111167142D02*
X164923809Y-111214761D01*
X164780952Y-111262380D01*
X164685714Y-111262380D01*
X164542857Y-111214761D01*
X164447619Y-111119523D01*
X164400000Y-111024285D01*
X164352380Y-110833809D01*
X164352380Y-110690952D01*
X164400000Y-110500476D01*
X164447619Y-110405238D01*
X164542857Y-110310000D01*
X164685714Y-110262380D01*
X164780952Y-110262380D01*
X164923809Y-110310000D01*
X164971428Y-110357619D01*
X165400000Y-110738571D02*
X165733333Y-110738571D01*
X165876190Y-111262380D02*
X165400000Y-111262380D01*
X165400000Y-110262380D01*
X165876190Y-110262380D01*
X166304761Y-111262380D02*
X166304761Y-110262380D01*
X166876190Y-111262380D01*
X166876190Y-110262380D01*
X167209523Y-110262380D02*
X167780952Y-110262380D01*
X167495238Y-111262380D02*
X167495238Y-110262380D01*
X168685714Y-111262380D02*
X168352380Y-110786190D01*
X168114285Y-111262380D02*
X168114285Y-110262380D01*
X168495238Y-110262380D01*
X168590476Y-110310000D01*
X168638095Y-110357619D01*
X168685714Y-110452857D01*
X168685714Y-110595714D01*
X168638095Y-110690952D01*
X168590476Y-110738571D01*
X168495238Y-110786190D01*
X168114285Y-110786190D01*
X169304761Y-110262380D02*
X169495238Y-110262380D01*
X169590476Y-110310000D01*
X169685714Y-110405238D01*
X169733333Y-110595714D01*
X169733333Y-110929047D01*
X169685714Y-111119523D01*
X169590476Y-111214761D01*
X169495238Y-111262380D01*
X169304761Y-111262380D01*
X169209523Y-111214761D01*
X169114285Y-111119523D01*
X169066666Y-110929047D01*
X169066666Y-110595714D01*
X169114285Y-110405238D01*
X169209523Y-110310000D01*
X169304761Y-110262380D01*
X155410000Y-80881904D02*
X155362380Y-80977142D01*
X155362380Y-81120000D01*
X155410000Y-81262857D01*
X155505238Y-81358095D01*
X155600476Y-81405714D01*
X155790952Y-81453333D01*
X155933809Y-81453333D01*
X156124285Y-81405714D01*
X156219523Y-81358095D01*
X156314761Y-81262857D01*
X156362380Y-81120000D01*
X156362380Y-81024761D01*
X156314761Y-80881904D01*
X156267142Y-80834285D01*
X155933809Y-80834285D01*
X155933809Y-81024761D01*
X156362380Y-80405714D02*
X155362380Y-80405714D01*
X156362380Y-79834285D01*
X155362380Y-79834285D01*
X156362380Y-79358095D02*
X155362380Y-79358095D01*
X155362380Y-79120000D01*
X155410000Y-78977142D01*
X155505238Y-78881904D01*
X155600476Y-78834285D01*
X155790952Y-78786666D01*
X155933809Y-78786666D01*
X156124285Y-78834285D01*
X156219523Y-78881904D01*
X156314761Y-78977142D01*
X156362380Y-79120000D01*
X156362380Y-79358095D01*
X161228095Y-131562380D02*
X161228095Y-130562380D01*
X161609047Y-130562380D01*
X161704285Y-130610000D01*
X161751904Y-130657619D01*
X161799523Y-130752857D01*
X161799523Y-130895714D01*
X161751904Y-130990952D01*
X161704285Y-131038571D01*
X161609047Y-131086190D01*
X161228095Y-131086190D01*
X162228095Y-131562380D02*
X162228095Y-130562380D01*
X162704285Y-130562380D02*
X162704285Y-131371904D01*
X162751904Y-131467142D01*
X162799523Y-131514761D01*
X162894761Y-131562380D01*
X163085238Y-131562380D01*
X163180476Y-131514761D01*
X163228095Y-131467142D01*
X163275714Y-131371904D01*
X163275714Y-130562380D01*
X164513809Y-131562380D02*
X164513809Y-130562380D01*
X164751904Y-130562380D01*
X164894761Y-130610000D01*
X164990000Y-130705238D01*
X165037619Y-130800476D01*
X165085238Y-130990952D01*
X165085238Y-131133809D01*
X165037619Y-131324285D01*
X164990000Y-131419523D01*
X164894761Y-131514761D01*
X164751904Y-131562380D01*
X164513809Y-131562380D01*
X165513809Y-131038571D02*
X165847142Y-131038571D01*
X165990000Y-131562380D02*
X165513809Y-131562380D01*
X165513809Y-130562380D01*
X165990000Y-130562380D01*
X166990000Y-131562380D02*
X166656666Y-131086190D01*
X166418571Y-131562380D02*
X166418571Y-130562380D01*
X166799523Y-130562380D01*
X166894761Y-130610000D01*
X166942380Y-130657619D01*
X166990000Y-130752857D01*
X166990000Y-130895714D01*
X166942380Y-130990952D01*
X166894761Y-131038571D01*
X166799523Y-131086190D01*
X166418571Y-131086190D01*
X167418571Y-131038571D02*
X167751904Y-131038571D01*
X167894761Y-131562380D02*
X167418571Y-131562380D01*
X167418571Y-130562380D01*
X167894761Y-130562380D01*
X168894761Y-131467142D02*
X168847142Y-131514761D01*
X168704285Y-131562380D01*
X168609047Y-131562380D01*
X168466190Y-131514761D01*
X168370952Y-131419523D01*
X168323333Y-131324285D01*
X168275714Y-131133809D01*
X168275714Y-130990952D01*
X168323333Y-130800476D01*
X168370952Y-130705238D01*
X168466190Y-130610000D01*
X168609047Y-130562380D01*
X168704285Y-130562380D01*
X168847142Y-130610000D01*
X168894761Y-130657619D01*
X169323333Y-131562380D02*
X169323333Y-130562380D01*
X169323333Y-131038571D02*
X169894761Y-131038571D01*
X169894761Y-131562380D02*
X169894761Y-130562380D01*
X170323333Y-131276666D02*
X170799523Y-131276666D01*
X170228095Y-131562380D02*
X170561428Y-130562380D01*
X170894761Y-131562380D01*
D12*
X109036800Y-85977258D02*
X109036800Y-85502742D01*
X110081800Y-85977258D02*
X110081800Y-85502742D01*
X100652500Y-132812742D02*
X100652500Y-133287258D01*
X99607500Y-132812742D02*
X99607500Y-133287258D01*
D10*
X147740000Y-133480000D02*
X150780000Y-133480000D01*
X147740000Y-143540000D02*
X147740000Y-133480000D01*
X150780000Y-133480000D02*
X150780000Y-143540000D01*
X150780000Y-143540000D02*
X147740000Y-143540000D01*
D11*
X146740000Y-133300000D02*
G75*
G03*
X146740000Y-133300000I-150000J0D01*
G01*
X148640000Y-134060000D02*
G75*
G03*
X148640000Y-134060000I-150000J0D01*
G01*
D12*
X117662742Y-129457500D02*
X118137258Y-129457500D01*
X117662742Y-130502500D02*
X118137258Y-130502500D01*
X122213300Y-85977258D02*
X122213300Y-85502742D01*
X121168300Y-85977258D02*
X121168300Y-85502742D01*
X173070000Y-83620000D02*
X174400000Y-83620000D01*
X171800000Y-83620000D02*
X156500000Y-83620000D01*
X171800000Y-86280000D02*
X156500000Y-86280000D01*
X171800000Y-83620000D02*
X171800000Y-86280000D01*
X156500000Y-83620000D02*
X156500000Y-86280000D01*
X174400000Y-83620000D02*
X174400000Y-84950000D01*
X121488400Y-90829420D02*
X121488400Y-91110580D01*
X120468400Y-90829420D02*
X120468400Y-91110580D01*
X162462500Y-92067258D02*
X162462500Y-91592742D01*
X161417500Y-92067258D02*
X161417500Y-91592742D01*
X102586500Y-90829420D02*
X102586500Y-91110580D01*
X101566500Y-90829420D02*
X101566500Y-91110580D01*
X164420900Y-80782742D02*
X164420900Y-81257258D01*
X165465900Y-80782742D02*
X165465900Y-81257258D01*
X168550800Y-114767258D02*
X168550800Y-114292742D01*
X169595800Y-114767258D02*
X169595800Y-114292742D01*
X118338100Y-90829420D02*
X118338100Y-91110580D01*
X117318100Y-90829420D02*
X117318100Y-91110580D01*
X166357500Y-92067258D02*
X166357500Y-91592742D01*
X167402500Y-92067258D02*
X167402500Y-91592742D01*
D10*
X133887500Y-106422500D02*
X133887500Y-96362500D01*
X136927500Y-96362500D02*
X136927500Y-106422500D01*
X133887500Y-96362500D02*
X136927500Y-96362500D01*
X136927500Y-106422500D02*
X133887500Y-106422500D01*
D11*
X138227500Y-106602500D02*
G75*
G03*
X138227500Y-106602500I-150000J0D01*
G01*
X136327500Y-105842500D02*
G75*
G03*
X136327500Y-105842500I-150000J0D01*
G01*
D12*
X113586100Y-85977258D02*
X113586100Y-85502742D01*
X114631100Y-85977258D02*
X114631100Y-85502742D01*
X105532500Y-85977258D02*
X105532500Y-85502742D01*
X104487500Y-85977258D02*
X104487500Y-85502742D01*
X119825000Y-133021252D02*
X119825000Y-132498748D01*
X118355000Y-133021252D02*
X118355000Y-132498748D01*
D10*
X136622500Y-133497500D02*
X139662500Y-133497500D01*
X139662500Y-133497500D02*
X139662500Y-143557500D01*
X136622500Y-143557500D02*
X136622500Y-133497500D01*
X139662500Y-143557500D02*
X136622500Y-143557500D01*
D11*
X137522500Y-134077500D02*
G75*
G03*
X137522500Y-134077500I-150000J0D01*
G01*
X135622500Y-133317500D02*
G75*
G03*
X135622500Y-133317500I-150000J0D01*
G01*
D12*
X154790242Y-134175000D02*
X155264758Y-134175000D01*
X154790242Y-135220000D02*
X155264758Y-135220000D01*
X166942500Y-114767258D02*
X166942500Y-114292742D01*
X165897500Y-114767258D02*
X165897500Y-114292742D01*
X142520700Y-90829420D02*
X142520700Y-91110580D01*
X143540700Y-90829420D02*
X143540700Y-91110580D01*
X118893300Y-90829420D02*
X118893300Y-91110580D01*
X119913300Y-90829420D02*
X119913300Y-91110580D01*
X156490000Y-129540000D02*
X156490000Y-128210000D01*
X157820000Y-129540000D02*
X156490000Y-129540000D01*
X159090000Y-129540000D02*
X159090000Y-126880000D01*
X174390000Y-129540000D02*
X174390000Y-126880000D01*
X159090000Y-129540000D02*
X174390000Y-129540000D01*
X159090000Y-126880000D02*
X174390000Y-126880000D01*
X163334200Y-103382258D02*
X163334200Y-102907742D01*
X164379200Y-103382258D02*
X164379200Y-102907742D01*
X173070000Y-117050000D02*
X174400000Y-117050000D01*
X174400000Y-117050000D02*
X174400000Y-118380000D01*
X171800000Y-117050000D02*
X171800000Y-119710000D01*
X171800000Y-117050000D02*
X156500000Y-117050000D01*
X171800000Y-119710000D02*
X156500000Y-119710000D01*
X156500000Y-117050000D02*
X156500000Y-119710000D01*
X144177500Y-85817258D02*
X144177500Y-85342742D01*
X145222500Y-85817258D02*
X145222500Y-85342742D01*
X112775000Y-133021252D02*
X112775000Y-132498748D01*
X111305000Y-133021252D02*
X111305000Y-132498748D01*
X146782500Y-85332742D02*
X146782500Y-85807258D01*
X145737500Y-85332742D02*
X145737500Y-85807258D01*
X140945500Y-90829420D02*
X140945500Y-91110580D01*
X141965500Y-90829420D02*
X141965500Y-91110580D01*
X161882500Y-124117742D02*
X161882500Y-124592258D01*
X160837500Y-124117742D02*
X160837500Y-124592258D01*
X107867100Y-90829420D02*
X107867100Y-91110580D01*
X108887100Y-90829420D02*
X108887100Y-91110580D01*
X125246200Y-85977258D02*
X125246200Y-85502742D01*
X124201200Y-85977258D02*
X124201200Y-85502742D01*
X88640000Y-106020000D02*
X88640000Y-98340000D01*
X85980000Y-106020000D02*
X85980000Y-98340000D01*
X88640000Y-108620000D02*
X87310000Y-108620000D01*
X88640000Y-98340000D02*
X85980000Y-98340000D01*
X88640000Y-107290000D02*
X88640000Y-108620000D01*
X88640000Y-106020000D02*
X85980000Y-106020000D01*
D13*
X86520000Y-125100000D02*
X86520000Y-127390000D01*
X86520000Y-122820000D02*
X88670000Y-122820000D01*
X91400000Y-114880000D02*
X86520000Y-114880000D01*
X88670000Y-117740000D02*
X88670000Y-120280000D01*
X88670000Y-125100000D02*
X86520000Y-125100000D01*
X91400000Y-112850000D02*
X86520000Y-112850000D01*
X110050000Y-129150000D02*
X110900000Y-129150000D01*
X86520000Y-114880000D02*
X86520000Y-117740000D01*
X88670000Y-122820000D02*
X88670000Y-125100000D01*
X92180000Y-111130000D02*
X85370000Y-111130000D01*
X85360000Y-129150000D02*
X92180000Y-129150000D01*
X110900000Y-112480000D02*
X110900000Y-111130000D01*
X110900000Y-111130000D02*
X110050000Y-111130000D01*
X86520000Y-127390000D02*
X90200000Y-127390000D01*
X91400000Y-129150000D02*
X91400000Y-111130000D01*
X85360000Y-111150000D02*
X85360000Y-129150000D01*
X86520000Y-117740000D02*
X88670000Y-117740000D01*
X86520000Y-120280000D02*
X86520000Y-122820000D01*
X88670000Y-120280000D02*
X86520000Y-120280000D01*
X110900000Y-129150000D02*
X110900000Y-127820000D01*
X86520000Y-112850000D02*
X86520000Y-115090000D01*
D12*
X121575000Y-143610000D02*
X121575000Y-139700000D01*
X119705000Y-139700000D02*
X119705000Y-143610000D01*
X119705000Y-143610000D02*
X121575000Y-143610000D01*
D13*
X100210000Y-101780000D02*
X100210000Y-104340000D01*
X103660000Y-104860000D02*
X101860000Y-104860000D01*
X103760000Y-101260000D02*
X104560000Y-102060000D01*
X105310000Y-101780000D02*
X105310000Y-104340000D01*
X101100000Y-100890000D02*
X100210000Y-101780000D01*
X104560000Y-102060000D02*
X104560000Y-103960000D01*
X100860000Y-102160000D02*
X101760000Y-101260000D01*
X105310000Y-101780000D02*
X104420000Y-100890000D01*
X103930000Y-105610000D02*
X101590000Y-105610000D01*
X101760000Y-101260000D02*
X103760000Y-101260000D01*
X104560000Y-103960000D02*
X103660000Y-104860000D01*
X101100000Y-105230000D02*
X100210000Y-104340000D01*
X105310000Y-104340000D02*
X104420000Y-105230000D01*
X100860000Y-103860000D02*
X100860000Y-102160000D01*
X103930000Y-100510000D02*
X101590000Y-100510000D01*
X101860000Y-104860000D02*
X100860000Y-103860000D01*
X104040000Y-103060000D02*
G75*
G03*
X104040000Y-103060000I-1280000J0D01*
G01*
D12*
X160827500Y-103382258D02*
X160827500Y-102907742D01*
X161872500Y-103382258D02*
X161872500Y-102907742D01*
X120696900Y-85977258D02*
X120696900Y-85502742D01*
X119651900Y-85977258D02*
X119651900Y-85502742D01*
X150815200Y-91145580D02*
X150815200Y-90864420D01*
X151835200Y-91145580D02*
X151835200Y-90864420D01*
X117385000Y-133021252D02*
X117385000Y-132498748D01*
X115915000Y-133021252D02*
X115915000Y-132498748D01*
X104016100Y-85977258D02*
X104016100Y-85502742D01*
X102971100Y-85977258D02*
X102971100Y-85502742D01*
X125193900Y-90829420D02*
X125193900Y-91110580D01*
X126213900Y-90829420D02*
X126213900Y-91110580D01*
X111598300Y-85977258D02*
X111598300Y-85502742D01*
X110553300Y-85977258D02*
X110553300Y-85502742D01*
X154790242Y-135895000D02*
X155264758Y-135895000D01*
X154790242Y-136940000D02*
X155264758Y-136940000D01*
X139080000Y-122120000D02*
X139080000Y-120790000D01*
X140410000Y-122120000D02*
X139080000Y-122120000D01*
X151900000Y-122120000D02*
X151900000Y-119460000D01*
X141680000Y-122120000D02*
X151900000Y-122120000D01*
X141680000Y-119460000D02*
X151900000Y-119460000D01*
X141680000Y-122120000D02*
X141680000Y-119460000D01*
D10*
X146537500Y-106302500D02*
X143497500Y-106302500D01*
X143497500Y-106302500D02*
X143497500Y-96242500D01*
X146537500Y-96242500D02*
X146537500Y-106302500D01*
X143497500Y-96242500D02*
X146537500Y-96242500D01*
D11*
X147837500Y-106482500D02*
G75*
G03*
X147837500Y-106482500I-150000J0D01*
G01*
X145937500Y-105722500D02*
G75*
G03*
X145937500Y-105722500I-150000J0D01*
G01*
D12*
X167562500Y-81257258D02*
X167562500Y-80782742D01*
X166517500Y-81257258D02*
X166517500Y-80782742D01*
X141855000Y-126010000D02*
X152075000Y-126010000D01*
X139255000Y-128670000D02*
X139255000Y-127340000D01*
X141855000Y-128670000D02*
X152075000Y-128670000D01*
X152075000Y-128670000D02*
X152075000Y-126010000D01*
X141855000Y-128670000D02*
X141855000Y-126010000D01*
X140585000Y-128670000D02*
X139255000Y-128670000D01*
X132514600Y-90829420D02*
X132514600Y-91110580D01*
X131494600Y-90829420D02*
X131494600Y-91110580D01*
X168827500Y-92067258D02*
X168827500Y-91592742D01*
X169872500Y-92067258D02*
X169872500Y-91592742D01*
X148684900Y-91145580D02*
X148684900Y-90864420D01*
X147664900Y-91145580D02*
X147664900Y-90864420D01*
X137240000Y-90829420D02*
X137240000Y-91110580D01*
X136220000Y-90829420D02*
X136220000Y-91110580D01*
X154790242Y-138630000D02*
X155264758Y-138630000D01*
X154790242Y-137585000D02*
X155264758Y-137585000D01*
X147287500Y-85787258D02*
X147287500Y-85312742D01*
X148332500Y-85787258D02*
X148332500Y-85312742D01*
D13*
X133410000Y-133800000D02*
X123280000Y-133800000D01*
X122650000Y-143190000D02*
X123250000Y-142940000D01*
X122650000Y-135690000D02*
X123250000Y-135440000D01*
X133410000Y-143960000D02*
X133410000Y-133800000D01*
X123250000Y-134940000D02*
X122650000Y-134690000D01*
X123250000Y-142440000D02*
X122650000Y-142190000D01*
X133410000Y-143960000D02*
X123280000Y-143960000D01*
X122650000Y-142190000D02*
X122650000Y-143190000D01*
X122650000Y-134690000D02*
X122650000Y-135690000D01*
X123250000Y-143960000D02*
X123250000Y-133800000D01*
D12*
X107312000Y-90829420D02*
X107312000Y-91110580D01*
X106292000Y-90829420D02*
X106292000Y-91110580D01*
X102817500Y-133287258D02*
X102817500Y-132812742D01*
X103862500Y-133287258D02*
X103862500Y-132812742D01*
X126120000Y-128590000D02*
X126120000Y-125930000D01*
X124850000Y-128590000D02*
X123520000Y-128590000D01*
X126120000Y-128590000D02*
X136340000Y-128590000D01*
X136340000Y-128590000D02*
X136340000Y-125930000D01*
X123520000Y-128590000D02*
X123520000Y-127260000D01*
X126120000Y-125930000D02*
X136340000Y-125930000D01*
X111805000Y-143522500D02*
X111805000Y-139612500D01*
X109935000Y-139612500D02*
X109935000Y-143522500D01*
X109935000Y-143522500D02*
X111805000Y-143522500D01*
X92987742Y-131802500D02*
X93462258Y-131802500D01*
X92987742Y-130757500D02*
X93462258Y-130757500D01*
X101212500Y-132812742D02*
X101212500Y-133287258D01*
X102257500Y-132812742D02*
X102257500Y-133287258D01*
X142597500Y-85912258D02*
X142597500Y-85437742D01*
X143642500Y-85912258D02*
X143642500Y-85437742D01*
X113612600Y-90829420D02*
X113612600Y-91110580D01*
X112592600Y-90829420D02*
X112592600Y-91110580D01*
X109442300Y-90829420D02*
X109442300Y-91110580D01*
X110462300Y-90829420D02*
X110462300Y-91110580D01*
X97070000Y-140290000D02*
X97070000Y-143090000D01*
X95070000Y-140290000D02*
X97070000Y-140290000D01*
X97070000Y-143090000D02*
X95070000Y-143090000D01*
X95070000Y-143090000D02*
X95070000Y-140290000D01*
X163244100Y-114767258D02*
X163244100Y-114292742D01*
X164289100Y-114767258D02*
X164289100Y-114292742D01*
X146010000Y-91140580D02*
X146010000Y-90859420D01*
X147030000Y-91140580D02*
X147030000Y-90859420D01*
X143550242Y-134840000D02*
X144024758Y-134840000D01*
X143550242Y-133795000D02*
X144024758Y-133795000D01*
X168614200Y-81257258D02*
X168614200Y-80782742D01*
X169659200Y-81257258D02*
X169659200Y-80782742D01*
X166885800Y-103382258D02*
X166885800Y-102907742D01*
X165840800Y-103382258D02*
X165840800Y-102907742D01*
X141047500Y-85917258D02*
X141047500Y-85442742D01*
X142092500Y-85917258D02*
X142092500Y-85442742D01*
X138815200Y-90829420D02*
X138815200Y-91110580D01*
X137795200Y-90829420D02*
X137795200Y-91110580D01*
X164662500Y-124117742D02*
X164662500Y-124592258D01*
X163617500Y-124117742D02*
X163617500Y-124592258D01*
X143550242Y-139900000D02*
X144024758Y-139900000D01*
X143550242Y-138855000D02*
X144024758Y-138855000D01*
X128344200Y-90829420D02*
X128344200Y-91110580D01*
X129364200Y-90829420D02*
X129364200Y-91110580D01*
X115435000Y-128920000D02*
X112750000Y-128920000D01*
X112750000Y-130840000D02*
X115435000Y-130840000D01*
X115435000Y-130840000D02*
X115435000Y-128920000D01*
X128279100Y-85977258D02*
X128279100Y-85502742D01*
X127234100Y-85977258D02*
X127234100Y-85502742D01*
X104716800Y-90829420D02*
X104716800Y-91110580D01*
X105736800Y-90829420D02*
X105736800Y-91110580D01*
X122043600Y-90829420D02*
X122043600Y-91110580D01*
X123063600Y-90829420D02*
X123063600Y-91110580D01*
X149240000Y-91145580D02*
X149240000Y-90864420D01*
X150260000Y-91145580D02*
X150260000Y-90864420D01*
X129919400Y-90829420D02*
X129919400Y-91110580D01*
X130939400Y-90829420D02*
X130939400Y-91110580D01*
X174400000Y-94600000D02*
X174400000Y-95930000D01*
X171800000Y-94600000D02*
X156500000Y-94600000D01*
X173070000Y-94600000D02*
X174400000Y-94600000D01*
X171800000Y-97260000D02*
X156500000Y-97260000D01*
X156500000Y-94600000D02*
X156500000Y-97260000D01*
X171800000Y-94600000D02*
X171800000Y-97260000D01*
X119180500Y-85977258D02*
X119180500Y-85502742D01*
X118135500Y-85977258D02*
X118135500Y-85502742D01*
X169722500Y-124592258D02*
X169722500Y-124117742D01*
X168677500Y-124592258D02*
X168677500Y-124117742D01*
X111017500Y-90829420D02*
X111017500Y-91110580D01*
X112037500Y-90829420D02*
X112037500Y-91110580D01*
D10*
X124797500Y-106662500D02*
X124797500Y-96602500D01*
X127837500Y-106662500D02*
X124797500Y-106662500D01*
X127837500Y-96602500D02*
X127837500Y-106662500D01*
X124797500Y-96602500D02*
X127837500Y-96602500D01*
D11*
X125697500Y-97182500D02*
G75*
G03*
X125697500Y-97182500I-150000J0D01*
G01*
X123797500Y-96422500D02*
G75*
G03*
X123797500Y-96422500I-150000J0D01*
G01*
D12*
X163369200Y-81257258D02*
X163369200Y-80782742D01*
X162324200Y-81257258D02*
X162324200Y-80782742D01*
X161635800Y-114767258D02*
X161635800Y-114292742D01*
X160590800Y-114767258D02*
X160590800Y-114292742D01*
X104422500Y-133287258D02*
X104422500Y-132812742D01*
X105467500Y-133287258D02*
X105467500Y-132812742D01*
X126450000Y-119550000D02*
X136670000Y-119550000D01*
X125180000Y-122210000D02*
X123850000Y-122210000D01*
X136670000Y-122210000D02*
X136670000Y-119550000D01*
X126450000Y-122210000D02*
X136670000Y-122210000D01*
X123850000Y-122210000D02*
X123850000Y-120880000D01*
X126450000Y-122210000D02*
X126450000Y-119550000D01*
X144095800Y-90829420D02*
X144095800Y-91110580D01*
X145115800Y-90829420D02*
X145115800Y-91110580D01*
X113635000Y-133021252D02*
X113635000Y-132498748D01*
X115105000Y-133021252D02*
X115105000Y-132498748D01*
X110012742Y-109102500D02*
X110487258Y-109102500D01*
X110012742Y-108057500D02*
X110487258Y-108057500D01*
X148847500Y-85812258D02*
X148847500Y-85337742D01*
X149892500Y-85812258D02*
X149892500Y-85337742D01*
X125717600Y-85977258D02*
X125717600Y-85502742D01*
X126762600Y-85977258D02*
X126762600Y-85502742D01*
X119190000Y-137430000D02*
X117930000Y-137430000D01*
X112370000Y-137430000D02*
X113630000Y-137430000D01*
X112370000Y-143440000D02*
X112370000Y-137430000D01*
X119190000Y-141190000D02*
X119190000Y-137430000D01*
X103141700Y-90829420D02*
X103141700Y-91110580D01*
X104161700Y-90829420D02*
X104161700Y-91110580D01*
X107048900Y-85977258D02*
X107048900Y-85502742D01*
X106003900Y-85977258D02*
X106003900Y-85502742D01*
X108565400Y-85977258D02*
X108565400Y-85502742D01*
X107520400Y-85977258D02*
X107520400Y-85502742D01*
X122684800Y-85977258D02*
X122684800Y-85502742D01*
X123729800Y-85977258D02*
X123729800Y-85502742D01*
X134089700Y-90829420D02*
X134089700Y-91110580D01*
X133069700Y-90829420D02*
X133069700Y-91110580D01*
X102499600Y-85977258D02*
X102499600Y-85502742D01*
X101454600Y-85977258D02*
X101454600Y-85502742D01*
X115187800Y-90829420D02*
X115187800Y-91110580D01*
X114167800Y-90829420D02*
X114167800Y-91110580D01*
X174400000Y-106570000D02*
X174400000Y-107900000D01*
X171800000Y-109230000D02*
X156500000Y-109230000D01*
X173070000Y-106570000D02*
X174400000Y-106570000D01*
X156500000Y-106570000D02*
X156500000Y-109230000D01*
X171800000Y-106570000D02*
X156500000Y-106570000D01*
X171800000Y-106570000D02*
X171800000Y-109230000D01*
X117664000Y-85977258D02*
X117664000Y-85502742D01*
X116619000Y-85977258D02*
X116619000Y-85502742D01*
X154790242Y-141075000D02*
X155264758Y-141075000D01*
X154790242Y-142120000D02*
X155264758Y-142120000D01*
X135664900Y-90829420D02*
X135664900Y-91110580D01*
X134644900Y-90829420D02*
X134644900Y-91110580D01*
X112069700Y-85977258D02*
X112069700Y-85502742D01*
X113114700Y-85977258D02*
X113114700Y-85502742D01*
X123618800Y-90829420D02*
X123618800Y-91110580D01*
X124638800Y-90829420D02*
X124638800Y-91110580D01*
X106027500Y-133287258D02*
X106027500Y-132812742D01*
X107072500Y-133287258D02*
X107072500Y-132812742D01*
X167142500Y-124117742D02*
X167142500Y-124592258D01*
X166097500Y-124117742D02*
X166097500Y-124592258D01*
X126769100Y-90829420D02*
X126769100Y-91110580D01*
X127789100Y-90829420D02*
X127789100Y-91110580D01*
D13*
X94810000Y-101260000D02*
X95810000Y-102260000D01*
X92910000Y-104860000D02*
X92110000Y-104060000D01*
X92110000Y-102160000D02*
X93010000Y-101260000D01*
X92110000Y-104060000D02*
X92110000Y-102160000D01*
X95570000Y-100890000D02*
X96460000Y-101780000D01*
X92740000Y-100510000D02*
X95080000Y-100510000D01*
X95570000Y-105230000D02*
X96460000Y-104340000D01*
X96460000Y-104340000D02*
X96460000Y-101780000D01*
X91360000Y-104340000D02*
X92250000Y-105230000D01*
X94910000Y-104860000D02*
X92910000Y-104860000D01*
X91360000Y-101780000D02*
X92250000Y-100890000D01*
X95810000Y-102260000D02*
X95810000Y-103960000D01*
X92740000Y-105610000D02*
X95080000Y-105610000D01*
X95810000Y-103960000D02*
X94910000Y-104860000D01*
X91360000Y-104340000D02*
X91360000Y-101780000D01*
X93010000Y-101260000D02*
X94810000Y-101260000D01*
X95190000Y-103060000D02*
G75*
G03*
X95190000Y-103060000I-1280000J0D01*
G01*
D12*
X139370400Y-90829420D02*
X139370400Y-91110580D01*
X140390400Y-90829420D02*
X140390400Y-91110580D01*
X135952500Y-85987258D02*
X135952500Y-85512742D01*
X134907500Y-85987258D02*
X134907500Y-85512742D01*
X128750500Y-85977258D02*
X128750500Y-85502742D01*
X129795500Y-85977258D02*
X129795500Y-85502742D01*
X136447500Y-85977258D02*
X136447500Y-85502742D01*
X137492500Y-85977258D02*
X137492500Y-85502742D01*
X108895000Y-74805000D02*
X106295000Y-74805000D01*
X108895000Y-77405000D02*
X157215000Y-77405000D01*
X108895000Y-77405000D02*
X108895000Y-74805000D01*
X106295000Y-77405000D02*
X106295000Y-76075000D01*
X107625000Y-77405000D02*
X106295000Y-77405000D01*
X106295000Y-74805000D02*
X106295000Y-72205000D01*
X106295000Y-72205000D02*
X157215000Y-72205000D01*
X157215000Y-77405000D02*
X157215000Y-72205000D01*
X116762900Y-90829420D02*
X116762900Y-91110580D01*
X115742900Y-90829420D02*
X115742900Y-91110580D01*
X140542500Y-85947258D02*
X140542500Y-85472742D01*
X139497500Y-85947258D02*
X139497500Y-85472742D01*
X131783400Y-85977258D02*
X131783400Y-85502742D01*
X132828400Y-85977258D02*
X132828400Y-85502742D01*
X143550242Y-141650000D02*
X144024758Y-141650000D01*
X143550242Y-140605000D02*
X144024758Y-140605000D01*
X143550242Y-135455000D02*
X144024758Y-135455000D01*
X143550242Y-136500000D02*
X144024758Y-136500000D01*
X130267000Y-85977258D02*
X130267000Y-85502742D01*
X131312000Y-85977258D02*
X131312000Y-85502742D01*
D13*
X99200000Y-143897500D02*
X99200000Y-142417500D01*
X108140000Y-143897500D02*
X99200000Y-143897500D01*
X108140000Y-140177500D02*
X108140000Y-138317500D01*
X108140000Y-143897500D02*
X108140000Y-142417500D01*
X99200000Y-140177500D02*
X99200000Y-138317500D01*
D12*
X169392500Y-103382258D02*
X169392500Y-102907742D01*
X168347500Y-103382258D02*
X168347500Y-102907742D01*
X143550242Y-138150000D02*
X144024758Y-138150000D01*
X143550242Y-137105000D02*
X144024758Y-137105000D01*
D10*
X113960000Y-96750000D02*
X117000000Y-96750000D01*
X113960000Y-106810000D02*
X113960000Y-96750000D01*
X117000000Y-96750000D02*
X117000000Y-106810000D01*
X117000000Y-106810000D02*
X113960000Y-106810000D01*
D11*
X118300000Y-106990000D02*
G75*
G03*
X118300000Y-106990000I-150000J0D01*
G01*
X116400000Y-106230000D02*
G75*
G03*
X116400000Y-106230000I-150000J0D01*
G01*
D12*
X154790242Y-140340000D02*
X155264758Y-140340000D01*
X154790242Y-139295000D02*
X155264758Y-139295000D01*
X163887500Y-92067258D02*
X163887500Y-91592742D01*
X164932500Y-92067258D02*
X164932500Y-91592742D01*
X133337500Y-85967258D02*
X133337500Y-85492742D01*
X134382500Y-85967258D02*
X134382500Y-85492742D01*
X116147600Y-85977258D02*
X116147600Y-85502742D01*
X115102600Y-85977258D02*
X115102600Y-85502742D01*
X137977500Y-85977258D02*
X137977500Y-85502742D01*
X139022500Y-85977258D02*
X139022500Y-85502742D01*
%LPC*%
D14*
X109559300Y-86565000D03*
X109559300Y-84915000D03*
D15*
X100130000Y-132225000D03*
X100130000Y-133875000D03*
D16*
X171910000Y-74070000D03*
D17*
X146520000Y-134060000D03*
X146520000Y-135330000D03*
X146520000Y-136600000D03*
X146520000Y-137880000D03*
X146520000Y-139140000D03*
X146520000Y-140410000D03*
X146520000Y-141680000D03*
X146520000Y-142950000D03*
X152000000Y-142950000D03*
X152000000Y-141680000D03*
X152000000Y-140410000D03*
X152000000Y-139140000D03*
X152000000Y-137880000D03*
X152000000Y-136600000D03*
X152000000Y-135330000D03*
X152000000Y-134060000D03*
D18*
X117075000Y-129980000D03*
X118725000Y-129980000D03*
D14*
X121690800Y-86565000D03*
X121690800Y-84915000D03*
D19*
X173070000Y-84950000D03*
D20*
X170530000Y-84950000D03*
X167990000Y-84950000D03*
X165450000Y-84950000D03*
X162910000Y-84950000D03*
X160370000Y-84950000D03*
X157830000Y-84950000D03*
D21*
X120978400Y-90195000D03*
X120978400Y-91745000D03*
D14*
X161940000Y-92655000D03*
X161940000Y-91005000D03*
D21*
X102076500Y-90195000D03*
X102076500Y-91745000D03*
D15*
X164943400Y-80195000D03*
X164943400Y-81845000D03*
D14*
X169073300Y-115355000D03*
X169073300Y-113705000D03*
D21*
X117828100Y-90195000D03*
X117828100Y-91745000D03*
D14*
X166880000Y-92655000D03*
X166880000Y-91005000D03*
D17*
X138147500Y-105842500D03*
X138147500Y-104572500D03*
X138147500Y-103302500D03*
X138147500Y-102022500D03*
X138147500Y-100762500D03*
X138147500Y-99492500D03*
X138147500Y-98222500D03*
X138147500Y-96952500D03*
X132667500Y-96952500D03*
X132667500Y-98222500D03*
X132667500Y-99492500D03*
X132667500Y-100762500D03*
X132667500Y-102022500D03*
X132667500Y-103302500D03*
X132667500Y-104572500D03*
X132667500Y-105842500D03*
D14*
X114108600Y-86565000D03*
X114108600Y-84915000D03*
X105010000Y-86565000D03*
X105010000Y-84915000D03*
D22*
X119090000Y-133710000D03*
X119090000Y-131810000D03*
D17*
X135402500Y-134077500D03*
X135402500Y-135347500D03*
X135402500Y-136617500D03*
X135402500Y-137897500D03*
X135402500Y-139157500D03*
X135402500Y-140427500D03*
X135402500Y-141697500D03*
X135402500Y-142967500D03*
X140882500Y-142967500D03*
X140882500Y-141697500D03*
X140882500Y-140427500D03*
X140882500Y-139157500D03*
X140882500Y-137897500D03*
X140882500Y-136617500D03*
X140882500Y-135347500D03*
X140882500Y-134077500D03*
D18*
X154202500Y-134697500D03*
X155852500Y-134697500D03*
D14*
X166420000Y-115355000D03*
X166420000Y-113705000D03*
D21*
X143030700Y-90195000D03*
X143030700Y-91745000D03*
X119403300Y-90195000D03*
X119403300Y-91745000D03*
D19*
X157820000Y-128210000D03*
D20*
X160360000Y-128210000D03*
X162900000Y-128210000D03*
X165440000Y-128210000D03*
X167980000Y-128210000D03*
X170520000Y-128210000D03*
X173060000Y-128210000D03*
D14*
X163856700Y-103970000D03*
X163856700Y-102320000D03*
D19*
X173070000Y-118380000D03*
D20*
X170530000Y-118380000D03*
X167990000Y-118380000D03*
X165450000Y-118380000D03*
X162910000Y-118380000D03*
X160370000Y-118380000D03*
X157830000Y-118380000D03*
D14*
X144700000Y-86405000D03*
X144700000Y-84755000D03*
D22*
X112040000Y-133710000D03*
X112040000Y-131810000D03*
D15*
X146260000Y-84745000D03*
X146260000Y-86395000D03*
D16*
X89120000Y-74070000D03*
D21*
X141455500Y-90195000D03*
X141455500Y-91745000D03*
D15*
X161360000Y-123530000D03*
X161360000Y-125180000D03*
D21*
X108377100Y-90195000D03*
X108377100Y-91745000D03*
D14*
X124723700Y-86565000D03*
X124723700Y-84915000D03*
D19*
X87310000Y-107290000D03*
D20*
X87310000Y-104750000D03*
X87310000Y-102210000D03*
X87310000Y-99670000D03*
D23*
X92860000Y-128900000D03*
X94130000Y-128900000D03*
X95400000Y-128900000D03*
X96670000Y-128900000D03*
X97940000Y-128900000D03*
X99210000Y-128900000D03*
X100480000Y-128900000D03*
X101750000Y-128900000D03*
X103020000Y-128900000D03*
X104290000Y-128900000D03*
X105560000Y-128900000D03*
X106830000Y-128900000D03*
X108100000Y-128900000D03*
X109370000Y-128900000D03*
D24*
X110640000Y-127140000D03*
X110640000Y-125870000D03*
X110640000Y-124600000D03*
X110640000Y-123330000D03*
X110640000Y-122060000D03*
X110640000Y-120780000D03*
X110640000Y-119520000D03*
X110640000Y-118250000D03*
X110640000Y-116980000D03*
X110640000Y-115700000D03*
X110640000Y-114430000D03*
X110610000Y-113160000D03*
D23*
X109370000Y-111400000D03*
X108100000Y-111400000D03*
X106830000Y-111400000D03*
X105560000Y-111400000D03*
X104290000Y-111400000D03*
X103020000Y-111400000D03*
X101750000Y-111400000D03*
X100480000Y-111400000D03*
X99210000Y-111400000D03*
X97940000Y-111400000D03*
X96670000Y-111400000D03*
X95400000Y-111400000D03*
X94130000Y-111400000D03*
X92860000Y-111400000D03*
D25*
X101980000Y-123050000D03*
X99180000Y-121650000D03*
X100580000Y-121650000D03*
X100580000Y-123050000D03*
X99180000Y-120250000D03*
X101980000Y-121650000D03*
X101980000Y-120250000D03*
X99180000Y-123050000D03*
X100580000Y-120250000D03*
D26*
X120640000Y-142650000D03*
X120640000Y-139950000D03*
D27*
X104610000Y-99760000D03*
X104610000Y-106360000D03*
X100910000Y-99760000D03*
X100910000Y-106360000D03*
D14*
X161350000Y-103970000D03*
X161350000Y-102320000D03*
X120174400Y-86565000D03*
X120174400Y-84915000D03*
D28*
X151325200Y-91780000D03*
X151325200Y-90230000D03*
D22*
X116650000Y-133710000D03*
X116650000Y-131810000D03*
D16*
X88980000Y-140520000D03*
D14*
X103493600Y-86565000D03*
X103493600Y-84915000D03*
D21*
X125703900Y-90195000D03*
X125703900Y-91745000D03*
D14*
X111075800Y-86565000D03*
X111075800Y-84915000D03*
D18*
X154202500Y-136417500D03*
X155852500Y-136417500D03*
D19*
X140410000Y-120790000D03*
D20*
X142950000Y-120790000D03*
X145490000Y-120790000D03*
X148030000Y-120790000D03*
X150570000Y-120790000D03*
D17*
X147757500Y-105722500D03*
X147757500Y-104452500D03*
X147757500Y-103182500D03*
X147757500Y-101902500D03*
X147757500Y-100642500D03*
X147757500Y-99372500D03*
X147757500Y-98102500D03*
X147757500Y-96832500D03*
X142277500Y-96832500D03*
X142277500Y-98102500D03*
X142277500Y-99372500D03*
X142277500Y-100642500D03*
X142277500Y-101902500D03*
X142277500Y-103182500D03*
X142277500Y-104452500D03*
X142277500Y-105722500D03*
D14*
X167040000Y-81845000D03*
X167040000Y-80195000D03*
D19*
X140585000Y-127340000D03*
D20*
X143125000Y-127340000D03*
X145665000Y-127340000D03*
X148205000Y-127340000D03*
X150745000Y-127340000D03*
D21*
X132004600Y-90195000D03*
X132004600Y-91745000D03*
D14*
X169350000Y-92655000D03*
X169350000Y-91005000D03*
D28*
X148174900Y-91780000D03*
X148174900Y-90230000D03*
D21*
X136730000Y-90195000D03*
X136730000Y-91745000D03*
D18*
X154202500Y-138107500D03*
X155852500Y-138107500D03*
D14*
X147810000Y-86375000D03*
X147810000Y-84725000D03*
D29*
X125790000Y-139440000D03*
X130870000Y-139440000D03*
D21*
X106802000Y-90195000D03*
X106802000Y-91745000D03*
D14*
X103340000Y-133875000D03*
X103340000Y-132225000D03*
D19*
X124850000Y-127260000D03*
D20*
X127390000Y-127260000D03*
X129930000Y-127260000D03*
X132470000Y-127260000D03*
X135010000Y-127260000D03*
D26*
X110870000Y-142562500D03*
X110870000Y-139862500D03*
D18*
X92400000Y-131280000D03*
X94050000Y-131280000D03*
D15*
X101735000Y-132225000D03*
X101735000Y-133875000D03*
D14*
X143120000Y-86500000D03*
X143120000Y-84850000D03*
D21*
X113102600Y-90195000D03*
X113102600Y-91745000D03*
X109952300Y-90195000D03*
X109952300Y-91745000D03*
D30*
X96070000Y-141040000D03*
X96070000Y-142340000D03*
D14*
X163766600Y-115355000D03*
X163766600Y-113705000D03*
D28*
X146520000Y-91775000D03*
X146520000Y-90225000D03*
D18*
X142962500Y-134317500D03*
X144612500Y-134317500D03*
D14*
X169136700Y-81845000D03*
X169136700Y-80195000D03*
X166363300Y-103970000D03*
X166363300Y-102320000D03*
X141570000Y-86505000D03*
X141570000Y-84855000D03*
D21*
X138305200Y-90195000D03*
X138305200Y-91745000D03*
D15*
X164140000Y-123530000D03*
X164140000Y-125180000D03*
D18*
X142962500Y-139377500D03*
X144612500Y-139377500D03*
D21*
X128854200Y-90195000D03*
X128854200Y-91745000D03*
D31*
X114687500Y-129880000D03*
X112812500Y-129880000D03*
D14*
X127756600Y-86565000D03*
X127756600Y-84915000D03*
D21*
X105226800Y-90195000D03*
X105226800Y-91745000D03*
X122553600Y-90195000D03*
X122553600Y-91745000D03*
D28*
X149750000Y-91780000D03*
X149750000Y-90230000D03*
D21*
X130429400Y-90195000D03*
X130429400Y-91745000D03*
D19*
X173070000Y-95930000D03*
D20*
X170530000Y-95930000D03*
X167990000Y-95930000D03*
X165450000Y-95930000D03*
X162910000Y-95930000D03*
X160370000Y-95930000D03*
X157830000Y-95930000D03*
D14*
X118658000Y-86565000D03*
X118658000Y-84915000D03*
X169200000Y-125180000D03*
X169200000Y-123530000D03*
D21*
X111527500Y-90195000D03*
X111527500Y-91745000D03*
D17*
X123577500Y-97182500D03*
X123577500Y-98452500D03*
X123577500Y-99722500D03*
X123577500Y-101002500D03*
X123577500Y-102262500D03*
X123577500Y-103532500D03*
X123577500Y-104802500D03*
X123577500Y-106072500D03*
X129057500Y-106072500D03*
X129057500Y-104802500D03*
X129057500Y-103532500D03*
X129057500Y-102262500D03*
X129057500Y-101002500D03*
X129057500Y-99722500D03*
X129057500Y-98452500D03*
X129057500Y-97182500D03*
D16*
X171980000Y-138910000D03*
D14*
X162846700Y-81845000D03*
X162846700Y-80195000D03*
X161113300Y-115355000D03*
X161113300Y-113705000D03*
X104945000Y-133875000D03*
X104945000Y-132225000D03*
D19*
X125180000Y-120880000D03*
D20*
X127720000Y-120880000D03*
X130260000Y-120880000D03*
X132800000Y-120880000D03*
X135340000Y-120880000D03*
D21*
X144605800Y-90195000D03*
X144605800Y-91745000D03*
D22*
X114370000Y-133710000D03*
X114370000Y-131810000D03*
D18*
X109425000Y-108580000D03*
X111075000Y-108580000D03*
D14*
X149370000Y-86400000D03*
X149370000Y-84750000D03*
X126240100Y-86565000D03*
X126240100Y-84915000D03*
D32*
X113480000Y-142490000D03*
D33*
X115780000Y-136190000D03*
D32*
X115780000Y-142490000D03*
X118080000Y-142490000D03*
D21*
X103651700Y-90195000D03*
X103651700Y-91745000D03*
D14*
X106526400Y-86565000D03*
X106526400Y-84915000D03*
X108042900Y-86565000D03*
X108042900Y-84915000D03*
X123207300Y-86565000D03*
X123207300Y-84915000D03*
D21*
X133579700Y-90195000D03*
X133579700Y-91745000D03*
D14*
X101977100Y-86565000D03*
X101977100Y-84915000D03*
D21*
X114677800Y-90195000D03*
X114677800Y-91745000D03*
D19*
X173070000Y-107900000D03*
D20*
X170530000Y-107900000D03*
X167990000Y-107900000D03*
X165450000Y-107900000D03*
X162910000Y-107900000D03*
X160370000Y-107900000D03*
X157830000Y-107900000D03*
D14*
X117141500Y-86565000D03*
X117141500Y-84915000D03*
D18*
X154202500Y-141597500D03*
X155852500Y-141597500D03*
D21*
X135154900Y-90195000D03*
X135154900Y-91745000D03*
D14*
X112592200Y-86565000D03*
X112592200Y-84915000D03*
D21*
X124128800Y-90195000D03*
X124128800Y-91745000D03*
D14*
X106550000Y-133875000D03*
X106550000Y-132225000D03*
D15*
X166620000Y-123530000D03*
X166620000Y-125180000D03*
D21*
X127279100Y-90195000D03*
X127279100Y-91745000D03*
D27*
X92060000Y-106360000D03*
X92060000Y-99760000D03*
X95760000Y-106360000D03*
X95760000Y-99760000D03*
D21*
X139880400Y-90195000D03*
X139880400Y-91745000D03*
D14*
X135430000Y-86575000D03*
X135430000Y-84925000D03*
X129273000Y-86565000D03*
X129273000Y-84915000D03*
X136970000Y-86565000D03*
X136970000Y-84915000D03*
D19*
X107625000Y-76075000D03*
D20*
X107625000Y-73535000D03*
X110165000Y-76075000D03*
X110165000Y-73535000D03*
X112705000Y-76075000D03*
X112705000Y-73535000D03*
X115245000Y-76075000D03*
X115245000Y-73535000D03*
X117785000Y-76075000D03*
X117785000Y-73535000D03*
X120325000Y-76075000D03*
X120325000Y-73535000D03*
X122865000Y-76075000D03*
X122865000Y-73535000D03*
X125405000Y-76075000D03*
X125405000Y-73535000D03*
X127945000Y-76075000D03*
X127945000Y-73535000D03*
X130485000Y-76075000D03*
X130485000Y-73535000D03*
X133025000Y-76075000D03*
X133025000Y-73535000D03*
X135565000Y-76075000D03*
X135565000Y-73535000D03*
X138105000Y-76075000D03*
X138105000Y-73535000D03*
X140645000Y-76075000D03*
X140645000Y-73535000D03*
X143185000Y-76075000D03*
X143185000Y-73535000D03*
X145725000Y-76075000D03*
X145725000Y-73535000D03*
X148265000Y-76075000D03*
X148265000Y-73535000D03*
X150805000Y-76075000D03*
X150805000Y-73535000D03*
X153345000Y-76075000D03*
X153345000Y-73535000D03*
X155885000Y-76075000D03*
X155885000Y-73535000D03*
D21*
X116252900Y-90195000D03*
X116252900Y-91745000D03*
D14*
X140020000Y-86535000D03*
X140020000Y-84885000D03*
X132305900Y-86565000D03*
X132305900Y-84915000D03*
D18*
X142962500Y-141127500D03*
X144612500Y-141127500D03*
X142962500Y-135977500D03*
X144612500Y-135977500D03*
D14*
X130789500Y-86565000D03*
X130789500Y-84915000D03*
D34*
X106570000Y-137587500D03*
X100770000Y-137587500D03*
D35*
X99340000Y-137087500D03*
X108000000Y-137087500D03*
D36*
X108000000Y-141267500D03*
X99340000Y-141267500D03*
D37*
X100320000Y-136327500D03*
X101120000Y-136327500D03*
X102420000Y-136327500D03*
X103420000Y-136327500D03*
X103920000Y-136327500D03*
X104920000Y-136327500D03*
X106220000Y-136327500D03*
X107020000Y-136327500D03*
X106720000Y-136327500D03*
X105920000Y-136327500D03*
X105420000Y-136327500D03*
X104420000Y-136327500D03*
X102920000Y-136327500D03*
X101920000Y-136327500D03*
X101420000Y-136327500D03*
X100620000Y-136327500D03*
D14*
X168870000Y-103970000D03*
X168870000Y-102320000D03*
D18*
X142962500Y-137627500D03*
X144612500Y-137627500D03*
D17*
X118220000Y-106230000D03*
X118220000Y-104960000D03*
X118220000Y-103690000D03*
X118220000Y-102410000D03*
X118220000Y-101150000D03*
X118220000Y-99880000D03*
X118220000Y-98610000D03*
X118220000Y-97340000D03*
X112740000Y-97340000D03*
X112740000Y-98610000D03*
X112740000Y-99880000D03*
X112740000Y-101150000D03*
X112740000Y-102410000D03*
X112740000Y-103690000D03*
X112740000Y-104960000D03*
X112740000Y-106230000D03*
D18*
X154202500Y-139817500D03*
X155852500Y-139817500D03*
D14*
X164410000Y-92655000D03*
X164410000Y-91005000D03*
X133860000Y-86555000D03*
X133860000Y-84905000D03*
X115625100Y-86565000D03*
X115625100Y-84915000D03*
X138500000Y-86565000D03*
X138500000Y-84915000D03*
M02*
